<svg xmlns="http://www.w3.org/2000/svg" xmlns:xlink="http://www.w3.org/1999/xlink" xmlns:s="https://github.com/nturley/netlistsvg" width="1095" height="650">
  <style>svg {
    stroke:#000;
    fill:none;
  }
  text {
    fill:#000;
    stroke:none;
    font-size:10px;
    font-weight: bold;
    font-family: "Courier New", monospace;
  }
  .nodelabel {
    text-anchor: middle;
  }
  .inputPortLabel {
    text-anchor: end;
  }
  .splitjoinBody {
    fill:#000;
  }</style>
  <g s:type="and" transform="translate(363.6666666666667,534.5)" s:width="30" s:height="25" id="cell_$and$src/hardware/room_eq_peripheral/calibration_engine/calibration_engine.sv:88$4">
    <s:alias val="$and"/>
    <s:alias val="$logic_and"/>
    <s:alias val="$_AND_"/>
    <path d="M0,0 L0,25 L15,25 A15 12.5 0 0 0 15,0 Z" class="cell_$and$src/hardware/room_eq_peripheral/calibration_engine/calibration_engine.sv:88$4"/>
    <g s:x="0" s:y="5" s:pid="A"/>
    <g s:x="0" s:y="20" s:pid="B"/>
    <g s:x="30" s:y="12.5" s:pid="Y"/>
  </g>
  <g s:type="and" transform="translate(489.6666666666667,542)" s:width="30" s:height="25" id="cell_$and$src/hardware/room_eq_peripheral/calibration_engine/calibration_engine.sv:88$6">
    <s:alias val="$and"/>
    <s:alias val="$logic_and"/>
    <s:alias val="$_AND_"/>
    <path d="M0,0 L0,25 L15,25 A15 12.5 0 0 0 15,0 Z" class="cell_$and$src/hardware/room_eq_peripheral/calibration_engine/calibration_engine.sv:88$6"/>
    <g s:x="0" s:y="5" s:pid="A"/>
    <g s:x="0" s:y="20" s:pid="B"/>
    <g s:x="30" s:y="12.5" s:pid="Y"/>
  </g>
  <g s:type="generic" transform="translate(151,544)" s:width="30" s:height="40" id="cell_$auto$ff.cc:337:slice$25">
    <text x="15" y="-4" class="nodelabel cell_$auto$ff.cc:337:slice$25" s:attribute="ref">$adffe</text>
    <rect width="30" height="80" s:generic="body" class="cell_$auto$ff.cc:337:slice$25"/>
    <g transform="translate(0,10)" s:x="0" s:y="10" s:pid="in0" id="port_$auto$ff.cc:337:slice$25~ARST">
      <text x="-3" y="-4" class="inputPortLabel cell_$auto$ff.cc:337:slice$25">ARST</text>
    </g>
    <g transform="translate(0,30)" s:x="0" s:y="10" s:pid="in0" id="port_$auto$ff.cc:337:slice$25~CLK">
      <text x="-3" y="-4" class="inputPortLabel cell_$auto$ff.cc:337:slice$25">CLK</text>
    </g>
    <g transform="translate(0,50)" s:x="0" s:y="10" s:pid="in0" id="port_$auto$ff.cc:337:slice$25~D">
      <text x="-3" y="-4" class="inputPortLabel cell_$auto$ff.cc:337:slice$25">D</text>
    </g>
    <g transform="translate(0,70)" s:x="0" s:y="10" s:pid="in0" id="port_$auto$ff.cc:337:slice$25~EN">
      <text x="-3" y="-4" class="inputPortLabel cell_$auto$ff.cc:337:slice$25">EN</text>
    </g>
    <g transform="translate(30,10)" s:x="30" s:y="10" s:pid="out0" id="port_$auto$ff.cc:337:slice$25~Q">
      <text x="5" y="-4" style="fill:#000; stroke:none" class="cell_$auto$ff.cc:337:slice$25">Q</text>
    </g>
  </g>
  <g s:type="not" transform="translate(857.5,137)" s:width="30" s:height="20" id="cell_$not$src/hardware/room_eq_peripheral/calibration_engine/calibration_engine.sv:78$2">
    <s:alias val="$_NOT_"/>
    <s:alias val="$not"/>
    <s:alias val="$logic_not"/>
    <path d="M0,0 L0,20 L20,10 Z" class="cell_$not$src/hardware/room_eq_peripheral/calibration_engine/calibration_engine.sv:78$2"/>
    <circle cx="23" cy="10" r="3" class="cell_$not$src/hardware/room_eq_peripheral/calibration_engine/calibration_engine.sv:78$2"/>
    <g s:x="0" s:y="10" s:pid="A"/>
    <g s:x="25" s:y="10" s:pid="Y"/>
  </g>
  <g s:type="not" transform="translate(365.5,594.5)" s:width="30" s:height="20" id="cell_$not$src/hardware/room_eq_peripheral/calibration_engine/calibration_engine.sv:88$5">
    <s:alias val="$_NOT_"/>
    <s:alias val="$not"/>
    <s:alias val="$logic_not"/>
    <path d="M0,0 L0,20 L20,10 Z" class="cell_$not$src/hardware/room_eq_peripheral/calibration_engine/calibration_engine.sv:88$5"/>
    <circle cx="23" cy="10" r="3" class="cell_$not$src/hardware/room_eq_peripheral/calibration_engine/calibration_engine.sv:88$5"/>
    <g s:x="0" s:y="10" s:pid="A"/>
    <g s:x="25" s:y="10" s:pid="Y"/>
  </g>
  <g s:type="generic" transform="translate(360,436.5)" s:width="30" s:height="40" id="cell_$procdff$18">
    <text x="15" y="-4" class="nodelabel cell_$procdff$18" s:attribute="ref">$adff</text>
    <rect width="30" height="60" s:generic="body" class="cell_$procdff$18"/>
    <g transform="translate(0,10)" s:x="0" s:y="10" s:pid="in0" id="port_$procdff$18~ARST">
      <text x="-3" y="-4" class="inputPortLabel cell_$procdff$18">ARST</text>
    </g>
    <g transform="translate(0,30)" s:x="0" s:y="10" s:pid="in0" id="port_$procdff$18~CLK">
      <text x="-3" y="-4" class="inputPortLabel cell_$procdff$18">CLK</text>
    </g>
    <g transform="translate(0,50)" s:x="0" s:y="10" s:pid="in0" id="port_$procdff$18~D">
      <text x="-3" y="-4" class="inputPortLabel cell_$procdff$18">D</text>
    </g>
    <g transform="translate(30,10)" s:x="30" s:y="10" s:pid="out0" id="port_$procdff$18~Q">
      <text x="5" y="-4" style="fill:#000; stroke:none" class="cell_$procdff$18">Q</text>
    </g>
  </g>
  <g s:type="generic" transform="translate(486,374.5)" s:width="30" s:height="40" id="cell_$procdff$21">
    <text x="15" y="-4" class="nodelabel cell_$procdff$21" s:attribute="ref">$adff</text>
    <rect width="30" height="60" s:generic="body" class="cell_$procdff$21"/>
    <g transform="translate(0,10)" s:x="0" s:y="10" s:pid="in0" id="port_$procdff$21~ARST">
      <text x="-3" y="-4" class="inputPortLabel cell_$procdff$21">ARST</text>
    </g>
    <g transform="translate(0,30)" s:x="0" s:y="10" s:pid="in0" id="port_$procdff$21~CLK">
      <text x="-3" y="-4" class="inputPortLabel cell_$procdff$21">CLK</text>
    </g>
    <g transform="translate(0,50)" s:x="0" s:y="10" s:pid="in0" id="port_$procdff$21~D">
      <text x="-3" y="-4" class="inputPortLabel cell_$procdff$21">D</text>
    </g>
    <g transform="translate(30,10)" s:x="30" s:y="10" s:pid="out0" id="port_$procdff$21~Q">
      <text x="5" y="-4" style="fill:#000; stroke:none" class="cell_$procdff$21">Q</text>
    </g>
  </g>
  <g s:type="mux" transform="translate(983,257)" s:width="20" s:height="40" id="cell_$ternary$src/hardware/room_eq_peripheral/calibration_engine/calibration_engine.sv:73$1">
    <s:alias val="$pmux"/>
    <s:alias val="$mux"/>
    <s:alias val="$_MUX_"/>
    <path d="M0,0 L20,10 L20,30 L0,40 Z" class="cell_$ternary$src/hardware/room_eq_peripheral/calibration_engine/calibration_engine.sv:73$1"/>
    <g s:x="0" s:y="10" s:pid="A"/>
    <g s:x="0" s:y="30" s:pid="B"/>
    <g s:x="10" s:y="35" s:pid="S"/>
    <g s:x="20" s:y="20" s:pid="Y"/>
  </g>
  <g s:type="generic" transform="translate(852,394.5)" s:width="30" s:height="40" id="cell_u_fft_result_ram">
    <text x="15" y="-4" class="nodelabel cell_u_fft_result_ram" s:attribute="ref">fft_result_ram</text>
    <rect width="30" height="160" s:generic="body" class="cell_u_fft_result_ram"/>
    <g transform="translate(0,10)" s:x="0" s:y="10" s:pid="in0" id="port_u_fft_result_ram~data_eop">
      <text x="-3" y="-4" class="inputPortLabel cell_u_fft_result_ram">data_eop</text>
    </g>
    <g transform="translate(0,30)" s:x="0" s:y="10" s:pid="in0" id="port_u_fft_result_ram~data_sop">
      <text x="-3" y="-4" class="inputPortLabel cell_u_fft_result_ram">data_sop</text>
    </g>
    <g transform="translate(0,50)" s:x="0" s:y="10" s:pid="in0" id="port_u_fft_result_ram~fft_imag">
      <text x="-3" y="-4" class="inputPortLabel cell_u_fft_result_ram">fft_imag</text>
    </g>
    <g transform="translate(0,70)" s:x="0" s:y="10" s:pid="in0" id="port_u_fft_result_ram~fft_real">
      <text x="-3" y="-4" class="inputPortLabel cell_u_fft_result_ram">fft_real</text>
    </g>
    <g transform="translate(0,90)" s:x="0" s:y="10" s:pid="in0" id="port_u_fft_result_ram~fft_valid">
      <text x="-3" y="-4" class="inputPortLabel cell_u_fft_result_ram">fft_valid</text>
    </g>
    <g transform="translate(0,110)" s:x="0" s:y="10" s:pid="in0" id="port_u_fft_result_ram~rd_addr">
      <text x="-3" y="-4" class="inputPortLabel cell_u_fft_result_ram">rd_addr</text>
    </g>
    <g transform="translate(0,130)" s:x="0" s:y="10" s:pid="in0" id="port_u_fft_result_ram~reset_n">
      <text x="-3" y="-4" class="inputPortLabel cell_u_fft_result_ram">reset_n</text>
    </g>
    <g transform="translate(0,150)" s:x="0" s:y="10" s:pid="in0" id="port_u_fft_result_ram~sysclk">
      <text x="-3" y="-4" class="inputPortLabel cell_u_fft_result_ram">sysclk</text>
    </g>
    <g transform="translate(30,10)" s:x="30" s:y="10" s:pid="out0" id="port_u_fft_result_ram~fft_done">
      <text x="5" y="-4" style="fill:#000; stroke:none" class="cell_u_fft_result_ram">fft_done</text>
    </g>
    <g transform="translate(30,30)" s:x="30" s:y="10" s:pid="out0" id="port_u_fft_result_ram~rd_imag">
      <text x="5" y="-4" style="fill:#000; stroke:none" class="cell_u_fft_result_ram">rd_imag</text>
    </g>
    <g transform="translate(30,50)" s:x="30" s:y="10" s:pid="out0" id="port_u_fft_result_ram~rd_real">
      <text x="5" y="-4" style="fill:#000; stroke:none" class="cell_u_fft_result_ram">rd_real</text>
    </g>
  </g>
  <g s:type="generic" transform="translate(653,374.5)" s:width="30" s:height="40" id="cell_u_sample_fft">
    <text x="15" y="-4" class="nodelabel cell_u_sample_fft" s:attribute="ref">sample_fft</text>
    <rect width="30" height="120" s:generic="body" class="cell_u_sample_fft"/>
    <g transform="translate(0,10)" s:x="0" s:y="10" s:pid="in0" id="port_u_sample_fft~reset_n">
      <text x="-3" y="-4" class="inputPortLabel cell_u_sample_fft">reset_n</text>
    </g>
    <g transform="translate(0,30)" s:x="0" s:y="10" s:pid="in0" id="port_u_sample_fft~sink_real">
      <text x="-3" y="-4" class="inputPortLabel cell_u_sample_fft">sink_real</text>
    </g>
    <g transform="translate(0,50)" s:x="0" s:y="10" s:pid="in0" id="port_u_sample_fft~sink_valid">
      <text x="-3" y="-4" class="inputPortLabel cell_u_sample_fft">sink_valid</text>
    </g>
    <g transform="translate(0,70)" s:x="0" s:y="10" s:pid="in0" id="port_u_sample_fft~sysclk">
      <text x="-3" y="-4" class="inputPortLabel cell_u_sample_fft">sysclk</text>
    </g>
    <g transform="translate(30,10)" s:x="30" s:y="10" s:pid="out0" id="port_u_sample_fft~sink_ready">
      <text x="5" y="-4" style="fill:#000; stroke:none" class="cell_u_sample_fft">sink_ready</text>
    </g>
    <g transform="translate(30,30)" s:x="30" s:y="10" s:pid="out0" id="port_u_sample_fft~source_eop">
      <text x="5" y="-4" style="fill:#000; stroke:none" class="cell_u_sample_fft">source_eop</text>
    </g>
    <g transform="translate(30,50)" s:x="30" s:y="10" s:pid="out0" id="port_u_sample_fft~source_imag">
      <text x="5" y="-4" style="fill:#000; stroke:none" class="cell_u_sample_fft">source_imag</text>
    </g>
    <g transform="translate(30,70)" s:x="30" s:y="10" s:pid="out0" id="port_u_sample_fft~source_real">
      <text x="5" y="-4" style="fill:#000; stroke:none" class="cell_u_sample_fft">source_real</text>
    </g>
    <g transform="translate(30,90)" s:x="30" s:y="10" s:pid="out0" id="port_u_sample_fft~source_sop">
      <text x="5" y="-4" style="fill:#000; stroke:none" class="cell_u_sample_fft">source_sop</text>
    </g>
    <g transform="translate(30,110)" s:x="30" s:y="10" s:pid="out0" id="port_u_sample_fft~source_valid">
      <text x="5" y="-4" style="fill:#000; stroke:none" class="cell_u_sample_fft">source_valid</text>
    </g>
  </g>
  <g s:type="generic" transform="translate(191.875,71.5)" s:width="30" s:height="40" id="cell_u_sample_fifo">
    <text x="15" y="-4" class="nodelabel cell_u_sample_fifo" s:attribute="ref">sample_fifo</text>
    <rect width="30" height="120" s:generic="body" class="cell_u_sample_fifo"/>
    <g transform="translate(0,10)" s:x="0" s:y="10" s:pid="in0" id="port_u_sample_fifo~aclr">
      <text x="-3" y="-4" class="inputPortLabel cell_u_sample_fifo">aclr</text>
    </g>
    <g transform="translate(0,30)" s:x="0" s:y="10" s:pid="in0" id="port_u_sample_fifo~bclk">
      <text x="-3" y="-4" class="inputPortLabel cell_u_sample_fifo">bclk</text>
    </g>
    <g transform="translate(0,50)" s:x="0" s:y="10" s:pid="in0" id="port_u_sample_fifo~fft_ready">
      <text x="-3" y="-4" class="inputPortLabel cell_u_sample_fifo">fft_ready</text>
    </g>
    <g transform="translate(0,70)" s:x="0" s:y="10" s:pid="in0" id="port_u_sample_fifo~left_chan">
      <text x="-3" y="-4" class="inputPortLabel cell_u_sample_fifo">left_chan</text>
    </g>
    <g transform="translate(0,90)" s:x="0" s:y="10" s:pid="in0" id="port_u_sample_fifo~lrclk">
      <text x="-3" y="-4" class="inputPortLabel cell_u_sample_fifo">lrclk</text>
    </g>
    <g transform="translate(0,110)" s:x="0" s:y="10" s:pid="in0" id="port_u_sample_fifo~sysclk">
      <text x="-3" y="-4" class="inputPortLabel cell_u_sample_fifo">sysclk</text>
    </g>
    <g transform="translate(30,10)" s:x="30" s:y="10" s:pid="out0" id="port_u_sample_fifo~data_out">
      <text x="5" y="-4" style="fill:#000; stroke:none" class="cell_u_sample_fifo">data_out</text>
    </g>
    <g transform="translate(30,30)" s:x="30" s:y="10" s:pid="out0" id="port_u_sample_fifo~data_valid">
      <text x="5" y="-4" style="fill:#000; stroke:none" class="cell_u_sample_fifo">data_valid</text>
    </g>
  </g>
  <g s:type="inputExt" transform="translate(12,395)" s:width="30" s:height="20" id="cell_sysclk">
    <text x="15" y="-4" class="nodelabel cell_sysclk" s:attribute="ref">sysclk</text>
    <s:alias val="$_inputExt_"/>
    <path d="M0,0 L0,20 L15,20 L30,10 L15,0 Z" class="cell_sysclk"/>
    <g s:x="28" s:y="10" s:pid="Y"/>
  </g>
  <g s:type="inputExt" transform="translate(12,22)" s:width="30" s:height="20" id="cell_bclk">
    <text x="15" y="-4" class="nodelabel cell_bclk" s:attribute="ref">bclk</text>
    <s:alias val="$_inputExt_"/>
    <path d="M0,0 L0,20 L15,20 L30,10 L15,0 Z" class="cell_bclk"/>
    <g s:x="28" s:y="10" s:pid="Y"/>
  </g>
  <g s:type="inputExt" transform="translate(12,152)" s:width="30" s:height="20" id="cell_lrclk">
    <text x="15" y="-4" class="nodelabel cell_lrclk" s:attribute="ref">lrclk</text>
    <s:alias val="$_inputExt_"/>
    <path d="M0,0 L0,20 L15,20 L30,10 L15,0 Z" class="cell_lrclk"/>
    <g s:x="28" s:y="10" s:pid="Y"/>
  </g>
  <g s:type="inputExt" transform="translate(12,330)" s:width="30" s:height="20" id="cell_aclr">
    <text x="15" y="-4" class="nodelabel cell_aclr" s:attribute="ref">aclr</text>
    <s:alias val="$_inputExt_"/>
    <path d="M0,0 L0,20 L15,20 L30,10 L15,0 Z" class="cell_aclr"/>
    <g s:x="28" s:y="10" s:pid="Y"/>
  </g>
  <g s:type="inputExt" transform="translate(12,542)" s:width="30" s:height="20" id="cell_start">
    <text x="15" y="-4" class="nodelabel cell_start" s:attribute="ref">start</text>
    <s:alias val="$_inputExt_"/>
    <path d="M0,0 L0,20 L15,20 L30,10 L15,0 Z" class="cell_start"/>
    <g s:x="28" s:y="10" s:pid="Y"/>
  </g>
  <g s:type="inputExt" transform="translate(12,87)" s:width="30" s:height="20" id="cell_left_chan">
    <text x="15" y="-4" class="nodelabel cell_left_chan" s:attribute="ref">left_chan</text>
    <s:alias val="$_inputExt_"/>
    <path d="M0,0 L0,20 L15,20 L30,10 L15,0 Z" class="cell_left_chan"/>
    <g s:x="28" s:y="10" s:pid="Y"/>
  </g>
  <g s:type="inputExt" transform="translate(653,542.5)" s:width="30" s:height="20" id="cell_rd_addr">
    <text x="15" y="-4" class="nodelabel cell_rd_addr" s:attribute="ref">rd_addr</text>
    <s:alias val="$_inputExt_"/>
    <path d="M0,0 L0,20 L15,20 L30,10 L15,0 Z" class="cell_rd_addr"/>
    <g s:x="28" s:y="10" s:pid="Y"/>
  </g>
  <g s:type="outputExt" transform="translate(983,525)" s:width="30" s:height="20" id="cell_rd_real">
    <text x="15" y="-4" class="nodelabel cell_rd_real" s:attribute="ref">rd_real</text>
    <s:alias val="$_outputExt_"/>
    <path d="M30,0 L30,20 L15,20 L0,10 L15,0 Z" class="cell_rd_real"/>
    <g s:x="0" s:y="10" s:pid="A"/>
  </g>
  <g s:type="outputExt" transform="translate(983,460)" s:width="30" s:height="20" id="cell_rd_imag">
    <text x="15" y="-4" class="nodelabel cell_rd_imag" s:attribute="ref">rd_imag</text>
    <s:alias val="$_outputExt_"/>
    <path d="M30,0 L30,20 L15,20 L0,10 L15,0 Z" class="cell_rd_imag"/>
    <g s:x="0" s:y="10" s:pid="A"/>
  </g>
  <g s:type="outputExt" transform="translate(983,395)" s:width="30" s:height="20" id="cell_fft_done">
    <text x="15" y="-4" class="nodelabel cell_fft_done" s:attribute="ref">fft_done</text>
    <s:alias val="$_outputExt_"/>
    <path d="M30,0 L30,20 L15,20 L0,10 L15,0 Z" class="cell_fft_done"/>
    <g s:x="0" s:y="10" s:pid="A"/>
  </g>
  <g s:type="inputExt" transform="translate(151,437)" s:width="30" s:height="20" id="cell_fifo_hps_mode">
    <text x="15" y="-4" class="nodelabel cell_fifo_hps_mode" s:attribute="ref">fifo_hps_mode</text>
    <s:alias val="$_inputExt_"/>
    <path d="M0,0 L0,20 L15,20 L30,10 L15,0 Z" class="cell_fifo_hps_mode"/>
    <g s:x="28" s:y="10" s:pid="Y"/>
  </g>
  <g s:type="inputExt" transform="translate(852,288)" s:width="30" s:height="20" id="cell_fifo_hps_pop">
    <text x="15" y="-4" class="nodelabel cell_fifo_hps_pop" s:attribute="ref">fifo_hps_pop</text>
    <s:alias val="$_inputExt_"/>
    <path d="M0,0 L0,20 L15,20 L30,10 L15,0 Z" class="cell_fifo_hps_pop"/>
    <g s:x="28" s:y="10" s:pid="Y"/>
  </g>
  <g s:type="outputExt" transform="translate(983,72)" s:width="30" s:height="20" id="cell_fifo_data_out">
    <text x="15" y="-4" class="nodelabel cell_fifo_data_out" s:attribute="ref">fifo_data_out</text>
    <s:alias val="$_outputExt_"/>
    <path d="M30,0 L30,20 L15,20 L0,10 L15,0 Z" class="cell_fifo_data_out"/>
    <g s:x="0" s:y="10" s:pid="A"/>
  </g>
  <g s:type="outputExt" transform="translate(983,202)" s:width="30" s:height="20" id="cell_fifo_data_valid">
    <text x="15" y="-4" class="nodelabel cell_fifo_data_valid" s:attribute="ref">fifo_data_valid</text>
    <s:alias val="$_outputExt_"/>
    <path d="M30,0 L30,20 L15,20 L0,10 L15,0 Z" class="cell_fifo_data_valid"/>
    <g s:x="0" s:y="10" s:pid="A"/>
  </g>
  <g s:type="outputExt" transform="translate(983,137)" s:width="30" s:height="20" id="cell_fifo_empty">
    <text x="15" y="-4" class="nodelabel cell_fifo_empty" s:attribute="ref">fifo_empty</text>
    <s:alias val="$_outputExt_"/>
    <path d="M30,0 L30,20 L15,20 L0,10 L15,0 Z" class="cell_fifo_empty"/>
    <g s:x="0" s:y="10" s:pid="A"/>
  </g>
  <g s:type="constant" transform="translate(12,477)" s:width="30" s:height="20" id="cell_1">
    <text x="15" y="-4" class="nodelabel cell_1" s:attribute="ref">1</text>
    <s:alias val="$_constant_"/>
    <rect width="30" height="20" class="cell_1"/>
    <g s:x="30" s:y="10" s:pid="Y"/>
  </g>
  <line x1="222.875" x2="315" y1="102" y2="102" class="net_119"/>
  <line x1="315" x2="315" y1="102" y2="539.5" class="net_119"/>
  <line x1="315" x2="363.6666666666667" y1="539.5" y2="539.5" class="net_119"/>
  <line x1="222.875" x2="315" y1="102" y2="102" class="net_119"/>
  <line x1="315" x2="315" y1="102" y2="147" class="net_119"/>
  <circle cx="315" cy="147" r="2" style="fill:#000" class="net_119"/>
  <line x1="315" x2="857.5" y1="147" y2="147" class="net_119"/>
  <line x1="222.875" x2="315" y1="102" y2="102" class="net_119"/>
  <line x1="315" x2="315" y1="102" y2="147" class="net_119"/>
  <line x1="315" x2="767" y1="147" y2="147" class="net_119"/>
  <line x1="767" x2="767" y1="147" y2="212" class="net_119"/>
  <circle cx="767" cy="147" r="2" style="fill:#000" class="net_119"/>
  <line x1="767" x2="983" y1="212" y2="212" class="net_119"/>
  <line x1="182" x2="363.6666666666667" y1="554.5" y2="554.5" class="net_121"/>
  <line x1="393.6666666666667" x2="489.6666666666667" y1="547" y2="547" class="net_122"/>
  <line x1="390.5" x2="436" y1="604.5" y2="604.5" class="net_123"/>
  <line x1="436" x2="436" y1="604.5" y2="562" class="net_123"/>
  <line x1="436" x2="489.6666666666667" y1="562" y2="562" class="net_123"/>
  <line x1="40" x2="106" y1="340" y2="340" class="net_5"/>
  <line x1="106" x2="106" y1="340" y2="554.5" class="net_5"/>
  <circle cx="106" cy="340" r="2" style="fill:#000" class="net_5"/>
  <line x1="106" x2="151" y1="554.5" y2="554.5" class="net_5"/>
  <line x1="40" x2="106" y1="340" y2="340" class="net_5"/>
  <line x1="106" x2="106" y1="340" y2="416" class="net_5"/>
  <line x1="106" x2="325" y1="416" y2="416" class="net_5"/>
  <line x1="325" x2="325" y1="416" y2="447" class="net_5"/>
  <circle cx="106" cy="416" r="2" style="fill:#000" class="net_5"/>
  <line x1="325" x2="360" y1="447" y2="447" class="net_5"/>
  <line x1="40" x2="436" y1="340" y2="340" class="net_5"/>
  <line x1="436" x2="436" y1="340" y2="385" class="net_5"/>
  <line x1="436" x2="486" y1="385" y2="385" class="net_5"/>
  <line x1="40" x2="106" y1="340" y2="340" class="net_5"/>
  <line x1="106" x2="106" y1="340" y2="82" class="net_5"/>
  <line x1="106" x2="191.875" y1="82" y2="82" class="net_5"/>
  <line x1="40" x2="96" y1="405" y2="405" class="net_2"/>
  <line x1="96" x2="96" y1="405" y2="574.5" class="net_2"/>
  <circle cx="96" cy="405" r="2" style="fill:#000" class="net_2"/>
  <circle cx="96" cy="574.5" r="2" style="fill:#000" class="net_2"/>
  <line x1="96" x2="151" y1="574.5" y2="574.5" class="net_2"/>
  <line x1="40" x2="96" y1="405" y2="405" class="net_2"/>
  <line x1="96" x2="96" y1="405" y2="467" class="net_2"/>
  <circle cx="96" cy="467" r="2" style="fill:#000" class="net_2"/>
  <line x1="96" x2="360" y1="467" y2="467" class="net_2"/>
  <line x1="40" x2="486" y1="405" y2="405" class="net_2"/>
  <line x1="40" x2="96" y1="405" y2="405" class="net_2"/>
  <line x1="96" x2="96" y1="405" y2="637" class="net_2"/>
  <line x1="96" x2="787" y1="637" y2="637" class="net_2"/>
  <line x1="787" x2="787" y1="637" y2="545" class="net_2"/>
  <line x1="787" x2="852" y1="545" y2="545" class="net_2"/>
  <line x1="40" x2="96" y1="405" y2="405" class="net_2"/>
  <line x1="96" x2="96" y1="405" y2="637" class="net_2"/>
  <line x1="96" x2="582" y1="637" y2="637" class="net_2"/>
  <line x1="582" x2="582" y1="637" y2="445" class="net_2"/>
  <circle cx="582" cy="637" r="2" style="fill:#000" class="net_2"/>
  <line x1="582" x2="653" y1="445" y2="445" class="net_2"/>
  <line x1="40" x2="96" y1="405" y2="405" class="net_2"/>
  <line x1="96" x2="96" y1="405" y2="182" class="net_2"/>
  <line x1="96" x2="191.875" y1="182" y2="182" class="net_2"/>
  <line x1="42" x2="86" y1="487" y2="487" class="net_180"/>
  <line x1="86" x2="86" y1="487" y2="594.5" class="net_180"/>
  <circle cx="86" cy="487" r="2" style="fill:#000" class="net_180"/>
  <line x1="86" x2="151" y1="594.5" y2="594.5" class="net_180"/>
  <line x1="42" x2="360" y1="487" y2="487" class="net_180"/>
  <line x1="40" x2="76" y1="552" y2="552" class="net_6"/>
  <line x1="76" x2="76" y1="552" y2="614.5" class="net_6"/>
  <line x1="76" x2="151" y1="614.5" y2="614.5" class="net_6"/>
  <line x1="179" x2="305" y1="447" y2="447" class="net_93"/>
  <line x1="305" x2="305" y1="447" y2="604.5" class="net_93"/>
  <circle cx="305" cy="447" r="2" style="fill:#000" class="net_93"/>
  <line x1="305" x2="365.5" y1="604.5" y2="604.5" class="net_93"/>
  <line x1="179" x2="305" y1="447" y2="447" class="net_93"/>
  <line x1="305" x2="305" y1="447" y2="318" class="net_93"/>
  <line x1="305" x2="993" y1="318" y2="318" class="net_93"/>
  <line x1="993" x2="993" y1="318" y2="292" class="net_93"/>
  <line x1="391" x2="436" y1="447" y2="447" class="net_125"/>
  <line x1="436" x2="436" y1="447" y2="425" class="net_125"/>
  <line x1="436" x2="486" y1="425" y2="425" class="net_125"/>
  <line x1="684" x2="767" y1="385" y2="385" class="net_127"/>
  <line x1="767" x2="767" y1="385" y2="267" class="net_127"/>
  <line x1="767" x2="983" y1="267" y2="267" class="net_127"/>
  <line x1="880" x2="958" y1="298" y2="298" class="net_94"/>
  <line x1="958" x2="958" y1="298" y2="287" class="net_94"/>
  <line x1="958" x2="983" y1="287" y2="287" class="net_94"/>
  <line x1="684" x2="852" y1="405" y2="405" class="net_129"/>
  <line x1="684" x2="787" y1="465" y2="465" class="net_130"/>
  <line x1="787" x2="787" y1="465" y2="425" class="net_130"/>
  <line x1="787" x2="852" y1="425" y2="425" class="net_130"/>
  <line x1="684" x2="777" y1="425" y2="425" class="net_131,132,133,134,135,136,137,138,139,140,141,142,143,144,145,146,147,148,149,150,151,152,153,154"/>
  <line x1="777" x2="777" y1="425" y2="445" class="net_131,132,133,134,135,136,137,138,139,140,141,142,143,144,145,146,147,148,149,150,151,152,153,154"/>
  <line x1="777" x2="852" y1="445" y2="445" class="net_131,132,133,134,135,136,137,138,139,140,141,142,143,144,145,146,147,148,149,150,151,152,153,154"/>
  <line x1="684" x2="767" y1="445" y2="445" class="net_155,156,157,158,159,160,161,162,163,164,165,166,167,168,169,170,171,172,173,174,175,176,177,178"/>
  <line x1="767" x2="767" y1="445" y2="465" class="net_155,156,157,158,159,160,161,162,163,164,165,166,167,168,169,170,171,172,173,174,175,176,177,178"/>
  <line x1="767" x2="852" y1="465" y2="465" class="net_155,156,157,158,159,160,161,162,163,164,165,166,167,168,169,170,171,172,173,174,175,176,177,178"/>
  <line x1="684" x2="852" y1="485" y2="485" class="net_179"/>
  <line x1="681" x2="767" y1="552.5" y2="552.5" class="net_31,32,33,34,35,36,37,38,39,40,41,42,43"/>
  <line x1="767" x2="767" y1="552.5" y2="505" class="net_31,32,33,34,35,36,37,38,39,40,41,42,43"/>
  <line x1="767" x2="852" y1="505" y2="505" class="net_31,32,33,34,35,36,37,38,39,40,41,42,43"/>
  <line x1="517" x2="562" y1="385" y2="385" class="net_126"/>
  <line x1="562" x2="562" y1="385" y2="572.5" class="net_126"/>
  <line x1="562" x2="777" y1="572.5" y2="572.5" class="net_126"/>
  <line x1="777" x2="777" y1="572.5" y2="525" class="net_126"/>
  <circle cx="562" cy="385" r="2" style="fill:#000" class="net_126"/>
  <line x1="777" x2="852" y1="525" y2="525" class="net_126"/>
  <line x1="517" x2="653" y1="385" y2="385" class="net_126"/>
  <line x1="222.875" x2="325" y1="82" y2="82" class="net_95,96,97,98,99,100,101,102,103,104,105,106,107,108,109,110,111,112,113,114,115,116,117,118"/>
  <line x1="325" x2="325" y1="82" y2="329" class="net_95,96,97,98,99,100,101,102,103,104,105,106,107,108,109,110,111,112,113,114,115,116,117,118"/>
  <line x1="325" x2="572" y1="329" y2="329" class="net_95,96,97,98,99,100,101,102,103,104,105,106,107,108,109,110,111,112,113,114,115,116,117,118"/>
  <line x1="572" x2="572" y1="329" y2="405" class="net_95,96,97,98,99,100,101,102,103,104,105,106,107,108,109,110,111,112,113,114,115,116,117,118"/>
  <circle cx="325" cy="82" r="2" style="fill:#000" class="net_95,96,97,98,99,100,101,102,103,104,105,106,107,108,109,110,111,112,113,114,115,116,117,118"/>
  <line x1="572" x2="653" y1="405" y2="405" class="net_95,96,97,98,99,100,101,102,103,104,105,106,107,108,109,110,111,112,113,114,115,116,117,118"/>
  <line x1="222.875" x2="983" y1="82" y2="82" class="net_95,96,97,98,99,100,101,102,103,104,105,106,107,108,109,110,111,112,113,114,115,116,117,118"/>
  <line x1="519.6666666666667" x2="572" y1="554.5" y2="554.5" class="net_124"/>
  <line x1="572" x2="572" y1="554.5" y2="425" class="net_124"/>
  <line x1="572" x2="653" y1="425" y2="425" class="net_124"/>
  <line x1="40" x2="116" y1="32" y2="32" class="net_3"/>
  <line x1="116" x2="116" y1="32" y2="102" class="net_3"/>
  <line x1="116" x2="191.875" y1="102" y2="102" class="net_3"/>
  <line x1="1003" x2="1083" y1="277" y2="277" class="net_128"/>
  <line x1="1083" x2="1083" y1="277" y2="51.5" class="net_128"/>
  <line x1="1083" x2="86" y1="51.5" y2="51.5" class="net_128"/>
  <line x1="86" x2="86" y1="51.5" y2="122" class="net_128"/>
  <line x1="86" x2="191.875" y1="122" y2="122" class="net_128"/>
  <line x1="40" x2="76" y1="97" y2="97" class="net_7,8,9,10,11,12,13,14,15,16,17,18,19,20,21,22,23,24,25,26,27,28,29,30"/>
  <line x1="76" x2="76" y1="97" y2="142" class="net_7,8,9,10,11,12,13,14,15,16,17,18,19,20,21,22,23,24,25,26,27,28,29,30"/>
  <line x1="76" x2="191.875" y1="142" y2="142" class="net_7,8,9,10,11,12,13,14,15,16,17,18,19,20,21,22,23,24,25,26,27,28,29,30"/>
  <line x1="40" x2="191.875" y1="162" y2="162" class="net_4"/>
  <line x1="883" x2="958" y1="445" y2="445" class="net_44,45,46,47,48,49,50,51,52,53,54,55,56,57,58,59,60,61,62,63,64,65,66,67"/>
  <line x1="958" x2="958" y1="445" y2="535" class="net_44,45,46,47,48,49,50,51,52,53,54,55,56,57,58,59,60,61,62,63,64,65,66,67"/>
  <line x1="958" x2="983" y1="535" y2="535" class="net_44,45,46,47,48,49,50,51,52,53,54,55,56,57,58,59,60,61,62,63,64,65,66,67"/>
  <line x1="883" x2="968" y1="425" y2="425" class="net_68,69,70,71,72,73,74,75,76,77,78,79,80,81,82,83,84,85,86,87,88,89,90,91"/>
  <line x1="968" x2="968" y1="425" y2="470" class="net_68,69,70,71,72,73,74,75,76,77,78,79,80,81,82,83,84,85,86,87,88,89,90,91"/>
  <line x1="968" x2="983" y1="470" y2="470" class="net_68,69,70,71,72,73,74,75,76,77,78,79,80,81,82,83,84,85,86,87,88,89,90,91"/>
  <line x1="883" x2="983" y1="405" y2="405" class="net_92"/>
  <line x1="882.5" x2="983" y1="147" y2="147" class="net_120"/>
</svg>
