<svg xmlns="http://www.w3.org/2000/svg" xmlns:xlink="http://www.w3.org/1999/xlink" xmlns:s="https://github.com/nturley/netlistsvg" width="1567" height="710">
  <style>svg {
    stroke:#000;
    fill:none;
  }
  text {
    fill:#000;
    stroke:none;
    font-size:10px;
    font-weight: bold;
    font-family: "Courier New", monospace;
  }
  .nodelabel {
    text-anchor: middle;
  }
  .inputPortLabel {
    text-anchor: end;
  }
  .splitjoinBody {
    fill:#000;
  }</style>
  <g s:type="generic" transform="translate(974,220.5)" s:width="30" s:height="40" id="cell_$auto$ff.cc:337:slice$29">
    <text x="15" y="-4" class="nodelabel cell_$auto$ff.cc:337:slice$29" s:attribute="ref">$sdffe</text>
    <rect width="30" height="80" s:generic="body" class="cell_$auto$ff.cc:337:slice$29"/>
    <g transform="translate(0,10)" s:x="0" s:y="10" s:pid="in0" id="port_$auto$ff.cc:337:slice$29~CLK">
      <text x="-3" y="-4" class="inputPortLabel cell_$auto$ff.cc:337:slice$29">CLK</text>
    </g>
    <g transform="translate(0,30)" s:x="0" s:y="10" s:pid="in0" id="port_$auto$ff.cc:337:slice$29~D">
      <text x="-3" y="-4" class="inputPortLabel cell_$auto$ff.cc:337:slice$29">D</text>
    </g>
    <g transform="translate(0,50)" s:x="0" s:y="10" s:pid="in0" id="port_$auto$ff.cc:337:slice$29~EN">
      <text x="-3" y="-4" class="inputPortLabel cell_$auto$ff.cc:337:slice$29">EN</text>
    </g>
    <g transform="translate(0,70)" s:x="0" s:y="10" s:pid="in0" id="port_$auto$ff.cc:337:slice$29~SRST">
      <text x="-3" y="-4" class="inputPortLabel cell_$auto$ff.cc:337:slice$29">SRST</text>
    </g>
    <g transform="translate(30,10)" s:x="30" s:y="10" s:pid="out0" id="port_$auto$ff.cc:337:slice$29~Q">
      <text x="5" y="-4" style="fill:#000; stroke:none" class="cell_$auto$ff.cc:337:slice$29">Q</text>
    </g>
  </g>
  <g s:type="generic" transform="translate(974,64)" s:width="30" s:height="40" id="cell_$auto$ff.cc:337:slice$31">
    <text x="15" y="-4" class="nodelabel cell_$auto$ff.cc:337:slice$31" s:attribute="ref">$sdffe</text>
    <rect width="30" height="80" s:generic="body" class="cell_$auto$ff.cc:337:slice$31"/>
    <g transform="translate(0,10)" s:x="0" s:y="10" s:pid="in0" id="port_$auto$ff.cc:337:slice$31~CLK">
      <text x="-3" y="-4" class="inputPortLabel cell_$auto$ff.cc:337:slice$31">CLK</text>
    </g>
    <g transform="translate(0,30)" s:x="0" s:y="10" s:pid="in0" id="port_$auto$ff.cc:337:slice$31~D">
      <text x="-3" y="-4" class="inputPortLabel cell_$auto$ff.cc:337:slice$31">D</text>
    </g>
    <g transform="translate(0,50)" s:x="0" s:y="10" s:pid="in0" id="port_$auto$ff.cc:337:slice$31~EN">
      <text x="-3" y="-4" class="inputPortLabel cell_$auto$ff.cc:337:slice$31">EN</text>
    </g>
    <g transform="translate(0,70)" s:x="0" s:y="10" s:pid="in0" id="port_$auto$ff.cc:337:slice$31~SRST">
      <text x="-3" y="-4" class="inputPortLabel cell_$auto$ff.cc:337:slice$31">SRST</text>
    </g>
    <g transform="translate(30,10)" s:x="30" s:y="10" s:pid="out0" id="port_$auto$ff.cc:337:slice$31~Q">
      <text x="5" y="-4" style="fill:#000; stroke:none" class="cell_$auto$ff.cc:337:slice$31">Q</text>
    </g>
  </g>
  <g s:type="eq" transform="translate(435.6666666666667,178.5)" s:width="25" s:height="25" id="cell_$eq$src/hardware/room_eq_peripheral/i2s_tx/i2s_tx.sv:54$2">
    <s:alias val="$eq"/>
    <circle r="12.5" cx="12.5" cy="12.5" class="cell_$eq$src/hardware/room_eq_peripheral/i2s_tx/i2s_tx.sv:54$2"/>
    <line x1="7.5" x2="17.5" y1="10" y2="10" class="cell_$eq$src/hardware/room_eq_peripheral/i2s_tx/i2s_tx.sv:54$2"/>
    <line x1="7.5" x2="17.5" y1="15" y2="15" class="cell_$eq$src/hardware/room_eq_peripheral/i2s_tx/i2s_tx.sv:54$2"/>
    <g s:x="3" s:y="5" s:pid="A"/>
    <g s:x="3" s:y="20" s:pid="B"/>
    <g s:x="25" s:y="12.5" s:pid="Y"/>
  </g>
  <g s:type="eq" transform="translate(244,402.5)" s:width="25" s:height="25" id="cell_$eq$src/hardware/room_eq_peripheral/i2s_tx/i2s_tx.sv:70$4">
    <s:alias val="$eq"/>
    <circle r="12.5" cx="12.5" cy="12.5" class="cell_$eq$src/hardware/room_eq_peripheral/i2s_tx/i2s_tx.sv:70$4"/>
    <line x1="7.5" x2="17.5" y1="10" y2="10" class="cell_$eq$src/hardware/room_eq_peripheral/i2s_tx/i2s_tx.sv:70$4"/>
    <line x1="7.5" x2="17.5" y1="15" y2="15" class="cell_$eq$src/hardware/room_eq_peripheral/i2s_tx/i2s_tx.sv:70$4"/>
    <g s:x="3" s:y="5" s:pid="A"/>
    <g s:x="3" s:y="20" s:pid="B"/>
    <g s:x="25" s:y="12.5" s:pid="Y"/>
  </g>
  <g s:type="eq" transform="translate(244,599.5)" s:width="25" s:height="25" id="cell_$eq$src/hardware/room_eq_peripheral/i2s_tx/i2s_tx.sv:71$6">
    <s:alias val="$eq"/>
    <circle r="12.5" cx="12.5" cy="12.5" class="cell_$eq$src/hardware/room_eq_peripheral/i2s_tx/i2s_tx.sv:71$6"/>
    <line x1="7.5" x2="17.5" y1="10" y2="10" class="cell_$eq$src/hardware/room_eq_peripheral/i2s_tx/i2s_tx.sv:71$6"/>
    <line x1="7.5" x2="17.5" y1="15" y2="15" class="cell_$eq$src/hardware/room_eq_peripheral/i2s_tx/i2s_tx.sv:71$6"/>
    <g s:x="3" s:y="5" s:pid="A"/>
    <g s:x="3" s:y="20" s:pid="B"/>
    <g s:x="25" s:y="12.5" s:pid="Y"/>
  </g>
  <g s:type="and" transform="translate(609.6666666666666,171)" s:width="30" s:height="25" id="cell_$logic_and$src/hardware/room_eq_peripheral/i2s_tx/i2s_tx.sv:54$3">
    <s:alias val="$and"/>
    <s:alias val="$logic_and"/>
    <s:alias val="$_AND_"/>
    <path d="M0,0 L0,25 L15,25 A15 12.5 0 0 0 15,0 Z" class="cell_$logic_and$src/hardware/room_eq_peripheral/i2s_tx/i2s_tx.sv:54$3"/>
    <g s:x="0" s:y="5" s:pid="A"/>
    <g s:x="0" s:y="20" s:pid="B"/>
    <g s:x="30" s:y="12.5" s:pid="Y"/>
  </g>
  <g s:type="and" transform="translate(304,395)" s:width="30" s:height="25" id="cell_$logic_and$src/hardware/room_eq_peripheral/i2s_tx/i2s_tx.sv:70$5">
    <s:alias val="$and"/>
    <s:alias val="$logic_and"/>
    <s:alias val="$_AND_"/>
    <path d="M0,0 L0,25 L15,25 A15 12.5 0 0 0 15,0 Z" class="cell_$logic_and$src/hardware/room_eq_peripheral/i2s_tx/i2s_tx.sv:70$5"/>
    <g s:x="0" s:y="5" s:pid="A"/>
    <g s:x="0" s:y="20" s:pid="B"/>
    <g s:x="30" s:y="12.5" s:pid="Y"/>
  </g>
  <g s:type="and" transform="translate(304,468.5)" s:width="30" s:height="25" id="cell_$logic_and$src/hardware/room_eq_peripheral/i2s_tx/i2s_tx.sv:71$7">
    <s:alias val="$and"/>
    <s:alias val="$logic_and"/>
    <s:alias val="$_AND_"/>
    <path d="M0,0 L0,25 L15,25 A15 12.5 0 0 0 15,0 Z" class="cell_$logic_and$src/hardware/room_eq_peripheral/i2s_tx/i2s_tx.sv:71$7"/>
    <g s:x="0" s:y="5" s:pid="A"/>
    <g s:x="0" s:y="20" s:pid="B"/>
    <g s:x="30" s:y="12.5" s:pid="Y"/>
  </g>
  <g s:type="and" transform="translate(609.6666666666666,504.5)" s:width="30" s:height="25" id="cell_$logic_and$src/hardware/room_eq_peripheral/i2s_tx/i2s_tx.sv:73$10">
    <s:alias val="$and"/>
    <s:alias val="$logic_and"/>
    <s:alias val="$_AND_"/>
    <path d="M0,0 L0,25 L15,25 A15 12.5 0 0 0 15,0 Z" class="cell_$logic_and$src/hardware/room_eq_peripheral/i2s_tx/i2s_tx.sv:73$10"/>
    <g s:x="0" s:y="5" s:pid="A"/>
    <g s:x="0" s:y="20" s:pid="B"/>
    <g s:x="30" s:y="12.5" s:pid="Y"/>
  </g>
  <g s:type="and" transform="translate(1010.6666666666666,565)" s:width="30" s:height="25" id="cell_$logic_and$src/hardware/room_eq_peripheral/i2s_tx/i2s_tx.sv:73$12">
    <s:alias val="$and"/>
    <s:alias val="$logic_and"/>
    <s:alias val="$_AND_"/>
    <path d="M0,0 L0,25 L15,25 A15 12.5 0 0 0 15,0 Z" class="cell_$logic_and$src/hardware/room_eq_peripheral/i2s_tx/i2s_tx.sv:73$12"/>
    <g s:x="0" s:y="5" s:pid="A"/>
    <g s:x="0" s:y="20" s:pid="B"/>
    <g s:x="30" s:y="12.5" s:pid="Y"/>
  </g>
  <g s:type="and" transform="translate(1284,625.5)" s:width="30" s:height="25" id="cell_$logic_and$src/hardware/room_eq_peripheral/i2s_tx/i2s_tx.sv:73$14">
    <s:alias val="$and"/>
    <s:alias val="$logic_and"/>
    <s:alias val="$_AND_"/>
    <path d="M0,0 L0,25 L15,25 A15 12.5 0 0 0 15,0 Z" class="cell_$logic_and$src/hardware/room_eq_peripheral/i2s_tx/i2s_tx.sv:73$14"/>
    <g s:x="0" s:y="5" s:pid="A"/>
    <g s:x="0" s:y="20" s:pid="B"/>
    <g s:x="30" s:y="12.5" s:pid="Y"/>
  </g>
  <g s:type="not" transform="translate(434,514.5)" s:width="30" s:height="20" id="cell_$logic_not$src/hardware/room_eq_peripheral/i2s_tx/i2s_tx.sv:73$9">
    <s:alias val="$_NOT_"/>
    <s:alias val="$not"/>
    <s:alias val="$logic_not"/>
    <path d="M0,0 L0,20 L20,10 Z" class="cell_$logic_not$src/hardware/room_eq_peripheral/i2s_tx/i2s_tx.sv:73$9"/>
    <circle cx="23" cy="10" r="3" class="cell_$logic_not$src/hardware/room_eq_peripheral/i2s_tx/i2s_tx.sv:73$9"/>
    <g s:x="0" s:y="10" s:pid="A"/>
    <g s:x="25" s:y="10" s:pid="Y"/>
  </g>
  <g s:type="or" transform="translate(369,461)" s:width="30" s:height="25" id="cell_$logic_or$src/hardware/room_eq_peripheral/i2s_tx/i2s_tx.sv:72$8">
    <s:alias val="$or"/>
    <s:alias val="$logic_or"/>
    <s:alias val="$_OR_"/>
    <path d="M0,25 L0,25 L15,25 A15 12.5 0 0 0 15,0 L0,0" class="cell_$logic_or$src/hardware/room_eq_peripheral/i2s_tx/i2s_tx.sv:72$8"/>
    <path d="M0,0 A30 25 0 0 1 0,25" class="cell_$logic_or$src/hardware/room_eq_peripheral/i2s_tx/i2s_tx.sv:72$8"/>
    <g s:x="3" s:y="5" s:pid="A"/>
    <g s:x="3" s:y="20" s:pid="B"/>
    <g s:x="30" s:y="12.5" s:pid="Y"/>
  </g>
  <g s:type="generic" transform="translate(506,574.5)" s:width="30" s:height="40" id="cell_$ne$src/hardware/room_eq_peripheral/i2s_tx/i2s_tx.sv:74$11">
    <text x="15" y="-4" class="nodelabel cell_$ne$src/hardware/room_eq_peripheral/i2s_tx/i2s_tx.sv:74$11" s:attribute="ref">$reduce_bool</text>
    <rect width="30" height="20" s:generic="body" class="cell_$ne$src/hardware/room_eq_peripheral/i2s_tx/i2s_tx.sv:74$11"/>
    <g transform="translate(0,10)" s:x="0" s:y="10" s:pid="in0" id="port_$ne$src/hardware/room_eq_peripheral/i2s_tx/i2s_tx.sv:74$11~A">
      <text x="-3" y="-4" class="inputPortLabel cell_$ne$src/hardware/room_eq_peripheral/i2s_tx/i2s_tx.sv:74$11">A</text>
    </g>
    <g transform="translate(30,10)" s:x="30" s:y="10" s:pid="out0" id="port_$ne$src/hardware/room_eq_peripheral/i2s_tx/i2s_tx.sv:74$11~Y">
      <text x="5" y="-4" style="fill:#000; stroke:none" class="cell_$ne$src/hardware/room_eq_peripheral/i2s_tx/i2s_tx.sv:74$11">Y</text>
    </g>
  </g>
  <g s:type="generic" transform="translate(901,635)" s:width="30" s:height="40" id="cell_$ne$src/hardware/room_eq_peripheral/i2s_tx/i2s_tx.sv:75$13">
    <text x="15" y="-4" class="nodelabel cell_$ne$src/hardware/room_eq_peripheral/i2s_tx/i2s_tx.sv:75$13" s:attribute="ref">$ne</text>
    <rect width="30" height="40" s:generic="body" class="cell_$ne$src/hardware/room_eq_peripheral/i2s_tx/i2s_tx.sv:75$13"/>
    <g transform="translate(0,10)" s:x="0" s:y="10" s:pid="in0" id="port_$ne$src/hardware/room_eq_peripheral/i2s_tx/i2s_tx.sv:75$13~A">
      <text x="-3" y="-4" class="inputPortLabel cell_$ne$src/hardware/room_eq_peripheral/i2s_tx/i2s_tx.sv:75$13">A</text>
    </g>
    <g transform="translate(0,30)" s:x="0" s:y="10" s:pid="in0" id="port_$ne$src/hardware/room_eq_peripheral/i2s_tx/i2s_tx.sv:75$13~B">
      <text x="-3" y="-4" class="inputPortLabel cell_$ne$src/hardware/room_eq_peripheral/i2s_tx/i2s_tx.sv:75$13">B</text>
    </g>
    <g transform="translate(30,10)" s:x="30" s:y="10" s:pid="out0" id="port_$ne$src/hardware/room_eq_peripheral/i2s_tx/i2s_tx.sv:75$13~Y">
      <text x="5" y="-4" style="fill:#000; stroke:none" class="cell_$ne$src/hardware/room_eq_peripheral/i2s_tx/i2s_tx.sv:75$13">Y</text>
    </g>
  </g>
  <g s:type="mux" transform="translate(1287.3333333333333,201)" s:width="20" s:height="40" id="cell_$ternary$src/hardware/room_eq_peripheral/i2s_tx/i2s_tx.sv:77$15">
    <s:alias val="$pmux"/>
    <s:alias val="$mux"/>
    <s:alias val="$_MUX_"/>
    <path d="M0,0 L20,10 L20,30 L0,40 Z" class="cell_$ternary$src/hardware/room_eq_peripheral/i2s_tx/i2s_tx.sv:77$15"/>
    <g s:x="0" s:y="10" s:pid="A"/>
    <g s:x="0" s:y="30" s:pid="B"/>
    <g s:x="10" s:y="35" s:pid="S"/>
    <g s:x="20" s:y="20" s:pid="Y"/>
  </g>
  <g s:type="generic" transform="translate(108,357)" s:width="30" s:height="40" id="cell_clock_gen_inst">
    <text x="15" y="-4" class="nodelabel cell_clock_gen_inst" s:attribute="ref">i2s_clock_gen</text>
    <rect width="30" height="80" s:generic="body" class="cell_clock_gen_inst"/>
    <g transform="translate(0,10)" s:x="0" s:y="10" s:pid="in0" id="port_clock_gen_inst~clock">
      <text x="-3" y="-4" class="inputPortLabel cell_clock_gen_inst">clock</text>
    </g>
    <g transform="translate(0,30)" s:x="0" s:y="10" s:pid="in0" id="port_clock_gen_inst~reset">
      <text x="-3" y="-4" class="inputPortLabel cell_clock_gen_inst">reset</text>
    </g>
    <g transform="translate(30,10)" s:x="30" s:y="10" s:pid="out0" id="port_clock_gen_inst~bclk">
      <text x="5" y="-4" style="fill:#000; stroke:none" class="cell_clock_gen_inst">bclk</text>
    </g>
    <g transform="translate(30,30)" s:x="30" s:y="10" s:pid="out0" id="port_clock_gen_inst~bclk_fall">
      <text x="5" y="-4" style="fill:#000; stroke:none" class="cell_clock_gen_inst">bclk_fall</text>
    </g>
    <g transform="translate(30,50)" s:x="30" s:y="10" s:pid="out0" id="port_clock_gen_inst~bit_cnt">
      <text x="5" y="-4" style="fill:#000; stroke:none" class="cell_clock_gen_inst">bit_cnt</text>
    </g>
    <g transform="translate(30,70)" s:x="30" s:y="10" s:pid="out0" id="port_clock_gen_inst~lrck">
      <text x="5" y="-4" style="fill:#000; stroke:none" class="cell_clock_gen_inst">lrck</text>
    </g>
  </g>
  <g s:type="generic" transform="translate(1392,388.5)" s:width="30" s:height="40" id="cell_shift_reg_inst">
    <text x="15" y="-4" class="nodelabel cell_shift_reg_inst" s:attribute="ref">i2s_shift_register</text>
    <rect width="30" height="100" s:generic="body" class="cell_shift_reg_inst"/>
    <g transform="translate(0,10)" s:x="0" s:y="10" s:pid="in0" id="port_shift_reg_inst~clock">
      <text x="-3" y="-4" class="inputPortLabel cell_shift_reg_inst">clock</text>
    </g>
    <g transform="translate(0,30)" s:x="0" s:y="10" s:pid="in0" id="port_shift_reg_inst~data_in">
      <text x="-3" y="-4" class="inputPortLabel cell_shift_reg_inst">data_in</text>
    </g>
    <g transform="translate(0,50)" s:x="0" s:y="10" s:pid="in0" id="port_shift_reg_inst~load">
      <text x="-3" y="-4" class="inputPortLabel cell_shift_reg_inst">load</text>
    </g>
    <g transform="translate(0,70)" s:x="0" s:y="10" s:pid="in0" id="port_shift_reg_inst~reset">
      <text x="-3" y="-4" class="inputPortLabel cell_shift_reg_inst">reset</text>
    </g>
    <g transform="translate(0,90)" s:x="0" s:y="10" s:pid="in0" id="port_shift_reg_inst~shift">
      <text x="-3" y="-4" class="inputPortLabel cell_shift_reg_inst">shift</text>
    </g>
    <g transform="translate(30,10)" s:x="30" s:y="10" s:pid="out0" id="port_shift_reg_inst~serial_out">
      <text x="5" y="-4" style="fill:#000; stroke:none" class="cell_shift_reg_inst">serial_out</text>
    </g>
  </g>
  <g s:type="inputExt" transform="translate(12,357.5)" s:width="30" s:height="20" id="cell_clock">
    <text x="15" y="-4" class="nodelabel cell_clock" s:attribute="ref">clock</text>
    <s:alias val="$_inputExt_"/>
    <path d="M0,0 L0,20 L15,20 L30,10 L15,0 Z" class="cell_clock"/>
    <g s:x="28" s:y="10" s:pid="Y"/>
  </g>
  <g s:type="inputExt" transform="translate(12,440)" s:width="30" s:height="20" id="cell_reset">
    <text x="15" y="-4" class="nodelabel cell_reset" s:attribute="ref">reset</text>
    <s:alias val="$_inputExt_"/>
    <path d="M0,0 L0,20 L15,20 L30,10 L15,0 Z" class="cell_reset"/>
    <g s:x="28" s:y="10" s:pid="Y"/>
  </g>
  <g s:type="inputExt" transform="translate(506,241)" s:width="30" s:height="20" id="cell_left_sample">
    <text x="15" y="-4" class="nodelabel cell_left_sample" s:attribute="ref">left_sample</text>
    <s:alias val="$_inputExt_"/>
    <path d="M0,0 L0,20 L15,20 L30,10 L15,0 Z" class="cell_left_sample"/>
    <g s:x="28" s:y="10" s:pid="Y"/>
  </g>
  <g s:type="inputExt" transform="translate(506,84.5)" s:width="30" s:height="20" id="cell_right_sample">
    <text x="15" y="-4" class="nodelabel cell_right_sample" s:attribute="ref">right_sample</text>
    <s:alias val="$_inputExt_"/>
    <path d="M0,0 L0,20 L15,20 L30,10 L15,0 Z" class="cell_right_sample"/>
    <g s:x="28" s:y="10" s:pid="Y"/>
  </g>
  <g s:type="outputExt" transform="translate(1519,22)" s:width="30" s:height="20" id="cell_bclk">
    <text x="15" y="-4" class="nodelabel cell_bclk" s:attribute="ref">bclk</text>
    <s:alias val="$_outputExt_"/>
    <path d="M30,0 L30,20 L15,20 L0,10 L15,0 Z" class="cell_bclk"/>
    <g s:x="0" s:y="10" s:pid="A"/>
  </g>
  <g s:type="outputExt" transform="translate(1519,678)" s:width="30" s:height="20" id="cell_lrck">
    <text x="15" y="-4" class="nodelabel cell_lrck" s:attribute="ref">lrck</text>
    <s:alias val="$_outputExt_"/>
    <path d="M30,0 L30,20 L15,20 L0,10 L15,0 Z" class="cell_lrck"/>
    <g s:x="0" s:y="10" s:pid="A"/>
  </g>
  <g s:type="outputExt" transform="translate(1519,389)" s:width="30" s:height="20" id="cell_dacdat">
    <text x="15" y="-4" class="nodelabel cell_dacdat" s:attribute="ref">dacdat</text>
    <s:alias val="$_outputExt_"/>
    <path d="M30,0 L30,20 L15,20 L0,10 L15,0 Z" class="cell_dacdat"/>
    <g s:x="0" s:y="10" s:pid="A"/>
  </g>
  <g s:type="constant" transform="translate(369,188.5)" s:width="30" s:height="20" id="cell_111110">
    <text x="15" y="-4" class="nodelabel cell_111110" s:attribute="ref">0x3e</text>
    <s:alias val="$_constant_"/>
    <rect width="30" height="20" class="cell_111110"/>
    <g s:x="30" s:y="10" s:pid="Y"/>
  </g>
  <g s:type="constant" transform="translate(108,292)" s:width="30" s:height="20" id="cell_111111">
    <text x="15" y="-4" class="nodelabel cell_111111" s:attribute="ref">0x3f</text>
    <s:alias val="$_constant_"/>
    <rect width="30" height="20" class="cell_111111"/>
    <g s:x="30" s:y="10" s:pid="Y"/>
  </g>
  <g s:type="constant" transform="translate(108,609.5)" s:width="30" s:height="20" id="cell_011111">
    <text x="15" y="-4" class="nodelabel cell_011111" s:attribute="ref">0x1f</text>
    <s:alias val="$_constant_"/>
    <rect width="30" height="20" class="cell_011111"/>
    <g s:x="30" s:y="10" s:pid="Y"/>
  </g>
  <g s:type="constant" transform="translate(506,655.5)" s:width="30" s:height="20" id="cell_100000">
    <text x="15" y="-4" class="nodelabel cell_100000" s:attribute="ref">0x20</text>
    <s:alias val="$_constant_"/>
    <rect width="30" height="20" class="cell_100000"/>
    <g s:x="30" s:y="10" s:pid="Y"/>
  </g>
  <line x1="40" x2="52" y1="367.5" y2="367.5" class="net_2"/>
  <line x1="52" x2="52" y1="367.5" y2="145.5" class="net_2"/>
  <line x1="52" x2="884" y1="145.5" y2="145.5" class="net_2"/>
  <line x1="884" x2="884" y1="145.5" y2="231" class="net_2"/>
  <circle cx="52" cy="367.5" r="2" style="fill:#000" class="net_2"/>
  <circle cx="52" cy="145.5" r="2" style="fill:#000" class="net_2"/>
  <line x1="884" x2="974" y1="231" y2="231" class="net_2"/>
  <line x1="40" x2="52" y1="367.5" y2="367.5" class="net_2"/>
  <line x1="52" x2="52" y1="367.5" y2="43" class="net_2"/>
  <line x1="52" x2="864" y1="43" y2="43" class="net_2"/>
  <line x1="864" x2="864" y1="43" y2="74.5" class="net_2"/>
  <circle cx="864" cy="43" r="2" style="fill:#000" class="net_2"/>
  <line x1="864" x2="974" y1="74.5" y2="74.5" class="net_2"/>
  <line x1="40" x2="108" y1="367.5" y2="367.5" class="net_2"/>
  <line x1="40" x2="52" y1="367.5" y2="367.5" class="net_2"/>
  <line x1="52" x2="52" y1="367.5" y2="43" class="net_2"/>
  <line x1="52" x2="1334" y1="43" y2="43" class="net_2"/>
  <line x1="1334" x2="1334" y1="43" y2="399" class="net_2"/>
  <line x1="1334" x2="1392" y1="399" y2="399" class="net_2"/>
  <line x1="534" x2="974" y1="251" y2="251" class="net_4,5,6,7,8,9,10,11,12,13,14,15,16,17,18,19,20,21,22,23,24,25,26,27"/>
  <line x1="639.6666666666666" x2="874" y1="183.5" y2="183.5" class="net_55"/>
  <line x1="874" x2="874" y1="183.5" y2="271" class="net_55"/>
  <circle cx="874" cy="183.5" r="2" style="fill:#000" class="net_55"/>
  <line x1="874" x2="974" y1="271" y2="271" class="net_55"/>
  <line x1="639.6666666666666" x2="874" y1="183.5" y2="183.5" class="net_55"/>
  <line x1="874" x2="874" y1="183.5" y2="114.5" class="net_55"/>
  <line x1="874" x2="974" y1="114.5" y2="114.5" class="net_55"/>
  <line x1="40" x2="62" y1="450" y2="450" class="net_3"/>
  <line x1="62" x2="62" y1="450" y2="271" class="net_3"/>
  <line x1="62" x2="864" y1="271" y2="271" class="net_3"/>
  <line x1="864" x2="864" y1="271" y2="291" class="net_3"/>
  <circle cx="62" cy="450" r="2" style="fill:#000" class="net_3"/>
  <circle cx="62" cy="271" r="2" style="fill:#000" class="net_3"/>
  <line x1="864" x2="974" y1="291" y2="291" class="net_3"/>
  <line x1="40" x2="62" y1="450" y2="450" class="net_3"/>
  <line x1="62" x2="62" y1="450" y2="134.5" class="net_3"/>
  <line x1="62" x2="974" y1="134.5" y2="134.5" class="net_3"/>
  <line x1="40" x2="62" y1="450" y2="450" class="net_3"/>
  <line x1="62" x2="62" y1="450" y2="387.5" class="net_3"/>
  <circle cx="62" cy="387.5" r="2" style="fill:#000" class="net_3"/>
  <line x1="62" x2="108" y1="387.5" y2="387.5" class="net_3"/>
  <line x1="40" x2="1324" y1="450" y2="450" class="net_3"/>
  <line x1="1324" x2="1324" y1="450" y2="459" class="net_3"/>
  <line x1="1324" x2="1392" y1="459" y2="459" class="net_3"/>
  <line x1="534" x2="974" y1="94.5" y2="94.5" class="net_28,29,30,31,32,33,34,35,36,37,38,39,40,41,42,43,44,45,46,47,48,49,50,51"/>
  <line x1="139" x2="214" y1="407.5" y2="407.5" class="net_104,105,106,107,108,109"/>
  <line x1="214" x2="214" y1="407.5" y2="167.5" class="net_104,105,106,107,108,109"/>
  <line x1="214" x2="409" y1="167.5" y2="167.5" class="net_104,105,106,107,108,109"/>
  <line x1="409" x2="409" y1="167.5" y2="183.5" class="net_104,105,106,107,108,109"/>
  <circle cx="214" cy="407.5" r="2" style="fill:#000" class="net_104,105,106,107,108,109"/>
  <line x1="409" x2="438.6666666666667" y1="183.5" y2="183.5" class="net_104,105,106,107,108,109"/>
  <line x1="139" x2="247" y1="407.5" y2="407.5" class="net_104,105,106,107,108,109"/>
  <line x1="139" x2="214" y1="407.5" y2="407.5" class="net_104,105,106,107,108,109"/>
  <line x1="214" x2="214" y1="407.5" y2="604.5" class="net_104,105,106,107,108,109"/>
  <circle cx="214" cy="604.5" r="2" style="fill:#000" class="net_104,105,106,107,108,109"/>
  <line x1="214" x2="247" y1="604.5" y2="604.5" class="net_104,105,106,107,108,109"/>
  <line x1="139" x2="214" y1="407.5" y2="407.5" class="net_104,105,106,107,108,109"/>
  <line x1="214" x2="214" y1="407.5" y2="634.5" class="net_104,105,106,107,108,109"/>
  <line x1="214" x2="474" y1="634.5" y2="634.5" class="net_104,105,106,107,108,109"/>
  <line x1="474" x2="474" y1="634.5" y2="585" class="net_104,105,106,107,108,109"/>
  <circle cx="474" cy="634.5" r="2" style="fill:#000" class="net_104,105,106,107,108,109"/>
  <line x1="474" x2="506" y1="585" y2="585" class="net_104,105,106,107,108,109"/>
  <line x1="139" x2="214" y1="407.5" y2="407.5" class="net_104,105,106,107,108,109"/>
  <line x1="214" x2="214" y1="407.5" y2="634.5" class="net_104,105,106,107,108,109"/>
  <line x1="214" x2="864" y1="634.5" y2="634.5" class="net_104,105,106,107,108,109"/>
  <line x1="864" x2="864" y1="634.5" y2="645.5" class="net_104,105,106,107,108,109"/>
  <line x1="864" x2="901" y1="645.5" y2="645.5" class="net_104,105,106,107,108,109"/>
  <line x1="399" x2="438.6666666666667" y1="198.5" y2="198.5" class="net_147,148,149,150,151,152"/>
  <line x1="138" x2="234" y1="302" y2="302" class="net_153,154,155,156,157,158"/>
  <line x1="234" x2="234" y1="302" y2="422.5" class="net_153,154,155,156,157,158"/>
  <line x1="234" x2="247" y1="422.5" y2="422.5" class="net_153,154,155,156,157,158"/>
  <line x1="138" x2="247" y1="619.5" y2="619.5" class="net_159,160,161,162,163,164"/>
  <line x1="139" x2="224" y1="387.5" y2="387.5" class="net_113"/>
  <line x1="224" x2="224" y1="387.5" y2="156.5" class="net_113"/>
  <line x1="224" x2="474" y1="156.5" y2="156.5" class="net_113"/>
  <line x1="474" x2="474" y1="156.5" y2="176" class="net_113"/>
  <circle cx="224" cy="387.5" r="2" style="fill:#000" class="net_113"/>
  <line x1="474" x2="609.6666666666666" y1="176" y2="176" class="net_113"/>
  <line x1="139" x2="279" y1="387.5" y2="387.5" class="net_113"/>
  <line x1="279" x2="279" y1="387.5" y2="400" class="net_113"/>
  <line x1="279" x2="304" y1="400" y2="400" class="net_113"/>
  <line x1="139" x2="224" y1="387.5" y2="387.5" class="net_113"/>
  <line x1="224" x2="224" y1="387.5" y2="503.5" class="net_113"/>
  <line x1="224" x2="279" y1="503.5" y2="503.5" class="net_113"/>
  <line x1="279" x2="279" y1="503.5" y2="473.5" class="net_113"/>
  <circle cx="279" cy="503.5" r="2" style="fill:#000" class="net_113"/>
  <line x1="279" x2="304" y1="473.5" y2="473.5" class="net_113"/>
  <line x1="139" x2="224" y1="387.5" y2="387.5" class="net_113"/>
  <line x1="224" x2="224" y1="387.5" y2="503.5" class="net_113"/>
  <line x1="224" x2="474" y1="503.5" y2="503.5" class="net_113"/>
  <line x1="474" x2="474" y1="503.5" y2="509.5" class="net_113"/>
  <line x1="474" x2="609.6666666666666" y1="509.5" y2="509.5" class="net_113"/>
  <line x1="460.6666666666667" x2="609.6666666666666" y1="191" y2="191" class="net_110"/>
  <line x1="269" x2="304" y1="415" y2="415" class="net_111"/>
  <line x1="269" x2="289" y1="612" y2="612" class="net_112"/>
  <line x1="289" x2="289" y1="612" y2="488.5" class="net_112"/>
  <line x1="289" x2="304" y1="488.5" y2="488.5" class="net_112"/>
  <line x1="459" x2="609.6666666666666" y1="524.5" y2="524.5" class="net_116"/>
  <line x1="639.6666666666666" x2="864" y1="517" y2="517" class="net_117"/>
  <line x1="864" x2="864" y1="517" y2="570" class="net_117"/>
  <line x1="864" x2="1010.6666666666666" y1="570" y2="570" class="net_117"/>
  <line x1="537" x2="1010.6666666666666" y1="585" y2="585" class="net_118"/>
  <line x1="1040.6666666666665" x2="1259" y1="577.5" y2="577.5" class="net_119"/>
  <line x1="1259" x2="1259" y1="577.5" y2="630.5" class="net_119"/>
  <line x1="1259" x2="1284" y1="630.5" y2="630.5" class="net_119"/>
  <line x1="932" x2="1284" y1="645.5" y2="645.5" class="net_120"/>
  <line x1="399" x2="409" y1="473.5" y2="473.5" class="net_122"/>
  <line x1="409" x2="409" y1="473.5" y2="524.5" class="net_122"/>
  <circle cx="409" cy="473.5" r="2" style="fill:#000" class="net_122"/>
  <line x1="409" x2="434" y1="524.5" y2="524.5" class="net_122"/>
  <line x1="399" x2="409" y1="473.5" y2="473.5" class="net_122"/>
  <line x1="409" x2="409" y1="473.5" y2="439" class="net_122"/>
  <line x1="409" x2="1392" y1="439" y2="439" class="net_122"/>
  <line x1="334" x2="344" y1="407.5" y2="407.5" class="net_114"/>
  <line x1="344" x2="344" y1="407.5" y2="466" class="net_114"/>
  <circle cx="344" cy="407.5" r="2" style="fill:#000" class="net_114"/>
  <line x1="344" x2="372" y1="466" y2="466" class="net_114"/>
  <line x1="334" x2="1297.3333333333333" y1="407.5" y2="407.5" class="net_114"/>
  <line x1="1297.3333333333333" x2="1297.3333333333333" y1="407.5" y2="236" class="net_114"/>
  <line x1="334" x2="372" y1="481" y2="481" class="net_115"/>
  <line x1="536" x2="901" y1="665.5" y2="665.5" class="net_165,166,167,168,169,170"/>
  <line x1="1005" x2="1259" y1="74.5" y2="74.5" class="net_80,81,82,83,84,85,86,87,88,89,90,91,92,93,94,95,96,97,98,99,100,101,102,103"/>
  <line x1="1259" x2="1259" y1="74.5" y2="211" class="net_80,81,82,83,84,85,86,87,88,89,90,91,92,93,94,95,96,97,98,99,100,101,102,103"/>
  <line x1="1259" x2="1287.3333333333333" y1="211" y2="211" class="net_80,81,82,83,84,85,86,87,88,89,90,91,92,93,94,95,96,97,98,99,100,101,102,103"/>
  <line x1="1005" x2="1287.3333333333333" y1="231" y2="231" class="net_56,57,58,59,60,61,62,63,64,65,66,67,68,69,70,71,72,73,74,75,76,77,78,79"/>
  <line x1="1307.3333333333333" x2="1324" y1="221" y2="221" class="net_123,124,125,126,127,128,129,130,131,132,133,134,135,136,137,138,139,140,141,142,143,144,145,146"/>
  <line x1="1324" x2="1324" y1="221" y2="419" class="net_123,124,125,126,127,128,129,130,131,132,133,134,135,136,137,138,139,140,141,142,143,144,145,146"/>
  <line x1="1324" x2="1392" y1="419" y2="419" class="net_123,124,125,126,127,128,129,130,131,132,133,134,135,136,137,138,139,140,141,142,143,144,145,146"/>
  <line x1="1314" x2="1324" y1="638" y2="638" class="net_121"/>
  <line x1="1324" x2="1324" y1="638" y2="479" class="net_121"/>
  <line x1="1324" x2="1392" y1="479" y2="479" class="net_121"/>
  <line x1="139" x2="204" y1="367.5" y2="367.5" class="net_52"/>
  <line x1="204" x2="204" y1="367.5" y2="32" class="net_52"/>
  <line x1="204" x2="1519" y1="32" y2="32" class="net_52"/>
  <line x1="139" x2="204" y1="427.5" y2="427.5" class="net_53"/>
  <line x1="204" x2="204" y1="427.5" y2="688" class="net_53"/>
  <line x1="204" x2="1519" y1="688" y2="688" class="net_53"/>
  <line x1="1423" x2="1519" y1="399" y2="399" class="net_54"/>
</svg>
