<svg xmlns="http://www.w3.org/2000/svg" xmlns:xlink="http://www.w3.org/1999/xlink" xmlns:s="https://github.com/nturley/netlistsvg" width="901" height="318.5">
  <style>svg {
    stroke:#000;
    fill:none;
  }
  text {
    fill:#000;
    stroke:none;
    font-size:10px;
    font-weight: bold;
    font-family: "Courier New", monospace;
  }
  .nodelabel {
    text-anchor: middle;
  }
  .inputPortLabel {
    text-anchor: end;
  }
  .splitjoinBody {
    fill:#000;
  }</style>
  <g s:type="generic" transform="translate(450,128.5)" s:width="30" s:height="40" id="cell_$auto$ff.cc:337:slice$13">
    <text x="15" y="-4" class="nodelabel cell_$auto$ff.cc:337:slice$13" s:attribute="ref">$sdffe</text>
    <rect width="30" height="80" s:generic="body" class="cell_$auto$ff.cc:337:slice$13"/>
    <g transform="translate(0,10)" s:x="0" s:y="10" s:pid="in0" id="port_$auto$ff.cc:337:slice$13~CLK">
      <text x="-3" y="-4" class="inputPortLabel cell_$auto$ff.cc:337:slice$13">CLK</text>
    </g>
    <g transform="translate(0,30)" s:x="0" s:y="10" s:pid="in0" id="port_$auto$ff.cc:337:slice$13~D">
      <text x="-3" y="-4" class="inputPortLabel cell_$auto$ff.cc:337:slice$13">D</text>
    </g>
    <g transform="translate(0,50)" s:x="0" s:y="10" s:pid="in0" id="port_$auto$ff.cc:337:slice$13~EN">
      <text x="-3" y="-4" class="inputPortLabel cell_$auto$ff.cc:337:slice$13">EN</text>
    </g>
    <g transform="translate(0,70)" s:x="0" s:y="10" s:pid="in0" id="port_$auto$ff.cc:337:slice$13~SRST">
      <text x="-3" y="-4" class="inputPortLabel cell_$auto$ff.cc:337:slice$13">SRST</text>
    </g>
    <g transform="translate(30,10)" s:x="30" s:y="10" s:pid="out0" id="port_$auto$ff.cc:337:slice$13~Q">
      <text x="5" y="-4" style="fill:#000; stroke:none" class="cell_$auto$ff.cc:337:slice$13">Q</text>
    </g>
  </g>
  <g s:type="generic" transform="translate(132,168.5)" s:width="30" s:height="40" id="cell_$auto$opt_dff.cc:235:make_patterns_logic$15">
    <text x="15" y="-4" class="nodelabel cell_$auto$opt_dff.cc:235:make_patterns_logic$15" s:attribute="ref">$reduce_bool</text>
    <rect width="30" height="20" s:generic="body" class="cell_$auto$opt_dff.cc:235:make_patterns_logic$15"/>
    <g transform="translate(0,10)" s:x="0" s:y="10" s:pid="in0" id="port_$auto$opt_dff.cc:235:make_patterns_logic$15~A">
      <text x="-3" y="-4" class="inputPortLabel cell_$auto$opt_dff.cc:235:make_patterns_logic$15">A</text>
    </g>
    <g transform="translate(30,10)" s:x="30" s:y="10" s:pid="out0" id="port_$auto$opt_dff.cc:235:make_patterns_logic$15~Y">
      <text x="5" y="-4" style="fill:#000; stroke:none" class="cell_$auto$opt_dff.cc:235:make_patterns_logic$15">Y</text>
    </g>
  </g>
  <g s:type="mux" transform="translate(753,23)" s:width="20" s:height="40" id="cell_$procmux$3">
    <s:alias val="$pmux"/>
    <s:alias val="$mux"/>
    <s:alias val="$_MUX_"/>
    <path d="M0,0 L20,10 L20,30 L0,40 Z" class="cell_$procmux$3"/>
    <g s:x="0" s:y="10" s:pid="A"/>
    <g s:x="0" s:y="30" s:pid="B"/>
    <g s:x="10" s:y="35" s:pid="S"/>
    <g s:x="20" s:y="20" s:pid="Y"/>
  </g>
  <g s:type="mux" transform="translate(819,33)" s:width="20" s:height="40" id="cell_$procmux$6">
    <s:alias val="$pmux"/>
    <s:alias val="$mux"/>
    <s:alias val="$_MUX_"/>
    <path d="M0,0 L20,10 L20,30 L0,40 Z" class="cell_$procmux$6"/>
    <g s:x="0" s:y="10" s:pid="A"/>
    <g s:x="0" s:y="30" s:pid="B"/>
    <g s:x="10" s:y="35" s:pid="S"/>
    <g s:x="20" s:y="20" s:pid="Y"/>
  </g>
  <g s:type="inputExt" transform="translate(132,103.5)" s:width="30" s:height="20" id="cell_clock">
    <text x="15" y="-4" class="nodelabel cell_clock" s:attribute="ref">clock</text>
    <s:alias val="$_inputExt_"/>
    <path d="M0,0 L0,20 L15,20 L30,10 L15,0 Z" class="cell_clock"/>
    <g s:x="28" s:y="10" s:pid="Y"/>
  </g>
  <g s:type="inputExt" transform="translate(132,236.5)" s:width="30" s:height="20" id="cell_reset">
    <text x="15" y="-4" class="nodelabel cell_reset" s:attribute="ref">reset</text>
    <s:alias val="$_inputExt_"/>
    <path d="M0,0 L0,20 L15,20 L30,10 L15,0 Z" class="cell_reset"/>
    <g s:x="28" s:y="10" s:pid="Y"/>
  </g>
  <g s:type="inputExt" transform="translate(742,102.5)" s:width="30" s:height="20" id="cell_data_in">
    <text x="15" y="-4" class="nodelabel cell_data_in" s:attribute="ref">data_in</text>
    <s:alias val="$_inputExt_"/>
    <path d="M0,0 L0,20 L15,20 L30,10 L15,0 Z" class="cell_data_in"/>
    <g s:x="28" s:y="10" s:pid="Y"/>
  </g>
  <g s:type="inputExt" transform="translate(12,159)" s:width="30" s:height="20" id="cell_load">
    <text x="15" y="-4" class="nodelabel cell_load" s:attribute="ref">load</text>
    <s:alias val="$_inputExt_"/>
    <path d="M0,0 L0,20 L15,20 L30,10 L15,0 Z" class="cell_load"/>
    <g s:x="28" s:y="10" s:pid="Y"/>
  </g>
  <g s:type="inputExt" transform="translate(12,72.5)" s:width="30" s:height="20" id="cell_shift">
    <text x="15" y="-4" class="nodelabel cell_shift" s:attribute="ref">shift</text>
    <s:alias val="$_inputExt_"/>
    <path d="M0,0 L0,20 L15,20 L30,10 L15,0 Z" class="cell_shift"/>
    <g s:x="28" s:y="10" s:pid="Y"/>
  </g>
  <g s:type="outputExt" transform="translate(819,286.5)" s:width="30" s:height="20" id="cell_serial_out">
    <text x="15" y="-4" class="nodelabel cell_serial_out" s:attribute="ref">serial_out</text>
    <s:alias val="$_outputExt_"/>
    <path d="M30,0 L30,20 L15,20 L0,10 L15,0 Z" class="cell_serial_out"/>
    <g s:x="0" s:y="10" s:pid="A"/>
  </g>
  <g s:type="constant" transform="translate(629,33)" s:width="30" s:height="20" id="cell_0">
    <text x="15" y="-4" class="nodelabel cell_0" s:attribute="ref">0</text>
    <s:alias val="$_constant_"/>
    <rect width="30" height="20" class="cell_0"/>
    <g s:x="30" s:y="10" s:pid="Y"/>
  </g>
  <g s:type="join" transform="translate(84,158.5)" s:width="4" s:height="40" id="cell_$join$,28,29,">
    <rect width="5" height="40" class="splitjoinBody" s:generic="body"/>
    <s:alias val="$_join_"/>
    <g s:x="5" s:y="20" s:pid="out"/>
    <g transform="translate(0,10)" s:x="0" s:y="10" s:pid="in0">
      <text x="-3" y="-4" class="inputPortLabel">0</text>
    </g>
    <g transform="translate(0,30)" s:x="0" s:y="10" s:pid="in0">
      <text x="-3" y="-4" class="inputPortLabel">1</text>
    </g>
  </g>
  <g s:type="join" transform="translate(701,32.5)" s:width="4" s:height="40" id="cell_$join$,103,56,57,58,59,60,61,62,63,64,65,66,67,68,69,70,71,72,73,74,75,76,77,78,">
    <rect width="5" height="40" class="splitjoinBody" s:generic="body"/>
    <s:alias val="$_join_"/>
    <g s:x="5" s:y="20" s:pid="out"/>
    <g transform="translate(0,10)" s:x="0" s:y="10" s:pid="in0">
      <text x="-3" y="-4" class="inputPortLabel">0</text>
    </g>
    <g transform="translate(0,30)" s:x="0" s:y="10" s:pid="in0">
      <text x="-3" y="-4" class="inputPortLabel">1:23</text>
    </g>
  </g>
  <g s:type="split" transform="translate(629,118.5)" s:width="5" s:height="40" id="cell_$split$,56,57,58,59,60,61,62,63,64,65,66,67,68,69,70,71,72,73,74,75,76,77,78,30,">
    <rect width="5" height="40" class="splitjoinBody" s:generic="body"/>
    <s:alias val="$_split_"/>
    <g s:x="0" s:y="20" s:pid="in"/>
    <g transform="translate(4,10)" s:x="4" s:y="10" s:pid="out0">
      <text x="5" y="-4">0:22</text>
    </g>
    <g transform="translate(4,30)" s:x="4" s:y="10" s:pid="out0">
      <text x="5" y="-4">23</text>
    </g>
  </g>
  <line x1="160" x2="410" y1="113.5" y2="113.5" class="net_2"/>
  <line x1="410" x2="410" y1="113.5" y2="139" class="net_2"/>
  <line x1="410" x2="450" y1="139" y2="139" class="net_2"/>
  <line x1="839" x2="889" y1="53" y2="53" class="net_31,32,33,34,35,36,37,38,39,40,41,42,43,44,45,46,47,48,49,50,51,52,53,54"/>
  <line x1="889" x2="889" y1="53" y2="12" class="net_31,32,33,34,35,36,37,38,39,40,41,42,43,44,45,46,47,48,49,50,51,52,53,54"/>
  <line x1="889" x2="400" y1="12" y2="12" class="net_31,32,33,34,35,36,37,38,39,40,41,42,43,44,45,46,47,48,49,50,51,52,53,54"/>
  <line x1="400" x2="400" y1="12" y2="159" class="net_31,32,33,34,35,36,37,38,39,40,41,42,43,44,45,46,47,48,49,50,51,52,53,54"/>
  <line x1="400" x2="450" y1="159" y2="159" class="net_31,32,33,34,35,36,37,38,39,40,41,42,43,44,45,46,47,48,49,50,51,52,53,54"/>
  <line x1="163" x2="450" y1="179" y2="179" class="net_55"/>
  <line x1="160" x2="400" y1="246.5" y2="246.5" class="net_3"/>
  <line x1="400" x2="400" y1="246.5" y2="199" class="net_3"/>
  <line x1="400" x2="450" y1="199" y2="199" class="net_3"/>
  <line x1="90" x2="132" y1="179" y2="179" class="net_28,29"/>
  <line x1="707" x2="753" y1="53" y2="53" class="net_103,56,57,58,59,60,61,62,63,64,65,66,67,68,69,70,71,72,73,74,75,76,77,78"/>
  <line x1="40" x2="763" y1="82.5" y2="82.5" class="net_29"/>
  <line x1="763" x2="763" y1="82.5" y2="58" class="net_29"/>
  <line x1="40" x2="62" y1="82.5" y2="82.5" class="net_29"/>
  <line x1="62" x2="62" y1="82.5" y2="189" class="net_29"/>
  <circle cx="62" cy="82.5" r="2" style="fill:#000" class="net_29"/>
  <line x1="62" x2="84" y1="189" y2="189" class="net_29"/>
  <line x1="773" x2="819" y1="43" y2="43" class="net_79,80,81,82,83,84,85,86,87,88,89,90,91,92,93,94,95,96,97,98,99,100,101,102"/>
  <line x1="770" x2="794" y1="112.5" y2="112.5" class="net_4,5,6,7,8,9,10,11,12,13,14,15,16,17,18,19,20,21,22,23,24,25,26,27"/>
  <line x1="794" x2="794" y1="112.5" y2="63" class="net_4,5,6,7,8,9,10,11,12,13,14,15,16,17,18,19,20,21,22,23,24,25,26,27"/>
  <line x1="794" x2="819" y1="63" y2="63" class="net_4,5,6,7,8,9,10,11,12,13,14,15,16,17,18,19,20,21,22,23,24,25,26,27"/>
  <line x1="40" x2="52" y1="169" y2="169" class="net_28"/>
  <line x1="52" x2="52" y1="169" y2="266.5" class="net_28"/>
  <line x1="52" x2="829" y1="266.5" y2="266.5" class="net_28"/>
  <circle cx="52" cy="169" r="2" style="fill:#000" class="net_28"/>
  <line x1="829" x2="829" y1="266.5" y2="68" class="net_28"/>
  <line x1="40" x2="84" y1="169" y2="169" class="net_28"/>
  <line x1="634" x2="669" y1="149" y2="149" class="net_30"/>
  <line x1="669" x2="669" y1="149" y2="296.5" class="net_30"/>
  <line x1="669" x2="819" y1="296.5" y2="296.5" class="net_30"/>
  <line x1="659" x2="701" y1="43" y2="43" class="net_103"/>
  <line x1="634" x2="669" y1="129" y2="129" class="net_56,57,58,59,60,61,62,63,64,65,66,67,68,69,70,71,72,73,74,75,76,77,78"/>
  <line x1="669" x2="669" y1="129" y2="63" class="net_56,57,58,59,60,61,62,63,64,65,66,67,68,69,70,71,72,73,74,75,76,77,78"/>
  <line x1="669" x2="701" y1="63" y2="63" class="net_56,57,58,59,60,61,62,63,64,65,66,67,68,69,70,71,72,73,74,75,76,77,78"/>
  <line x1="481" x2="629" y1="139" y2="139" class="net_56,57,58,59,60,61,62,63,64,65,66,67,68,69,70,71,72,73,74,75,76,77,78,30"/>
</svg>
