<svg xmlns="http://www.w3.org/2000/svg" xmlns:xlink="http://www.w3.org/1999/xlink" xmlns:s="https://github.com/nturley/netlistsvg" width="696" height="382">
  <style>svg {
    stroke:#000;
    fill:none;
  }
  text {
    fill:#000;
    stroke:none;
    font-size:10px;
    font-weight: bold;
    font-family: "Courier New", monospace;
  }
  .nodelabel {
    text-anchor: middle;
  }
  .inputPortLabel {
    text-anchor: end;
  }
  .splitjoinBody {
    fill:#000;
  }</style>
  <g s:type="add" transform="translate(610,77)" s:width="25" s:height="25" id="cell_$add$/Users/christianscaff/Documents/Academics/Columbia/Spring_26/CSEE4840/Project/Embedded-Real-Time-Room-EQ-Correction/src/hardware/room_eq_peripheral/i2s_tx/i2s_clock_gen.sv:50$3">
    <s:alias val="$add"/>
    <circle r="12.5" cx="12.5" cy="12.5" class="cell_$add$/Users/christianscaff/Documents/Academics/Columbia/Spring_26/CSEE4840/Project/Embedded-Real-Time-Room-EQ-Correction/src/hardware/room_eq_peripheral/i2s_tx/i2s_clock_gen.sv:50$3"/>
    <line x1="7.5" x2="17.5" y1="12.5" y2="12.5" class="cell_$add$/Users/christianscaff/Documents/Academics/Columbia/Spring_26/CSEE4840/Project/Embedded-Real-Time-Room-EQ-Correction/src/hardware/room_eq_peripheral/i2s_tx/i2s_clock_gen.sv:50$3"/>
    <line x1="12.5" x2="12.5" y1="7.5" y2="17.5" class="cell_$add$/Users/christianscaff/Documents/Academics/Columbia/Spring_26/CSEE4840/Project/Embedded-Real-Time-Room-EQ-Correction/src/hardware/room_eq_peripheral/i2s_tx/i2s_clock_gen.sv:50$3"/>
    <g s:x="3" s:y="5" s:pid="A"/>
    <g s:x="3" s:y="20" s:pid="B"/>
    <g s:x="25" s:y="12.5" s:pid="Y"/>
  </g>
  <g s:type="add" transform="translate(610,139)" s:width="25" s:height="25" id="cell_$add$/Users/christianscaff/Documents/Academics/Columbia/Spring_26/CSEE4840/Project/Embedded-Real-Time-Room-EQ-Correction/src/hardware/room_eq_peripheral/i2s_tx/i2s_clock_gen.sv:52$4">
    <s:alias val="$add"/>
    <circle r="12.5" cx="12.5" cy="12.5" class="cell_$add$/Users/christianscaff/Documents/Academics/Columbia/Spring_26/CSEE4840/Project/Embedded-Real-Time-Room-EQ-Correction/src/hardware/room_eq_peripheral/i2s_tx/i2s_clock_gen.sv:52$4"/>
    <line x1="7.5" x2="17.5" y1="12.5" y2="12.5" class="cell_$add$/Users/christianscaff/Documents/Academics/Columbia/Spring_26/CSEE4840/Project/Embedded-Real-Time-Room-EQ-Correction/src/hardware/room_eq_peripheral/i2s_tx/i2s_clock_gen.sv:52$4"/>
    <line x1="12.5" x2="12.5" y1="7.5" y2="17.5" class="cell_$add$/Users/christianscaff/Documents/Academics/Columbia/Spring_26/CSEE4840/Project/Embedded-Real-Time-Room-EQ-Correction/src/hardware/room_eq_peripheral/i2s_tx/i2s_clock_gen.sv:52$4"/>
    <g s:x="3" s:y="5" s:pid="A"/>
    <g s:x="3" s:y="20" s:pid="B"/>
    <g s:x="25" s:y="12.5" s:pid="Y"/>
  </g>
  <g s:type="generic" transform="translate(366,256)" s:width="30" s:height="40" id="cell_$auto$ff.cc:337:slice$17">
    <text x="15" y="-4" class="nodelabel cell_$auto$ff.cc:337:slice$17" s:attribute="ref">$sdffe</text>
    <rect width="30" height="80" s:generic="body" class="cell_$auto$ff.cc:337:slice$17"/>
    <g transform="translate(0,10)" s:x="0" s:y="10" s:pid="in0" id="port_$auto$ff.cc:337:slice$17~CLK">
      <text x="-3" y="-4" class="inputPortLabel cell_$auto$ff.cc:337:slice$17">CLK</text>
    </g>
    <g transform="translate(0,30)" s:x="0" s:y="10" s:pid="in0" id="port_$auto$ff.cc:337:slice$17~D">
      <text x="-3" y="-4" class="inputPortLabel cell_$auto$ff.cc:337:slice$17">D</text>
    </g>
    <g transform="translate(0,50)" s:x="0" s:y="10" s:pid="in0" id="port_$auto$ff.cc:337:slice$17~EN">
      <text x="-3" y="-4" class="inputPortLabel cell_$auto$ff.cc:337:slice$17">EN</text>
    </g>
    <g transform="translate(0,70)" s:x="0" s:y="10" s:pid="in0" id="port_$auto$ff.cc:337:slice$17~SRST">
      <text x="-3" y="-4" class="inputPortLabel cell_$auto$ff.cc:337:slice$17">SRST</text>
    </g>
    <g transform="translate(30,10)" s:x="30" s:y="10" s:pid="out0" id="port_$auto$ff.cc:337:slice$17~Q">
      <text x="5" y="-4" style="fill:#000; stroke:none" class="cell_$auto$ff.cc:337:slice$17">Q</text>
    </g>
  </g>
  <g s:type="generic" transform="translate(102,188.5)" s:width="30" s:height="40" id="cell_$auto$ff.cc:337:slice$18">
    <text x="15" y="-4" class="nodelabel cell_$auto$ff.cc:337:slice$18" s:attribute="ref">$sdff</text>
    <rect width="30" height="60" s:generic="body" class="cell_$auto$ff.cc:337:slice$18"/>
    <g transform="translate(0,10)" s:x="0" s:y="10" s:pid="in0" id="port_$auto$ff.cc:337:slice$18~CLK">
      <text x="-3" y="-4" class="inputPortLabel cell_$auto$ff.cc:337:slice$18">CLK</text>
    </g>
    <g transform="translate(0,30)" s:x="0" s:y="10" s:pid="in0" id="port_$auto$ff.cc:337:slice$18~D">
      <text x="-3" y="-4" class="inputPortLabel cell_$auto$ff.cc:337:slice$18">D</text>
    </g>
    <g transform="translate(0,50)" s:x="0" s:y="10" s:pid="in0" id="port_$auto$ff.cc:337:slice$18~SRST">
      <text x="-3" y="-4" class="inputPortLabel cell_$auto$ff.cc:337:slice$18">SRST</text>
    </g>
    <g transform="translate(30,10)" s:x="30" s:y="10" s:pid="out0" id="port_$auto$ff.cc:337:slice$18~Q">
      <text x="5" y="-4" style="fill:#000; stroke:none" class="cell_$auto$ff.cc:337:slice$18">Q</text>
    </g>
  </g>
  <g s:type="eq" transform="translate(281,286.5)" s:width="25" s:height="25" id="cell_$eq$/Users/christianscaff/Documents/Academics/Columbia/Spring_26/CSEE4840/Project/Embedded-Real-Time-Room-EQ-Correction/src/hardware/room_eq_peripheral/i2s_tx/i2s_clock_gen.sv:39$1">
    <s:alias val="$eq"/>
    <circle r="12.5" cx="12.5" cy="12.5" class="cell_$eq$/Users/christianscaff/Documents/Academics/Columbia/Spring_26/CSEE4840/Project/Embedded-Real-Time-Room-EQ-Correction/src/hardware/room_eq_peripheral/i2s_tx/i2s_clock_gen.sv:39$1"/>
    <line x1="7.5" x2="17.5" y1="10" y2="10" class="cell_$eq$/Users/christianscaff/Documents/Academics/Columbia/Spring_26/CSEE4840/Project/Embedded-Real-Time-Room-EQ-Correction/src/hardware/room_eq_peripheral/i2s_tx/i2s_clock_gen.sv:39$1"/>
    <line x1="7.5" x2="17.5" y1="15" y2="15" class="cell_$eq$/Users/christianscaff/Documents/Academics/Columbia/Spring_26/CSEE4840/Project/Embedded-Real-Time-Room-EQ-Correction/src/hardware/room_eq_peripheral/i2s_tx/i2s_clock_gen.sv:39$1"/>
    <g s:x="3" s:y="5" s:pid="A"/>
    <g s:x="3" s:y="20" s:pid="B"/>
    <g s:x="25" s:y="12.5" s:pid="Y"/>
  </g>
  <g s:type="inputExt" transform="translate(12,189)" s:width="30" s:height="20" id="cell_clock">
    <text x="15" y="-4" class="nodelabel cell_clock" s:attribute="ref">clock</text>
    <s:alias val="$_inputExt_"/>
    <path d="M0,0 L0,20 L15,20 L30,10 L15,0 Z" class="cell_clock"/>
    <g s:x="28" s:y="10" s:pid="Y"/>
  </g>
  <g s:type="inputExt" transform="translate(12,316.5)" s:width="30" s:height="20" id="cell_reset">
    <text x="15" y="-4" class="nodelabel cell_reset" s:attribute="ref">reset</text>
    <s:alias val="$_inputExt_"/>
    <path d="M0,0 L0,20 L15,20 L30,10 L15,0 Z" class="cell_reset"/>
    <g s:x="28" s:y="10" s:pid="Y"/>
  </g>
  <g s:type="outputExt" transform="translate(610,22)" s:width="30" s:height="20" id="cell_bclk">
    <text x="15" y="-4" class="nodelabel cell_bclk" s:attribute="ref">bclk</text>
    <s:alias val="$_outputExt_"/>
    <path d="M30,0 L30,20 L15,20 L0,10 L15,0 Z" class="cell_bclk"/>
    <g s:x="0" s:y="10" s:pid="A"/>
  </g>
  <g s:type="outputExt" transform="translate(610,209)" s:width="30" s:height="20" id="cell_lrck">
    <text x="15" y="-4" class="nodelabel cell_lrck" s:attribute="ref">lrck</text>
    <s:alias val="$_outputExt_"/>
    <path d="M30,0 L30,20 L15,20 L0,10 L15,0 Z" class="cell_lrck"/>
    <g s:x="0" s:y="10" s:pid="A"/>
  </g>
  <g s:type="outputExt" transform="translate(610,339)" s:width="30" s:height="20" id="cell_bclk_fall">
    <text x="15" y="-4" class="nodelabel cell_bclk_fall" s:attribute="ref">bclk_fall</text>
    <s:alias val="$_outputExt_"/>
    <path d="M30,0 L30,20 L15,20 L0,10 L15,0 Z" class="cell_bclk_fall"/>
    <g s:x="0" s:y="10" s:pid="A"/>
  </g>
  <g s:type="outputExt" transform="translate(610,274)" s:width="30" s:height="20" id="cell_bit_cnt">
    <text x="15" y="-4" class="nodelabel cell_bit_cnt" s:attribute="ref">bit_cnt</text>
    <s:alias val="$_outputExt_"/>
    <path d="M30,0 L30,20 L15,20 L0,10 L15,0 Z" class="cell_bit_cnt"/>
    <g s:x="0" s:y="10" s:pid="A"/>
  </g>
  <g s:type="constant" transform="translate(545,87)" s:width="30" s:height="20" id="cell_01">
    <text x="15" y="-4" class="nodelabel cell_01" s:attribute="ref">01</text>
    <s:alias val="$_constant_"/>
    <rect width="30" height="20" class="cell_01"/>
    <g s:x="30" s:y="10" s:pid="Y"/>
  </g>
  <g s:type="constant" transform="translate(545,149)" s:width="30" s:height="20" id="cell_000001">
    <text x="15" y="-4" class="nodelabel cell_000001" s:attribute="ref">0x1</text>
    <s:alias val="$_constant_"/>
    <rect width="30" height="20" class="cell_000001"/>
    <g s:x="30" s:y="10" s:pid="Y"/>
  </g>
  <g s:type="constant" transform="translate(102,296.5)" s:width="30" s:height="20" id="cell_11">
    <text x="15" y="-4" class="nodelabel cell_11" s:attribute="ref">11</text>
    <s:alias val="$_constant_"/>
    <rect width="30" height="20" class="cell_11"/>
    <g s:x="30" s:y="10" s:pid="Y"/>
  </g>
  <g s:type="split" transform="translate(563,21.5)" s:width="5" s:height="40" id="cell_$split$,12,4,">
    <rect width="5" height="20" class="splitjoinBody" s:generic="body"/>
    <s:alias val="$_split_"/>
    <g s:x="0" s:y="20" s:pid="in"/>
    <g transform="translate(4,10)" s:x="4" s:y="10" s:pid="out0">
      <text x="5" y="-4">1</text>
    </g>
  </g>
  <g s:type="split" transform="translate(563,208.5)" s:width="5" s:height="40" id="cell_$split$,7,8,9,10,11,5,">
    <rect width="5" height="20" class="splitjoinBody" s:generic="body"/>
    <s:alias val="$_split_"/>
    <g s:x="0" s:y="20" s:pid="in"/>
    <g transform="translate(4,10)" s:x="4" s:y="10" s:pid="out0">
      <text x="5" y="-4">5</text>
    </g>
  </g>
  <line x1="133" x2="256" y1="199" y2="199" class="net_12,4"/>
  <line x1="256" x2="256" y1="199" y2="66" class="net_12,4"/>
  <line x1="256" x2="585" y1="66" y2="66" class="net_12,4"/>
  <line x1="585" x2="585" y1="66" y2="82" class="net_12,4"/>
  <circle cx="256" cy="199" r="2" style="fill:#000" class="net_12,4"/>
  <line x1="585" x2="613" y1="82" y2="82" class="net_12,4"/>
  <line x1="133" x2="256" y1="199" y2="199" class="net_12,4"/>
  <line x1="256" x2="256" y1="199" y2="291.5" class="net_12,4"/>
  <line x1="256" x2="284" y1="291.5" y2="291.5" class="net_12,4"/>
  <line x1="133" x2="256" y1="199" y2="199" class="net_12,4"/>
  <line x1="256" x2="256" y1="199" y2="66" class="net_12,4"/>
  <line x1="256" x2="520" y1="66" y2="66" class="net_12,4"/>
  <line x1="520" x2="520" y1="66" y2="56" class="net_12,4"/>
  <line x1="520" x2="563.5" y1="56" y2="56" class="net_12,4"/>
  <circle cx="520" cy="66" r="2" style="fill:#000" class="net_12,4"/>
  <line x1="563.5" x2="563.5" y1="56" y2="42.5" class="net_12,4"/>
  <line x1="575" x2="613" y1="97" y2="97" class="net_21,22"/>
  <line x1="397" x2="520" y1="266.5" y2="266.5" class="net_7,8,9,10,11,5"/>
  <line x1="520" x2="520" y1="266.5" y2="128" class="net_7,8,9,10,11,5"/>
  <line x1="520" x2="585" y1="128" y2="128" class="net_7,8,9,10,11,5"/>
  <line x1="585" x2="585" y1="128" y2="144" class="net_7,8,9,10,11,5"/>
  <circle cx="520" cy="266.5" r="2" style="fill:#000" class="net_7,8,9,10,11,5"/>
  <line x1="585" x2="613" y1="144" y2="144" class="net_7,8,9,10,11,5"/>
  <line x1="397" x2="520" y1="266.5" y2="266.5" class="net_7,8,9,10,11,5"/>
  <line x1="520" x2="520" y1="266.5" y2="284" class="net_7,8,9,10,11,5"/>
  <line x1="520" x2="610" y1="284" y2="284" class="net_7,8,9,10,11,5"/>
  <line x1="397" x2="563.5" y1="266.5" y2="266.5" class="net_7,8,9,10,11,5"/>
  <line x1="563.5" x2="563.5" y1="266.5" y2="229.5" class="net_7,8,9,10,11,5"/>
  <line x1="575" x2="613" y1="159" y2="159" class="net_23,24,25,26,27,28"/>
  <line x1="40" x2="52" y1="199" y2="199" class="net_2"/>
  <line x1="52" x2="52" y1="199" y2="167.5" class="net_2"/>
  <line x1="52" x2="326" y1="167.5" y2="167.5" class="net_2"/>
  <line x1="326" x2="326" y1="167.5" y2="266.5" class="net_2"/>
  <circle cx="52" cy="199" r="2" style="fill:#000" class="net_2"/>
  <line x1="326" x2="366" y1="266.5" y2="266.5" class="net_2"/>
  <line x1="40" x2="102" y1="199" y2="199" class="net_2"/>
  <line x1="635" x2="674" y1="151.5" y2="151.5" class="net_15,16,17,18,19,20"/>
  <line x1="674" x2="674" y1="151.5" y2="117" class="net_15,16,17,18,19,20"/>
  <line x1="674" x2="316" y1="117" y2="117" class="net_15,16,17,18,19,20"/>
  <line x1="316" x2="316" y1="117" y2="286.5" class="net_15,16,17,18,19,20"/>
  <line x1="316" x2="366" y1="286.5" y2="286.5" class="net_15,16,17,18,19,20"/>
  <line x1="306" x2="316" y1="299" y2="299" class="net_6"/>
  <line x1="316" x2="316" y1="299" y2="306.5" class="net_6"/>
  <circle cx="316" cy="306.5" r="2" style="fill:#000" class="net_6"/>
  <line x1="316" x2="366" y1="306.5" y2="306.5" class="net_6"/>
  <line x1="306" x2="316" y1="299" y2="299" class="net_6"/>
  <line x1="316" x2="316" y1="299" y2="349" class="net_6"/>
  <line x1="316" x2="610" y1="349" y2="349" class="net_6"/>
  <line x1="40" x2="366" y1="326.5" y2="326.5" class="net_3"/>
  <line x1="40" x2="62" y1="326.5" y2="326.5" class="net_3"/>
  <line x1="62" x2="62" y1="326.5" y2="239" class="net_3"/>
  <circle cx="62" cy="326.5" r="2" style="fill:#000" class="net_3"/>
  <line x1="62" x2="102" y1="239" y2="239" class="net_3"/>
  <line x1="635" x2="684" y1="89.5" y2="89.5" class="net_13,14"/>
  <line x1="684" x2="684" y1="89.5" y2="369" class="net_13,14"/>
  <line x1="684" x2="52" y1="369" y2="369" class="net_13,14"/>
  <line x1="52" x2="52" y1="369" y2="219" class="net_13,14"/>
  <line x1="52" x2="102" y1="219" y2="219" class="net_13,14"/>
  <line x1="132" x2="284" y1="306.5" y2="306.5" class="net_29,30"/>
  <line x1="568" x2="610" y1="32" y2="32" class="net_4"/>
  <line x1="568" x2="610" y1="219" y2="219" class="net_5"/>
</svg>
