<svg xmlns="http://www.w3.org/2000/svg" xmlns:xlink="http://www.w3.org/1999/xlink" xmlns:s="https://github.com/nturley/netlistsvg" width="2178" height="1151.5">
  <style>svg {
    stroke:#000;
    fill:none;
  }
  text {
    fill:#000;
    stroke:none;
    font-size:10px;
    font-weight: bold;
    font-family: "Courier New", monospace;
  }
  .nodelabel {
    text-anchor: middle;
  }
  .inputPortLabel {
    text-anchor: end;
  }
  .splitjoinBody {
    fill:#000;
  }</style>
  <g s:type="add" transform="translate(2002,1114.5)" s:width="25" s:height="25" id="cell_$add$src/hardware/room_eq_peripheral/i2s_rx/i2s_rx.sv:48$7">
    <s:alias val="$add"/>
    <circle r="12.5" cx="12.5" cy="12.5" class="cell_$add$src/hardware/room_eq_peripheral/i2s_rx/i2s_rx.sv:48$7"/>
    <line x1="7.5" x2="17.5" y1="12.5" y2="12.5" class="cell_$add$src/hardware/room_eq_peripheral/i2s_rx/i2s_rx.sv:48$7"/>
    <line x1="12.5" x2="12.5" y1="7.5" y2="17.5" class="cell_$add$src/hardware/room_eq_peripheral/i2s_rx/i2s_rx.sv:48$7"/>
    <g s:x="3" s:y="5" s:pid="A"/>
    <g s:x="3" s:y="20" s:pid="B"/>
    <g s:x="25" s:y="12.5" s:pid="Y"/>
  </g>
  <g s:type="generic" transform="translate(1739,58)" s:width="30" s:height="40" id="cell_$auto$ff.cc:337:slice$64">
    <text x="15" y="-4" class="nodelabel cell_$auto$ff.cc:337:slice$64" s:attribute="ref">$sdffe</text>
    <rect width="30" height="80" s:generic="body" class="cell_$auto$ff.cc:337:slice$64"/>
    <g transform="translate(0,10)" s:x="0" s:y="10" s:pid="in0" id="port_$auto$ff.cc:337:slice$64~CLK">
      <text x="-3" y="-4" class="inputPortLabel cell_$auto$ff.cc:337:slice$64">CLK</text>
    </g>
    <g transform="translate(0,30)" s:x="0" s:y="10" s:pid="in0" id="port_$auto$ff.cc:337:slice$64~D">
      <text x="-3" y="-4" class="inputPortLabel cell_$auto$ff.cc:337:slice$64">D</text>
    </g>
    <g transform="translate(0,50)" s:x="0" s:y="10" s:pid="in0" id="port_$auto$ff.cc:337:slice$64~EN">
      <text x="-3" y="-4" class="inputPortLabel cell_$auto$ff.cc:337:slice$64">EN</text>
    </g>
    <g transform="translate(0,70)" s:x="0" s:y="10" s:pid="in0" id="port_$auto$ff.cc:337:slice$64~SRST">
      <text x="-3" y="-4" class="inputPortLabel cell_$auto$ff.cc:337:slice$64">SRST</text>
    </g>
    <g transform="translate(30,10)" s:x="30" s:y="10" s:pid="out0" id="port_$auto$ff.cc:337:slice$64~Q">
      <text x="5" y="-4" style="fill:#000; stroke:none" class="cell_$auto$ff.cc:337:slice$64">Q</text>
    </g>
  </g>
  <g s:type="generic" transform="translate(1739,801)" s:width="30" s:height="40" id="cell_$auto$ff.cc:337:slice$68">
    <text x="15" y="-4" class="nodelabel cell_$auto$ff.cc:337:slice$68" s:attribute="ref">$sdffe</text>
    <rect width="30" height="80" s:generic="body" class="cell_$auto$ff.cc:337:slice$68"/>
    <g transform="translate(0,10)" s:x="0" s:y="10" s:pid="in0" id="port_$auto$ff.cc:337:slice$68~CLK">
      <text x="-3" y="-4" class="inputPortLabel cell_$auto$ff.cc:337:slice$68">CLK</text>
    </g>
    <g transform="translate(0,30)" s:x="0" s:y="10" s:pid="in0" id="port_$auto$ff.cc:337:slice$68~D">
      <text x="-3" y="-4" class="inputPortLabel cell_$auto$ff.cc:337:slice$68">D</text>
    </g>
    <g transform="translate(0,50)" s:x="0" s:y="10" s:pid="in0" id="port_$auto$ff.cc:337:slice$68~EN">
      <text x="-3" y="-4" class="inputPortLabel cell_$auto$ff.cc:337:slice$68">EN</text>
    </g>
    <g transform="translate(0,70)" s:x="0" s:y="10" s:pid="in0" id="port_$auto$ff.cc:337:slice$68~SRST">
      <text x="-3" y="-4" class="inputPortLabel cell_$auto$ff.cc:337:slice$68">SRST</text>
    </g>
    <g transform="translate(30,10)" s:x="30" s:y="10" s:pid="out0" id="port_$auto$ff.cc:337:slice$68~Q">
      <text x="5" y="-4" style="fill:#000; stroke:none" class="cell_$auto$ff.cc:337:slice$68">Q</text>
    </g>
  </g>
  <g s:type="generic" transform="translate(1122,152)" s:width="30" s:height="40" id="cell_$auto$ff.cc:337:slice$72">
    <text x="15" y="-4" class="nodelabel cell_$auto$ff.cc:337:slice$72" s:attribute="ref">$sdffe</text>
    <rect width="30" height="80" s:generic="body" class="cell_$auto$ff.cc:337:slice$72"/>
    <g transform="translate(0,10)" s:x="0" s:y="10" s:pid="in0" id="port_$auto$ff.cc:337:slice$72~CLK">
      <text x="-3" y="-4" class="inputPortLabel cell_$auto$ff.cc:337:slice$72">CLK</text>
    </g>
    <g transform="translate(0,30)" s:x="0" s:y="10" s:pid="in0" id="port_$auto$ff.cc:337:slice$72~D">
      <text x="-3" y="-4" class="inputPortLabel cell_$auto$ff.cc:337:slice$72">D</text>
    </g>
    <g transform="translate(0,50)" s:x="0" s:y="10" s:pid="in0" id="port_$auto$ff.cc:337:slice$72~EN">
      <text x="-3" y="-4" class="inputPortLabel cell_$auto$ff.cc:337:slice$72">EN</text>
    </g>
    <g transform="translate(0,70)" s:x="0" s:y="10" s:pid="in0" id="port_$auto$ff.cc:337:slice$72~SRST">
      <text x="-3" y="-4" class="inputPortLabel cell_$auto$ff.cc:337:slice$72">SRST</text>
    </g>
    <g transform="translate(30,10)" s:x="30" s:y="10" s:pid="out0" id="port_$auto$ff.cc:337:slice$72~Q">
      <text x="5" y="-4" style="fill:#000; stroke:none" class="cell_$auto$ff.cc:337:slice$72">Q</text>
    </g>
  </g>
  <g s:type="generic" transform="translate(2002,1011.5)" s:width="30" s:height="40" id="cell_$auto$ff.cc:337:slice$76">
    <text x="15" y="-4" class="nodelabel cell_$auto$ff.cc:337:slice$76" s:attribute="ref">$sdffe</text>
    <rect width="30" height="80" s:generic="body" class="cell_$auto$ff.cc:337:slice$76"/>
    <g transform="translate(0,10)" s:x="0" s:y="10" s:pid="in0" id="port_$auto$ff.cc:337:slice$76~CLK">
      <text x="-3" y="-4" class="inputPortLabel cell_$auto$ff.cc:337:slice$76">CLK</text>
    </g>
    <g transform="translate(0,30)" s:x="0" s:y="10" s:pid="in0" id="port_$auto$ff.cc:337:slice$76~D">
      <text x="-3" y="-4" class="inputPortLabel cell_$auto$ff.cc:337:slice$76">D</text>
    </g>
    <g transform="translate(0,50)" s:x="0" s:y="10" s:pid="in0" id="port_$auto$ff.cc:337:slice$76~EN">
      <text x="-3" y="-4" class="inputPortLabel cell_$auto$ff.cc:337:slice$76">EN</text>
    </g>
    <g transform="translate(0,70)" s:x="0" s:y="10" s:pid="in0" id="port_$auto$ff.cc:337:slice$76~SRST">
      <text x="-3" y="-4" class="inputPortLabel cell_$auto$ff.cc:337:slice$76">SRST</text>
    </g>
    <g transform="translate(30,10)" s:x="30" s:y="10" s:pid="out0" id="port_$auto$ff.cc:337:slice$76~Q">
      <text x="5" y="-4" style="fill:#000; stroke:none" class="cell_$auto$ff.cc:337:slice$76">Q</text>
    </g>
  </g>
  <g s:type="generic" transform="translate(418,528.5)" s:width="30" s:height="40" id="cell_$auto$ff.cc:337:slice$80">
    <text x="15" y="-4" class="nodelabel cell_$auto$ff.cc:337:slice$80" s:attribute="ref">$sdffe</text>
    <rect width="30" height="80" s:generic="body" class="cell_$auto$ff.cc:337:slice$80"/>
    <g transform="translate(0,10)" s:x="0" s:y="10" s:pid="in0" id="port_$auto$ff.cc:337:slice$80~CLK">
      <text x="-3" y="-4" class="inputPortLabel cell_$auto$ff.cc:337:slice$80">CLK</text>
    </g>
    <g transform="translate(0,30)" s:x="0" s:y="10" s:pid="in0" id="port_$auto$ff.cc:337:slice$80~D">
      <text x="-3" y="-4" class="inputPortLabel cell_$auto$ff.cc:337:slice$80">D</text>
    </g>
    <g transform="translate(0,50)" s:x="0" s:y="10" s:pid="in0" id="port_$auto$ff.cc:337:slice$80~EN">
      <text x="-3" y="-4" class="inputPortLabel cell_$auto$ff.cc:337:slice$80">EN</text>
    </g>
    <g transform="translate(0,70)" s:x="0" s:y="10" s:pid="in0" id="port_$auto$ff.cc:337:slice$80~SRST">
      <text x="-3" y="-4" class="inputPortLabel cell_$auto$ff.cc:337:slice$80">SRST</text>
    </g>
    <g transform="translate(30,10)" s:x="30" s:y="10" s:pid="out0" id="port_$auto$ff.cc:337:slice$80~Q">
      <text x="5" y="-4" style="fill:#000; stroke:none" class="cell_$auto$ff.cc:337:slice$80">Q</text>
    </g>
  </g>
  <g s:type="generic" transform="translate(149,576)" s:width="30" s:height="40" id="cell_$auto$ff.cc:337:slice$81">
    <text x="15" y="-4" class="nodelabel cell_$auto$ff.cc:337:slice$81" s:attribute="ref">$sdff</text>
    <rect width="30" height="60" s:generic="body" class="cell_$auto$ff.cc:337:slice$81"/>
    <g transform="translate(0,10)" s:x="0" s:y="10" s:pid="in0" id="port_$auto$ff.cc:337:slice$81~CLK">
      <text x="-3" y="-4" class="inputPortLabel cell_$auto$ff.cc:337:slice$81">CLK</text>
    </g>
    <g transform="translate(0,30)" s:x="0" s:y="10" s:pid="in0" id="port_$auto$ff.cc:337:slice$81~D">
      <text x="-3" y="-4" class="inputPortLabel cell_$auto$ff.cc:337:slice$81">D</text>
    </g>
    <g transform="translate(0,50)" s:x="0" s:y="10" s:pid="in0" id="port_$auto$ff.cc:337:slice$81~SRST">
      <text x="-3" y="-4" class="inputPortLabel cell_$auto$ff.cc:337:slice$81">SRST</text>
    </g>
    <g transform="translate(30,10)" s:x="30" s:y="10" s:pid="out0" id="port_$auto$ff.cc:337:slice$81~Q">
      <text x="5" y="-4" style="fill:#000; stroke:none" class="cell_$auto$ff.cc:337:slice$81">Q</text>
    </g>
  </g>
  <g s:type="generic" transform="translate(1379,98)" s:width="30" s:height="40" id="cell_$auto$opt_dff.cc:252:make_patterns_logic$66">
    <text x="15" y="-4" class="nodelabel cell_$auto$opt_dff.cc:252:make_patterns_logic$66" s:attribute="ref">$reduce_and</text>
    <rect width="30" height="20" s:generic="body" class="cell_$auto$opt_dff.cc:252:make_patterns_logic$66"/>
    <g transform="translate(0,10)" s:x="0" s:y="10" s:pid="in0" id="port_$auto$opt_dff.cc:252:make_patterns_logic$66~A">
      <text x="-3" y="-4" class="inputPortLabel cell_$auto$opt_dff.cc:252:make_patterns_logic$66">A</text>
    </g>
    <g transform="translate(30,10)" s:x="30" s:y="10" s:pid="out0" id="port_$auto$opt_dff.cc:252:make_patterns_logic$66~Y">
      <text x="5" y="-4" style="fill:#000; stroke:none" class="cell_$auto$opt_dff.cc:252:make_patterns_logic$66">Y</text>
    </g>
  </g>
  <g s:type="generic" transform="translate(1379,751)" s:width="30" s:height="40" id="cell_$auto$opt_dff.cc:252:make_patterns_logic$70">
    <text x="15" y="-4" class="nodelabel cell_$auto$opt_dff.cc:252:make_patterns_logic$70" s:attribute="ref">$reduce_and</text>
    <rect width="30" height="20" s:generic="body" class="cell_$auto$opt_dff.cc:252:make_patterns_logic$70"/>
    <g transform="translate(0,10)" s:x="0" s:y="10" s:pid="in0" id="port_$auto$opt_dff.cc:252:make_patterns_logic$70~A">
      <text x="-3" y="-4" class="inputPortLabel cell_$auto$opt_dff.cc:252:make_patterns_logic$70">A</text>
    </g>
    <g transform="translate(30,10)" s:x="30" s:y="10" s:pid="out0" id="port_$auto$opt_dff.cc:252:make_patterns_logic$70~Y">
      <text x="5" y="-4" style="fill:#000; stroke:none" class="cell_$auto$opt_dff.cc:252:make_patterns_logic$70">Y</text>
    </g>
  </g>
  <g s:type="generic" transform="translate(804,192)" s:width="30" s:height="40" id="cell_$auto$opt_dff.cc:252:make_patterns_logic$74">
    <text x="15" y="-4" class="nodelabel cell_$auto$opt_dff.cc:252:make_patterns_logic$74" s:attribute="ref">$reduce_and</text>
    <rect width="30" height="20" s:generic="body" class="cell_$auto$opt_dff.cc:252:make_patterns_logic$74"/>
    <g transform="translate(0,10)" s:x="0" s:y="10" s:pid="in0" id="port_$auto$opt_dff.cc:252:make_patterns_logic$74~A">
      <text x="-3" y="-4" class="inputPortLabel cell_$auto$opt_dff.cc:252:make_patterns_logic$74">A</text>
    </g>
    <g transform="translate(30,10)" s:x="30" s:y="10" s:pid="out0" id="port_$auto$opt_dff.cc:252:make_patterns_logic$74~Y">
      <text x="5" y="-4" style="fill:#000; stroke:none" class="cell_$auto$opt_dff.cc:252:make_patterns_logic$74">Y</text>
    </g>
  </g>
  <g s:type="generic" transform="translate(1684,1051.5)" s:width="30" s:height="40" id="cell_$auto$opt_dff.cc:252:make_patterns_logic$78">
    <text x="15" y="-4" class="nodelabel cell_$auto$opt_dff.cc:252:make_patterns_logic$78" s:attribute="ref">$reduce_and</text>
    <rect width="30" height="20" s:generic="body" class="cell_$auto$opt_dff.cc:252:make_patterns_logic$78"/>
    <g transform="translate(0,10)" s:x="0" s:y="10" s:pid="in0" id="port_$auto$opt_dff.cc:252:make_patterns_logic$78~A">
      <text x="-3" y="-4" class="inputPortLabel cell_$auto$opt_dff.cc:252:make_patterns_logic$78">A</text>
    </g>
    <g transform="translate(30,10)" s:x="30" s:y="10" s:pid="out0" id="port_$auto$opt_dff.cc:252:make_patterns_logic$78~Y">
      <text x="5" y="-4" style="fill:#000; stroke:none" class="cell_$auto$opt_dff.cc:252:make_patterns_logic$78">Y</text>
    </g>
  </g>
  <g s:type="eq" transform="translate(2002,447)" s:width="25" s:height="25" id="cell_$eq$src/hardware/room_eq_peripheral/i2s_rx/i2s_rx.sv:71$12">
    <s:alias val="$eq"/>
    <circle r="12.5" cx="12.5" cy="12.5" class="cell_$eq$src/hardware/room_eq_peripheral/i2s_rx/i2s_rx.sv:71$12"/>
    <line x1="7.5" x2="17.5" y1="10" y2="10" class="cell_$eq$src/hardware/room_eq_peripheral/i2s_rx/i2s_rx.sv:71$12"/>
    <line x1="7.5" x2="17.5" y1="15" y2="15" class="cell_$eq$src/hardware/room_eq_peripheral/i2s_rx/i2s_rx.sv:71$12"/>
    <g s:x="3" s:y="5" s:pid="A"/>
    <g s:x="3" s:y="20" s:pid="B"/>
    <g s:x="25" s:y="12.5" s:pid="Y"/>
  </g>
  <g s:type="eq" transform="translate(2002,645)" s:width="25" s:height="25" id="cell_$eq$src/hardware/room_eq_peripheral/i2s_rx/i2s_rx.sv:77$16">
    <s:alias val="$eq"/>
    <circle r="12.5" cx="12.5" cy="12.5" class="cell_$eq$src/hardware/room_eq_peripheral/i2s_rx/i2s_rx.sv:77$16"/>
    <line x1="7.5" x2="17.5" y1="10" y2="10" class="cell_$eq$src/hardware/room_eq_peripheral/i2s_rx/i2s_rx.sv:77$16"/>
    <line x1="7.5" x2="17.5" y1="15" y2="15" class="cell_$eq$src/hardware/room_eq_peripheral/i2s_rx/i2s_rx.sv:77$16"/>
    <g s:x="3" s:y="5" s:pid="A"/>
    <g s:x="3" s:y="20" s:pid="B"/>
    <g s:x="25" s:y="12.5" s:pid="Y"/>
  </g>
  <g s:type="ge" transform="translate(603.6666666666666,236)" s:width="25" s:height="25" id="cell_$ge$src/hardware/room_eq_peripheral/i2s_rx/i2s_rx.sv:69$9">
    <s:alias val="$ge"/>
    <circle r="12.5" cx="12.5" cy="12.5" class="cell_$ge$src/hardware/room_eq_peripheral/i2s_rx/i2s_rx.sv:69$9"/>
    <line x1="7.5" x2="17.5" y1="7.5" y2="12.5" class="cell_$ge$src/hardware/room_eq_peripheral/i2s_rx/i2s_rx.sv:69$9"/>
    <line x1="7.5" x2="17.5" y1="17.5" y2="12.5" class="cell_$ge$src/hardware/room_eq_peripheral/i2s_rx/i2s_rx.sv:69$9"/>
    <line x1="7.5" x2="17.5" y1="20" y2="15" class="cell_$ge$src/hardware/room_eq_peripheral/i2s_rx/i2s_rx.sv:69$9"/>
    <g s:x="3" s:y="5" s:pid="A"/>
    <g s:x="3" s:y="20" s:pid="B"/>
    <g s:x="25" s:y="12.5" s:pid="Y"/>
  </g>
  <g s:type="ge" transform="translate(737,923)" s:width="25" s:height="25" id="cell_$ge$src/hardware/room_eq_peripheral/i2s_rx/i2s_rx.sv:75$13">
    <s:alias val="$ge"/>
    <circle r="12.5" cx="12.5" cy="12.5" class="cell_$ge$src/hardware/room_eq_peripheral/i2s_rx/i2s_rx.sv:75$13"/>
    <line x1="7.5" x2="17.5" y1="7.5" y2="12.5" class="cell_$ge$src/hardware/room_eq_peripheral/i2s_rx/i2s_rx.sv:75$13"/>
    <line x1="7.5" x2="17.5" y1="17.5" y2="12.5" class="cell_$ge$src/hardware/room_eq_peripheral/i2s_rx/i2s_rx.sv:75$13"/>
    <line x1="7.5" x2="17.5" y1="20" y2="15" class="cell_$ge$src/hardware/room_eq_peripheral/i2s_rx/i2s_rx.sv:75$13"/>
    <g s:x="3" s:y="5" s:pid="A"/>
    <g s:x="3" s:y="20" s:pid="B"/>
    <g s:x="25" s:y="12.5" s:pid="Y"/>
  </g>
  <g s:type="le" transform="translate(603.6666666666666,296)" s:width="25" s:height="25" id="cell_$le$src/hardware/room_eq_peripheral/i2s_rx/i2s_rx.sv:69$10">
    <s:alias val="$le"/>
    <circle r="12.5" cx="12.5" cy="12.5" class="cell_$le$src/hardware/room_eq_peripheral/i2s_rx/i2s_rx.sv:69$10"/>
    <line x1="7.5" x2="17.5" y1="12.5" y2="7.5" class="cell_$le$src/hardware/room_eq_peripheral/i2s_rx/i2s_rx.sv:69$10"/>
    <line x1="7.5" x2="17.5" y1="12.5" y2="17.5" class="cell_$le$src/hardware/room_eq_peripheral/i2s_rx/i2s_rx.sv:69$10"/>
    <line x1="7.5" x2="17.5" y1="15" y2="20" class="cell_$le$src/hardware/room_eq_peripheral/i2s_rx/i2s_rx.sv:69$10"/>
    <g s:x="3" s:y="5" s:pid="A"/>
    <g s:x="3" s:y="20" s:pid="B"/>
    <g s:x="25" s:y="12.5" s:pid="Y"/>
  </g>
  <g s:type="le" transform="translate(737,983)" s:width="25" s:height="25" id="cell_$le$src/hardware/room_eq_peripheral/i2s_rx/i2s_rx.sv:75$14">
    <s:alias val="$le"/>
    <circle r="12.5" cx="12.5" cy="12.5" class="cell_$le$src/hardware/room_eq_peripheral/i2s_rx/i2s_rx.sv:75$14"/>
    <line x1="7.5" x2="17.5" y1="12.5" y2="7.5" class="cell_$le$src/hardware/room_eq_peripheral/i2s_rx/i2s_rx.sv:75$14"/>
    <line x1="7.5" x2="17.5" y1="12.5" y2="17.5" class="cell_$le$src/hardware/room_eq_peripheral/i2s_rx/i2s_rx.sv:75$14"/>
    <line x1="7.5" x2="17.5" y1="15" y2="20" class="cell_$le$src/hardware/room_eq_peripheral/i2s_rx/i2s_rx.sv:75$14"/>
    <g s:x="3" s:y="5" s:pid="A"/>
    <g s:x="3" s:y="20" s:pid="B"/>
    <g s:x="25" s:y="12.5" s:pid="Y"/>
  </g>
  <g s:type="and" transform="translate(667,640)" s:width="30" s:height="25" id="cell_$logic_and$src/hardware/room_eq_peripheral/i2s_rx/i2s_rx.sv:39$3">
    <s:alias val="$and"/>
    <s:alias val="$logic_and"/>
    <s:alias val="$_AND_"/>
    <path d="M0,0 L0,25 L15,25 A15 12.5 0 0 0 15,0 Z" class="cell_$logic_and$src/hardware/room_eq_peripheral/i2s_rx/i2s_rx.sv:39$3"/>
    <g s:x="0" s:y="5" s:pid="A"/>
    <g s:x="0" s:y="20" s:pid="B"/>
    <g s:x="30" s:y="12.5" s:pid="Y"/>
  </g>
  <g s:type="and" transform="translate(328,566.5)" s:width="30" s:height="25" id="cell_$logic_and$src/hardware/room_eq_peripheral/i2s_rx/i2s_rx.sv:40$5">
    <s:alias val="$and"/>
    <s:alias val="$logic_and"/>
    <s:alias val="$_AND_"/>
    <path d="M0,0 L0,25 L15,25 A15 12.5 0 0 0 15,0 Z" class="cell_$logic_and$src/hardware/room_eq_peripheral/i2s_rx/i2s_rx.sv:40$5"/>
    <g s:x="0" s:y="5" s:pid="A"/>
    <g s:x="0" s:y="20" s:pid="B"/>
    <g s:x="30" s:y="12.5" s:pid="Y"/>
  </g>
  <g s:type="and" transform="translate(667,288.5)" s:width="30" s:height="25" id="cell_$logic_and$src/hardware/room_eq_peripheral/i2s_rx/i2s_rx.sv:69$11">
    <s:alias val="$and"/>
    <s:alias val="$logic_and"/>
    <s:alias val="$_AND_"/>
    <path d="M0,0 L0,25 L15,25 A15 12.5 0 0 0 15,0 Z" class="cell_$logic_and$src/hardware/room_eq_peripheral/i2s_rx/i2s_rx.sv:69$11"/>
    <g s:x="0" s:y="5" s:pid="A"/>
    <g s:x="0" s:y="20" s:pid="B"/>
    <g s:x="30" s:y="12.5" s:pid="Y"/>
  </g>
  <g s:type="and" transform="translate(877.6666666666666,975.5)" s:width="30" s:height="25" id="cell_$logic_and$src/hardware/room_eq_peripheral/i2s_rx/i2s_rx.sv:75$15">
    <s:alias val="$and"/>
    <s:alias val="$logic_and"/>
    <s:alias val="$_AND_"/>
    <path d="M0,0 L0,25 L15,25 A15 12.5 0 0 0 15,0 Z" class="cell_$logic_and$src/hardware/room_eq_peripheral/i2s_rx/i2s_rx.sv:75$15"/>
    <g s:x="0" s:y="5" s:pid="A"/>
    <g s:x="0" s:y="20" s:pid="B"/>
    <g s:x="30" s:y="12.5" s:pid="Y"/>
  </g>
  <g s:type="not" transform="translate(602,650)" s:width="30" s:height="20" id="cell_$logic_not$src/hardware/room_eq_peripheral/i2s_rx/i2s_rx.sv:39$2">
    <s:alias val="$_NOT_"/>
    <s:alias val="$not"/>
    <s:alias val="$logic_not"/>
    <path d="M0,0 L0,20 L20,10 Z" class="cell_$logic_not$src/hardware/room_eq_peripheral/i2s_rx/i2s_rx.sv:39$2"/>
    <circle cx="23" cy="10" r="3" class="cell_$logic_not$src/hardware/room_eq_peripheral/i2s_rx/i2s_rx.sv:39$2"/>
    <g s:x="0" s:y="10" s:pid="A"/>
    <g s:x="25" s:y="10" s:pid="Y"/>
  </g>
  <g s:type="not" transform="translate(193.5,511)" s:width="30" s:height="20" id="cell_$logic_not$src/hardware/room_eq_peripheral/i2s_rx/i2s_rx.sv:40$4">
    <s:alias val="$_NOT_"/>
    <s:alias val="$not"/>
    <s:alias val="$logic_not"/>
    <path d="M0,0 L0,20 L20,10 Z" class="cell_$logic_not$src/hardware/room_eq_peripheral/i2s_rx/i2s_rx.sv:40$4"/>
    <circle cx="23" cy="10" r="3" class="cell_$logic_not$src/hardware/room_eq_peripheral/i2s_rx/i2s_rx.sv:40$4"/>
    <g s:x="0" s:y="10" s:pid="A"/>
    <g s:x="25" s:y="10" s:pid="Y"/>
  </g>
  <g s:type="inputExt" transform="translate(54,1008)" s:width="30" s:height="20" id="cell_clock">
    <text x="15" y="-4" class="nodelabel cell_clock" s:attribute="ref">clock</text>
    <s:alias val="$_inputExt_"/>
    <path d="M0,0 L0,20 L15,20 L30,10 L15,0 Z" class="cell_clock"/>
    <g s:x="28" s:y="10" s:pid="Y"/>
  </g>
  <g s:type="inputExt" transform="translate(54,1083.5)" s:width="30" s:height="20" id="cell_reset">
    <text x="15" y="-4" class="nodelabel cell_reset" s:attribute="ref">reset</text>
    <s:alias val="$_inputExt_"/>
    <path d="M0,0 L0,20 L15,20 L30,10 L15,0 Z" class="cell_reset"/>
    <g s:x="28" s:y="10" s:pid="Y"/>
  </g>
  <g s:type="inputExt" transform="translate(54,511)" s:width="30" s:height="20" id="cell_bclk">
    <text x="15" y="-4" class="nodelabel cell_bclk" s:attribute="ref">bclk</text>
    <s:alias val="$_inputExt_"/>
    <path d="M0,0 L0,20 L15,20 L30,10 L15,0 Z" class="cell_bclk"/>
    <g s:x="28" s:y="10" s:pid="Y"/>
  </g>
  <g s:type="inputExt" transform="translate(12,22)" s:width="30" s:height="20" id="cell_lrck">
    <text x="15" y="-4" class="nodelabel cell_lrck" s:attribute="ref">lrck</text>
    <s:alias val="$_inputExt_"/>
    <path d="M0,0 L0,20 L15,20 L30,10 L15,0 Z" class="cell_lrck"/>
    <g s:x="28" s:y="10" s:pid="Y"/>
  </g>
  <g s:type="inputExt" transform="translate(1301,437)" s:width="30" s:height="20" id="cell_adcdat">
    <text x="15" y="-4" class="nodelabel cell_adcdat" s:attribute="ref">adcdat</text>
    <s:alias val="$_inputExt_"/>
    <path d="M0,0 L0,20 L15,20 L30,10 L15,0 Z" class="cell_adcdat"/>
    <g s:x="28" s:y="10" s:pid="Y"/>
  </g>
  <g s:type="outputExt" transform="translate(2002,58.5)" s:width="30" s:height="20" id="cell_left_sample">
    <text x="15" y="-4" class="nodelabel cell_left_sample" s:attribute="ref">left_sample</text>
    <s:alias val="$_outputExt_"/>
    <path d="M30,0 L30,20 L15,20 L0,10 L15,0 Z" class="cell_left_sample"/>
    <g s:x="0" s:y="10" s:pid="A"/>
  </g>
  <g s:type="outputExt" transform="translate(2002,801.5)" s:width="30" s:height="20" id="cell_right_sample">
    <text x="15" y="-4" class="nodelabel cell_right_sample" s:attribute="ref">right_sample</text>
    <s:alias val="$_outputExt_"/>
    <path d="M30,0 L30,20 L15,20 L0,10 L15,0 Z" class="cell_right_sample"/>
    <g s:x="0" s:y="10" s:pid="A"/>
  </g>
  <g s:type="constant" transform="translate(418,700)" s:width="30" s:height="20" id="cell_000001">
    <text x="15" y="-4" class="nodelabel cell_000001" s:attribute="ref">0x1</text>
    <s:alias val="$_constant_"/>
    <rect width="30" height="20" class="cell_000001"/>
    <g s:x="30" s:y="10" s:pid="Y"/>
  </g>
  <g s:type="constant" transform="translate(418,457)" s:width="30" s:height="20" id="cell_011000">
    <text x="15" y="-4" class="nodelabel cell_011000" s:attribute="ref">0x18</text>
    <s:alias val="$_constant_"/>
    <rect width="30" height="20" class="cell_011000"/>
    <g s:x="30" s:y="10" s:pid="Y"/>
  </g>
  <g s:type="constant" transform="translate(667,882)" s:width="30" s:height="20" id="cell_111000">
    <text x="15" y="-4" class="nodelabel cell_111000" s:attribute="ref">0x38</text>
    <s:alias val="$_constant_"/>
    <rect width="30" height="20" class="cell_111000"/>
    <g s:x="30" s:y="10" s:pid="Y"/>
  </g>
  <g s:type="constant" transform="translate(667,933)" s:width="30" s:height="20" id="cell_100001">
    <text x="15" y="-4" class="nodelabel cell_100001" s:attribute="ref">0x21</text>
    <s:alias val="$_constant_"/>
    <rect width="30" height="20" class="cell_100001"/>
    <g s:x="30" s:y="10" s:pid="Y"/>
  </g>
  <g s:type="join" transform="translate(1440.75,25)" s:width="4" s:height="40" id="cell_$join$,6,67,68,69,70,71,72,73,74,75,76,77,78,79,80,81,82,83,84,85,86,87,88,89,">
    <rect width="5" height="40" class="splitjoinBody" s:generic="body"/>
    <s:alias val="$_join_"/>
    <g s:x="5" s:y="20" s:pid="out"/>
    <g transform="translate(0,10)" s:x="0" s:y="10" s:pid="in0">
      <text x="-3" y="-4" class="inputPortLabel">0</text>
    </g>
    <g transform="translate(0,30)" s:x="0" s:y="10" s:pid="in0">
      <text x="-3" y="-4" class="inputPortLabel">1:23</text>
    </g>
  </g>
  <g s:type="join" transform="translate(1461.3333333333333,811)" s:width="4" s:height="40" id="cell_$join$,6,91,92,93,94,95,96,97,98,99,100,101,102,103,104,105,106,107,108,109,110,111,112,113,">
    <rect width="5" height="40" class="splitjoinBody" s:generic="body"/>
    <s:alias val="$_join_"/>
    <g s:x="5" s:y="20" s:pid="out"/>
    <g transform="translate(0,10)" s:x="0" s:y="10" s:pid="in0">
      <text x="-3" y="-4" class="inputPortLabel">0</text>
    </g>
    <g transform="translate(0,30)" s:x="0" s:y="10" s:pid="in0">
      <text x="-3" y="-4" class="inputPortLabel">1:23</text>
    </g>
  </g>
  <g s:type="join" transform="translate(1320,352)" s:width="4" s:height="40" id="cell_$join$,121,122,123,">
    <rect width="5" height="40" class="splitjoinBody" s:generic="body"/>
    <s:alias val="$_join_"/>
    <g s:x="5" s:y="20" s:pid="out"/>
    <g transform="translate(0,10)" s:x="0" s:y="10" s:pid="in0">
      <text x="-3" y="-4" class="inputPortLabel">0:1</text>
    </g>
  </g>
  <g s:type="join" transform="translate(746.3333333333334,270.5)" s:width="4" s:height="40" id="cell_$join$,121,122,">
    <rect width="5" height="40" class="splitjoinBody" s:generic="body"/>
    <s:alias val="$_join_"/>
    <g s:x="5" s:y="20" s:pid="out"/>
    <g transform="translate(0,10)" s:x="0" s:y="10" s:pid="in0">
      <text x="-3" y="-4" class="inputPortLabel">0</text>
    </g>
    <g transform="translate(0,30)" s:x="0" s:y="10" s:pid="in0">
      <text x="-3" y="-4" class="inputPortLabel">1</text>
    </g>
  </g>
  <g s:type="join" transform="translate(1320,741)" s:width="4" s:height="40" id="cell_$join$,121,124,125,">
    <rect width="5" height="40" class="splitjoinBody" s:generic="body"/>
    <s:alias val="$_join_"/>
    <g s:x="5" s:y="20" s:pid="out"/>
    <g transform="translate(0,10)" s:x="0" s:y="10" s:pid="in0">
      <text x="-3" y="-4" class="inputPortLabel">0:1</text>
    </g>
  </g>
  <g s:type="join" transform="translate(1160.3333333333333,957.5)" s:width="4" s:height="40" id="cell_$join$,121,124,">
    <rect width="5" height="40" class="splitjoinBody" s:generic="body"/>
    <s:alias val="$_join_"/>
    <g s:x="5" s:y="20" s:pid="out"/>
    <g transform="translate(0,10)" s:x="0" s:y="10" s:pid="in0">
      <text x="-3" y="-4" class="inputPortLabel">0</text>
    </g>
    <g transform="translate(0,30)" s:x="0" s:y="10" s:pid="in0">
      <text x="-3" y="-4" class="inputPortLabel">1</text>
    </g>
  </g>
  <g s:type="split" transform="translate(1307,45)" s:width="5" s:height="40" id="cell_$split$,67,68,69,70,71,72,73,74,75,76,77,78,79,80,81,82,83,84,85,86,87,88,89,116,">
    <rect width="5" height="20" class="splitjoinBody" s:generic="body"/>
    <s:alias val="$_split_"/>
    <g s:x="0" s:y="20" s:pid="in"/>
    <g transform="translate(4,10)" s:x="4" s:y="10" s:pid="out0">
      <text x="5" y="-4">0:22</text>
    </g>
  </g>
  <g s:type="split" transform="translate(1307,1029)" s:width="5" s:height="40" id="cell_$split$,91,92,93,94,95,96,97,98,99,100,101,102,103,104,105,106,107,108,109,110,111,112,113,118,">
    <rect width="5" height="20" class="splitjoinBody" s:generic="body"/>
    <s:alias val="$_split_"/>
    <g s:x="0" s:y="20" s:pid="in"/>
    <g transform="translate(4,10)" s:x="4" s:y="10" s:pid="out0">
      <text x="5" y="-4">0:22</text>
    </g>
  </g>
  <line x1="449" x2="582" y1="539" y2="539" class="net_55,56,57,58,59,60"/>
  <line x1="582" x2="582" y1="539" y2="1119.5" class="net_55,56,57,58,59,60"/>
  <circle cx="582" cy="539" r="2" style="fill:#000" class="net_55,56,57,58,59,60"/>
  <line x1="582" x2="2005" y1="1119.5" y2="1119.5" class="net_55,56,57,58,59,60"/>
  <line x1="449" x2="582" y1="539" y2="539" class="net_55,56,57,58,59,60"/>
  <line x1="582" x2="582" y1="539" y2="331" class="net_55,56,57,58,59,60"/>
  <line x1="582" x2="1952" y1="331" y2="331" class="net_55,56,57,58,59,60"/>
  <line x1="1952" x2="1952" y1="331" y2="452" class="net_55,56,57,58,59,60"/>
  <circle cx="582" cy="331" r="2" style="fill:#000" class="net_55,56,57,58,59,60"/>
  <line x1="1952" x2="2005" y1="452" y2="452" class="net_55,56,57,58,59,60"/>
  <line x1="449" x2="582" y1="539" y2="539" class="net_55,56,57,58,59,60"/>
  <line x1="582" x2="582" y1="539" y2="478" class="net_55,56,57,58,59,60"/>
  <line x1="582" x2="1952" y1="478" y2="478" class="net_55,56,57,58,59,60"/>
  <line x1="1952" x2="1952" y1="478" y2="650" class="net_55,56,57,58,59,60"/>
  <circle cx="582" cy="478" r="2" style="fill:#000" class="net_55,56,57,58,59,60"/>
  <line x1="1952" x2="2005" y1="650" y2="650" class="net_55,56,57,58,59,60"/>
  <line x1="449" x2="582" y1="539" y2="539" class="net_55,56,57,58,59,60"/>
  <line x1="582" x2="582" y1="539" y2="241" class="net_55,56,57,58,59,60"/>
  <line x1="582" x2="606.6666666666666" y1="241" y2="241" class="net_55,56,57,58,59,60"/>
  <line x1="449" x2="582" y1="539" y2="539" class="net_55,56,57,58,59,60"/>
  <line x1="582" x2="582" y1="539" y2="988" class="net_55,56,57,58,59,60"/>
  <line x1="582" x2="642" y1="988" y2="988" class="net_55,56,57,58,59,60"/>
  <line x1="642" x2="642" y1="988" y2="912" class="net_55,56,57,58,59,60"/>
  <line x1="642" x2="717" y1="912" y2="912" class="net_55,56,57,58,59,60"/>
  <line x1="717" x2="717" y1="912" y2="928" class="net_55,56,57,58,59,60"/>
  <circle cx="582" cy="988" r="2" style="fill:#000" class="net_55,56,57,58,59,60"/>
  <circle cx="642" cy="988" r="2" style="fill:#000" class="net_55,56,57,58,59,60"/>
  <line x1="717" x2="740" y1="928" y2="928" class="net_55,56,57,58,59,60"/>
  <line x1="449" x2="582" y1="539" y2="539" class="net_55,56,57,58,59,60"/>
  <line x1="582" x2="582" y1="539" y2="301" class="net_55,56,57,58,59,60"/>
  <circle cx="582" cy="301" r="2" style="fill:#000" class="net_55,56,57,58,59,60"/>
  <line x1="582" x2="606.6666666666666" y1="301" y2="301" class="net_55,56,57,58,59,60"/>
  <line x1="449" x2="582" y1="539" y2="539" class="net_55,56,57,58,59,60"/>
  <line x1="582" x2="582" y1="539" y2="988" class="net_55,56,57,58,59,60"/>
  <line x1="582" x2="740" y1="988" y2="988" class="net_55,56,57,58,59,60"/>
  <line x1="448" x2="572" y1="710" y2="710" class="net_132,133,134,135,136,137"/>
  <line x1="572" x2="572" y1="710" y2="1134.5" class="net_132,133,134,135,136,137"/>
  <circle cx="572" cy="710" r="2" style="fill:#000" class="net_132,133,134,135,136,137"/>
  <line x1="572" x2="2005" y1="1134.5" y2="1134.5" class="net_132,133,134,135,136,137"/>
  <line x1="448" x2="572" y1="710" y2="710" class="net_132,133,134,135,136,137"/>
  <line x1="572" x2="572" y1="710" y2="256" class="net_132,133,134,135,136,137"/>
  <line x1="572" x2="606.6666666666666" y1="256" y2="256" class="net_132,133,134,135,136,137"/>
  <line x1="82" x2="94" y1="1018" y2="1018" class="net_2"/>
  <line x1="94" x2="94" y1="1018" y2="12" class="net_2"/>
  <line x1="94" x2="1657" y1="12" y2="12" class="net_2"/>
  <line x1="1657" x2="1657" y1="12" y2="68.5" class="net_2"/>
  <circle cx="94" cy="1018" r="2" style="fill:#000" class="net_2"/>
  <line x1="1657" x2="1739" y1="68.5" y2="68.5" class="net_2"/>
  <line x1="82" x2="94" y1="1018" y2="1018" class="net_2"/>
  <line x1="94" x2="94" y1="1018" y2="730" class="net_2"/>
  <line x1="94" x2="1667" y1="730" y2="730" class="net_2"/>
  <line x1="1667" x2="1667" y1="730" y2="811.5" class="net_2"/>
  <circle cx="94" cy="730" r="2" style="fill:#000" class="net_2"/>
  <line x1="1667" x2="1739" y1="811.5" y2="811.5" class="net_2"/>
  <line x1="82" x2="94" y1="1018" y2="1018" class="net_2"/>
  <line x1="94" x2="94" y1="1018" y2="171" class="net_2"/>
  <line x1="94" x2="1082" y1="171" y2="171" class="net_2"/>
  <line x1="1082" x2="1082" y1="171" y2="162.5" class="net_2"/>
  <circle cx="94" cy="171" r="2" style="fill:#000" class="net_2"/>
  <line x1="1082" x2="1122" y1="162.5" y2="162.5" class="net_2"/>
  <line x1="82" x2="1952" y1="1018" y2="1018" class="net_2"/>
  <line x1="1952" x2="1952" y1="1018" y2="1022" class="net_2"/>
  <line x1="1952" x2="2002" y1="1022" y2="1022" class="net_2"/>
  <line x1="82" x2="94" y1="1018" y2="1018" class="net_2"/>
  <line x1="94" x2="94" y1="1018" y2="500" class="net_2"/>
  <line x1="94" x2="368" y1="500" y2="500" class="net_2"/>
  <line x1="368" x2="368" y1="500" y2="539" class="net_2"/>
  <circle cx="94" cy="500" r="2" style="fill:#000" class="net_2"/>
  <line x1="368" x2="418" y1="539" y2="539" class="net_2"/>
  <line x1="82" x2="94" y1="1018" y2="1018" class="net_2"/>
  <line x1="94" x2="94" y1="1018" y2="586.5" class="net_2"/>
  <circle cx="94" cy="586.5" r="2" style="fill:#000" class="net_2"/>
  <line x1="94" x2="149" y1="586.5" y2="586.5" class="net_2"/>
  <line x1="1446.75" x2="1647" y1="45.5" y2="45.5" class="net_6,67,68,69,70,71,72,73,74,75,76,77,78,79,80,81,82,83,84,85,86,87,88,89"/>
  <line x1="1647" x2="1647" y1="45.5" y2="88.5" class="net_6,67,68,69,70,71,72,73,74,75,76,77,78,79,80,81,82,83,84,85,86,87,88,89"/>
  <line x1="1647" x2="1739" y1="88.5" y2="88.5" class="net_6,67,68,69,70,71,72,73,74,75,76,77,78,79,80,81,82,83,84,85,86,87,88,89"/>
  <line x1="1446.75" x2="1647" y1="45.5" y2="45.5" class="net_6,67,68,69,70,71,72,73,74,75,76,77,78,79,80,81,82,83,84,85,86,87,88,89"/>
  <line x1="1647" x2="1647" y1="45.5" y2="78" class="net_6,67,68,69,70,71,72,73,74,75,76,77,78,79,80,81,82,83,84,85,86,87,88,89"/>
  <line x1="1647" x2="1072" y1="78" y2="78" class="net_6,67,68,69,70,71,72,73,74,75,76,77,78,79,80,81,82,83,84,85,86,87,88,89"/>
  <line x1="1072" x2="1072" y1="78" y2="182.5" class="net_6,67,68,69,70,71,72,73,74,75,76,77,78,79,80,81,82,83,84,85,86,87,88,89"/>
  <circle cx="1647" cy="78" r="2" style="fill:#000" class="net_6,67,68,69,70,71,72,73,74,75,76,77,78,79,80,81,82,83,84,85,86,87,88,89"/>
  <line x1="1072" x2="1122" y1="182.5" y2="182.5" class="net_6,67,68,69,70,71,72,73,74,75,76,77,78,79,80,81,82,83,84,85,86,87,88,89"/>
  <line x1="1410" x2="1739" y1="108.5" y2="108.5" class="net_90"/>
  <line x1="82" x2="104" y1="1093.5" y2="1093.5" class="net_3"/>
  <line x1="104" x2="104" y1="1093.5" y2="131" class="net_3"/>
  <line x1="104" x2="1647" y1="131" y2="131" class="net_3"/>
  <line x1="1647" x2="1647" y1="131" y2="128.5" class="net_3"/>
  <circle cx="104" cy="1093.5" r="2" style="fill:#000" class="net_3"/>
  <line x1="1647" x2="1739" y1="128.5" y2="128.5" class="net_3"/>
  <line x1="82" x2="104" y1="1093.5" y2="1093.5" class="net_3"/>
  <line x1="104" x2="104" y1="1093.5" y2="861" class="net_3"/>
  <line x1="104" x2="1657" y1="861" y2="861" class="net_3"/>
  <line x1="1657" x2="1657" y1="861" y2="871.5" class="net_3"/>
  <circle cx="104" cy="861" r="2" style="fill:#000" class="net_3"/>
  <line x1="1657" x2="1739" y1="871.5" y2="871.5" class="net_3"/>
  <line x1="82" x2="104" y1="1093.5" y2="1093.5" class="net_3"/>
  <line x1="104" x2="104" y1="1093.5" y2="225" class="net_3"/>
  <line x1="104" x2="1072" y1="225" y2="225" class="net_3"/>
  <line x1="1072" x2="1072" y1="225" y2="222.5" class="net_3"/>
  <circle cx="104" cy="225" r="2" style="fill:#000" class="net_3"/>
  <line x1="1072" x2="1122" y1="222.5" y2="222.5" class="net_3"/>
  <line x1="82" x2="1952" y1="1093.5" y2="1093.5" class="net_3"/>
  <line x1="1952" x2="1952" y1="1093.5" y2="1082" class="net_3"/>
  <line x1="1952" x2="2002" y1="1082" y2="1082" class="net_3"/>
  <line x1="82" x2="104" y1="1093.5" y2="1093.5" class="net_3"/>
  <line x1="104" x2="104" y1="1093.5" y2="649" class="net_3"/>
  <line x1="104" x2="378" y1="649" y2="649" class="net_3"/>
  <line x1="378" x2="378" y1="649" y2="599" class="net_3"/>
  <circle cx="104" cy="649" r="2" style="fill:#000" class="net_3"/>
  <line x1="378" x2="418" y1="599" y2="599" class="net_3"/>
  <line x1="82" x2="104" y1="1093.5" y2="1093.5" class="net_3"/>
  <line x1="104" x2="104" y1="1093.5" y2="626.5" class="net_3"/>
  <circle cx="104" cy="626.5" r="2" style="fill:#000" class="net_3"/>
  <line x1="104" x2="149" y1="626.5" y2="626.5" class="net_3"/>
  <line x1="1467.3333333333333" x2="1739" y1="831.5" y2="831.5" class="net_6,91,92,93,94,95,96,97,98,99,100,101,102,103,104,105,106,107,108,109,110,111,112,113"/>
  <line x1="1467.3333333333333" x2="1647" y1="831.5" y2="831.5" class="net_6,91,92,93,94,95,96,97,98,99,100,101,102,103,104,105,106,107,108,109,110,111,112,113"/>
  <line x1="1647" x2="1647" y1="831.5" y2="1030.5" class="net_6,91,92,93,94,95,96,97,98,99,100,101,102,103,104,105,106,107,108,109,110,111,112,113"/>
  <line x1="1647" x2="1952" y1="1030.5" y2="1030.5" class="net_6,91,92,93,94,95,96,97,98,99,100,101,102,103,104,105,106,107,108,109,110,111,112,113"/>
  <line x1="1952" x2="1952" y1="1030.5" y2="1042" class="net_6,91,92,93,94,95,96,97,98,99,100,101,102,103,104,105,106,107,108,109,110,111,112,113"/>
  <circle cx="1647" cy="831.5" r="2" style="fill:#000" class="net_6,91,92,93,94,95,96,97,98,99,100,101,102,103,104,105,106,107,108,109,110,111,112,113"/>
  <line x1="1952" x2="2002" y1="1042" y2="1042" class="net_6,91,92,93,94,95,96,97,98,99,100,101,102,103,104,105,106,107,108,109,110,111,112,113"/>
  <line x1="1410" x2="1657" y1="761.5" y2="761.5" class="net_114"/>
  <line x1="1657" x2="1657" y1="761.5" y2="851.5" class="net_114"/>
  <line x1="1657" x2="1739" y1="851.5" y2="851.5" class="net_114"/>
  <line x1="835" x2="1122" y1="202.5" y2="202.5" class="net_115"/>
  <line x1="1715" x2="2002" y1="1062" y2="1062" class="net_117"/>
  <line x1="2027" x2="2166" y1="1127" y2="1127" class="net_61,62,63,64,65,66"/>
  <line x1="2166" x2="2166" y1="1127" y2="680" class="net_61,62,63,64,65,66"/>
  <line x1="2166" x2="368" y1="680" y2="680" class="net_61,62,63,64,65,66"/>
  <line x1="368" x2="368" y1="680" y2="559" class="net_61,62,63,64,65,66"/>
  <line x1="368" x2="418" y1="559" y2="559" class="net_61,62,63,64,65,66"/>
  <line x1="358" x2="418" y1="579" y2="579" class="net_119"/>
  <line x1="82" x2="114" y1="521" y2="521" class="net_4"/>
  <line x1="114" x2="114" y1="521" y2="606.5" class="net_4"/>
  <circle cx="114" cy="521" r="2" style="fill:#000" class="net_4"/>
  <line x1="114" x2="149" y1="606.5" y2="606.5" class="net_4"/>
  <line x1="82" x2="114" y1="521" y2="521" class="net_4"/>
  <line x1="114" x2="114" y1="521" y2="489" class="net_4"/>
  <line x1="114" x2="642" y1="489" y2="489" class="net_4"/>
  <line x1="642" x2="642" y1="489" y2="645" class="net_4"/>
  <line x1="642" x2="667" y1="645" y2="645" class="net_4"/>
  <line x1="82" x2="193.5" y1="521" y2="521" class="net_4"/>
  <line x1="1326" x2="1357" y1="372.5" y2="372.5" class="net_121,122,123"/>
  <line x1="1357" x2="1357" y1="372.5" y2="108.5" class="net_121,122,123"/>
  <line x1="1357" x2="1379" y1="108.5" y2="108.5" class="net_121,122,123"/>
  <line x1="1326" x2="1379" y1="761.5" y2="761.5" class="net_121,124,125"/>
  <line x1="752.3333333333334" x2="772" y1="291" y2="291" class="net_121,122"/>
  <line x1="772" x2="772" y1="291" y2="202.5" class="net_121,122"/>
  <circle cx="772" cy="291" r="2" style="fill:#000" class="net_121,122"/>
  <line x1="772" x2="804" y1="202.5" y2="202.5" class="net_121,122"/>
  <line x1="752.3333333333334" x2="772" y1="291" y2="291" class="net_121,122"/>
  <line x1="772" x2="772" y1="291" y2="362.5" class="net_121,122"/>
  <line x1="772" x2="1320" y1="362.5" y2="362.5" class="net_121,122"/>
  <line x1="1166.3333333333333" x2="1276" y1="978" y2="978" class="net_121,124"/>
  <line x1="1276" x2="1276" y1="978" y2="1062" class="net_121,124"/>
  <circle cx="1276" cy="978" r="2" style="fill:#000" class="net_121,124"/>
  <line x1="1276" x2="1684" y1="1062" y2="1062" class="net_121,124"/>
  <line x1="1166.3333333333333" x2="1276" y1="978" y2="978" class="net_121,124"/>
  <line x1="1276" x2="1276" y1="978" y2="751.5" class="net_121,124"/>
  <line x1="1276" x2="1320" y1="751.5" y2="751.5" class="net_121,124"/>
  <line x1="448" x2="2005" y1="467" y2="467" class="net_138,139,140,141,142,143"/>
  <line x1="448" x2="592" y1="467" y2="467" class="net_138,139,140,141,142,143"/>
  <line x1="592" x2="592" y1="467" y2="316" class="net_138,139,140,141,142,143"/>
  <circle cx="592" cy="467" r="2" style="fill:#000" class="net_138,139,140,141,142,143"/>
  <line x1="592" x2="606.6666666666666" y1="316" y2="316" class="net_138,139,140,141,142,143"/>
  <line x1="697" x2="707" y1="892" y2="892" class="net_144,145,146,147,148,149"/>
  <line x1="707" x2="707" y1="892" y2="665" class="net_144,145,146,147,148,149"/>
  <circle cx="707" cy="892" r="2" style="fill:#000" class="net_144,145,146,147,148,149"/>
  <line x1="707" x2="2005" y1="665" y2="665" class="net_144,145,146,147,148,149"/>
  <line x1="697" x2="707" y1="892" y2="892" class="net_144,145,146,147,148,149"/>
  <line x1="707" x2="707" y1="892" y2="1003" class="net_144,145,146,147,148,149"/>
  <line x1="707" x2="740" y1="1003" y2="1003" class="net_144,145,146,147,148,149"/>
  <line x1="697" x2="740" y1="943" y2="943" class="net_156,157,158,159,160,161"/>
  <line x1="627" x2="667" y1="660" y2="660" class="net_130"/>
  <line x1="218.5" x2="303" y1="521" y2="521" class="net_131"/>
  <line x1="303" x2="303" y1="521" y2="571.5" class="net_131"/>
  <line x1="303" x2="328" y1="571.5" y2="571.5" class="net_131"/>
  <line x1="180" x2="328" y1="586.5" y2="586.5" class="net_120"/>
  <line x1="180" x2="303" y1="586.5" y2="586.5" class="net_120"/>
  <line x1="303" x2="303" y1="586.5" y2="660" class="net_120"/>
  <circle cx="303" cy="586.5" r="2" style="fill:#000" class="net_120"/>
  <line x1="303" x2="602" y1="660" y2="660" class="net_120"/>
  <line x1="628.6666666666666" x2="642" y1="248.5" y2="248.5" class="net_126"/>
  <line x1="642" x2="642" y1="248.5" y2="293.5" class="net_126"/>
  <line x1="642" x2="667" y1="293.5" y2="293.5" class="net_126"/>
  <line x1="628.6666666666666" x2="667" y1="308.5" y2="308.5" class="net_128"/>
  <line x1="762" x2="772" y1="935.5" y2="935.5" class="net_127"/>
  <line x1="772" x2="772" y1="935.5" y2="980.5" class="net_127"/>
  <line x1="772" x2="877.6666666666666" y1="980.5" y2="980.5" class="net_127"/>
  <line x1="762" x2="877.6666666666666" y1="995.5" y2="995.5" class="net_129"/>
  <line x1="1770" x2="2002" y1="68.5" y2="68.5" class="net_7,8,9,10,11,12,13,14,15,16,17,18,19,20,21,22,23,24,25,26,27,28,29,30"/>
  <line x1="1770" x2="2002" y1="811.5" y2="811.5" class="net_31,32,33,34,35,36,37,38,39,40,41,42,43,44,45,46,47,48,49,50,51,52,53,54"/>
  <line x1="1329" x2="1347" y1="447" y2="447" class="net_6"/>
  <line x1="1347" x2="1347" y1="447" y2="35.5" class="net_6"/>
  <circle cx="1347" cy="447" r="2" style="fill:#000" class="net_6"/>
  <line x1="1347" x2="1440.75" y1="35.5" y2="35.5" class="net_6"/>
  <line x1="1329" x2="1347" y1="447" y2="447" class="net_6"/>
  <line x1="1347" x2="1347" y1="447" y2="821.5" class="net_6"/>
  <line x1="1347" x2="1461.3333333333333" y1="821.5" y2="821.5" class="net_6"/>
  <line x1="1312" x2="1440.75" y1="55.5" y2="55.5" class="net_67,68,69,70,71,72,73,74,75,76,77,78,79,80,81,82,83,84,85,86,87,88,89"/>
  <line x1="1312" x2="1347" y1="1039.5" y2="1039.5" class="net_91,92,93,94,95,96,97,98,99,100,101,102,103,104,105,106,107,108,109,110,111,112,113"/>
  <line x1="1347" x2="1347" y1="1039.5" y2="841.5" class="net_91,92,93,94,95,96,97,98,99,100,101,102,103,104,105,106,107,108,109,110,111,112,113"/>
  <line x1="1347" x2="1461.3333333333333" y1="841.5" y2="841.5" class="net_91,92,93,94,95,96,97,98,99,100,101,102,103,104,105,106,107,108,109,110,111,112,113"/>
  <line x1="697" x2="727" y1="652.5" y2="652.5" class="net_121"/>
  <line x1="727" x2="727" y1="652.5" y2="281" class="net_121"/>
  <circle cx="727" cy="652.5" r="2" style="fill:#000" class="net_121"/>
  <line x1="727" x2="746.3333333333334" y1="281" y2="281" class="net_121"/>
  <line x1="697" x2="727" y1="652.5" y2="652.5" class="net_121"/>
  <line x1="727" x2="727" y1="652.5" y2="912" class="net_121"/>
  <line x1="727" x2="1072" y1="912" y2="912" class="net_121"/>
  <line x1="1072" x2="1072" y1="912" y2="968" class="net_121"/>
  <line x1="1072" x2="1160.3333333333333" y1="968" y2="968" class="net_121"/>
  <line x1="697" x2="746.3333333333334" y1="301" y2="301" class="net_122"/>
  <line x1="907.6666666666666" x2="1160.3333333333333" y1="988" y2="988" class="net_124"/>
  <line x1="1153" x2="1276" y1="162.5" y2="162.5" class="net_67,68,69,70,71,72,73,74,75,76,77,78,79,80,81,82,83,84,85,86,87,88,89,116"/>
  <line x1="1276" x2="1276" y1="162.5" y2="342" class="net_67,68,69,70,71,72,73,74,75,76,77,78,79,80,81,82,83,84,85,86,87,88,89,116"/>
  <line x1="1276" x2="1307.5" y1="342" y2="342" class="net_67,68,69,70,71,72,73,74,75,76,77,78,79,80,81,82,83,84,85,86,87,88,89,116"/>
  <line x1="1307.5" x2="1307.5" y1="342" y2="66" class="net_67,68,69,70,71,72,73,74,75,76,77,78,79,80,81,82,83,84,85,86,87,88,89,116"/>
  <line x1="2033" x2="2156" y1="1022" y2="1022" class="net_91,92,93,94,95,96,97,98,99,100,101,102,103,104,105,106,107,108,109,110,111,112,113,118"/>
  <line x1="2156" x2="2156" y1="1022" y2="1104.5" class="net_91,92,93,94,95,96,97,98,99,100,101,102,103,104,105,106,107,108,109,110,111,112,113,118"/>
  <line x1="2156" x2="1307.5" y1="1104.5" y2="1104.5" class="net_91,92,93,94,95,96,97,98,99,100,101,102,103,104,105,106,107,108,109,110,111,112,113,118"/>
  <line x1="1307.5" x2="1307.5" y1="1104.5" y2="1050" class="net_91,92,93,94,95,96,97,98,99,100,101,102,103,104,105,106,107,108,109,110,111,112,113,118"/>
</svg>
