<svg xmlns="http://www.w3.org/2000/svg" xmlns:xlink="http://www.w3.org/1999/xlink" xmlns:s="https://github.com/nturley/netlistsvg" width="893" height="759">
  <style>svg {
    stroke:#000;
    fill:none;
  }
  text {
    fill:#000;
    stroke:none;
    font-size:10px;
    font-weight: bold;
    font-family: "Courier New", monospace;
  }
  .nodelabel {
    text-anchor: middle;
  }
  .inputPortLabel {
    text-anchor: end;
  }
  .splitjoinBody {
    fill:#000;
  }</style>
  <g s:type="add" transform="translate(735.6666666666666,104.5)" s:width="25" s:height="25" id="cell_$add$src/hardware/room_eq_peripheral/calibration_engine/sample_fft.sv:77$5">
    <s:alias val="$add"/>
    <circle r="12.5" cx="12.5" cy="12.5" class="cell_$add$src/hardware/room_eq_peripheral/calibration_engine/sample_fft.sv:77$5"/>
    <line x1="7.5" x2="17.5" y1="12.5" y2="12.5" class="cell_$add$src/hardware/room_eq_peripheral/calibration_engine/sample_fft.sv:77$5"/>
    <line x1="12.5" x2="12.5" y1="7.5" y2="17.5" class="cell_$add$src/hardware/room_eq_peripheral/calibration_engine/sample_fft.sv:77$5"/>
    <g s:x="3" s:y="5" s:pid="A"/>
    <g s:x="3" s:y="20" s:pid="B"/>
    <g s:x="25" s:y="12.5" s:pid="Y"/>
  </g>
  <g s:type="generic" transform="translate(555,99)" s:width="30" s:height="40" id="cell_$auto$ff.cc:337:slice$20">
    <text x="15" y="-4" class="nodelabel cell_$auto$ff.cc:337:slice$20" s:attribute="ref">$adffe</text>
    <rect width="30" height="80" s:generic="body" class="cell_$auto$ff.cc:337:slice$20"/>
    <g transform="translate(0,10)" s:x="0" s:y="10" s:pid="in0" id="port_$auto$ff.cc:337:slice$20~ARST">
      <text x="-3" y="-4" class="inputPortLabel cell_$auto$ff.cc:337:slice$20">ARST</text>
    </g>
    <g transform="translate(0,30)" s:x="0" s:y="10" s:pid="in0" id="port_$auto$ff.cc:337:slice$20~CLK">
      <text x="-3" y="-4" class="inputPortLabel cell_$auto$ff.cc:337:slice$20">CLK</text>
    </g>
    <g transform="translate(0,50)" s:x="0" s:y="10" s:pid="in0" id="port_$auto$ff.cc:337:slice$20~D">
      <text x="-3" y="-4" class="inputPortLabel cell_$auto$ff.cc:337:slice$20">D</text>
    </g>
    <g transform="translate(0,70)" s:x="0" s:y="10" s:pid="in0" id="port_$auto$ff.cc:337:slice$20~EN">
      <text x="-3" y="-4" class="inputPortLabel cell_$auto$ff.cc:337:slice$20">EN</text>
    </g>
    <g transform="translate(30,10)" s:x="30" s:y="10" s:pid="out0" id="port_$auto$ff.cc:337:slice$20~Q">
      <text x="5" y="-4" style="fill:#000; stroke:none" class="cell_$auto$ff.cc:337:slice$20">Q</text>
    </g>
  </g>
  <g s:type="not" transform="translate(83,662)" s:width="30" s:height="20" id="cell_$eq$src/hardware/room_eq_peripheral/calibration_engine/sample_fft.sv:81$6">
    <s:alias val="$_NOT_"/>
    <s:alias val="$not"/>
    <s:alias val="$logic_not"/>
    <path d="M0,0 L0,20 L20,10 Z" class="cell_$eq$src/hardware/room_eq_peripheral/calibration_engine/sample_fft.sv:81$6"/>
    <circle cx="23" cy="10" r="3" class="cell_$eq$src/hardware/room_eq_peripheral/calibration_engine/sample_fft.sv:81$6"/>
    <g s:x="0" s:y="10" s:pid="A"/>
    <g s:x="25" s:y="10" s:pid="Y"/>
  </g>
  <g s:type="eq" transform="translate(96.33333333333333,49.5)" s:width="25" s:height="25" id="cell_$eq$src/hardware/room_eq_peripheral/calibration_engine/sample_fft.sv:82$7">
    <s:alias val="$eq"/>
    <circle r="12.5" cx="12.5" cy="12.5" class="cell_$eq$src/hardware/room_eq_peripheral/calibration_engine/sample_fft.sv:82$7"/>
    <line x1="7.5" x2="17.5" y1="10" y2="10" class="cell_$eq$src/hardware/room_eq_peripheral/calibration_engine/sample_fft.sv:82$7"/>
    <line x1="7.5" x2="17.5" y1="15" y2="15" class="cell_$eq$src/hardware/room_eq_peripheral/calibration_engine/sample_fft.sv:82$7"/>
    <g s:x="3" s:y="5" s:pid="A"/>
    <g s:x="3" s:y="20" s:pid="B"/>
    <g s:x="25" s:y="12.5" s:pid="Y"/>
  </g>
  <g s:type="and" transform="translate(460,233)" s:width="30" s:height="25" id="cell_$logic_and$src/hardware/room_eq_peripheral/calibration_engine/sample_fft.sv:73$3">
    <s:alias val="$and"/>
    <s:alias val="$logic_and"/>
    <s:alias val="$_AND_"/>
    <path d="M0,0 L0,25 L15,25 A15 12.5 0 0 0 15,0 Z" class="cell_$logic_and$src/hardware/room_eq_peripheral/calibration_engine/sample_fft.sv:73$3"/>
    <g s:x="0" s:y="5" s:pid="A"/>
    <g s:x="0" s:y="20" s:pid="B"/>
    <g s:x="30" s:y="12.5" s:pid="Y"/>
  </g>
  <g s:type="mux" transform="translate(799,12)" s:width="20" s:height="40" id="cell_$procmux$11">
    <s:alias val="$pmux"/>
    <s:alias val="$mux"/>
    <s:alias val="$_MUX_"/>
    <path d="M0,0 L20,10 L20,30 L0,40 Z" class="cell_$procmux$11"/>
    <g s:x="0" s:y="10" s:pid="A"/>
    <g s:x="0" s:y="30" s:pid="B"/>
    <g s:x="10" s:y="35" s:pid="S"/>
    <g s:x="20" s:y="20" s:pid="Y"/>
  </g>
  <g s:type="generic" transform="translate(306,261.5)" s:width="30" s:height="40" id="cell_u0">
    <text x="15" y="-4" class="nodelabel cell_u0" s:attribute="ref">capture_fft</text>
    <rect width="30" height="220" s:generic="body" class="cell_u0"/>
    <g transform="translate(0,10)" s:x="0" s:y="10" s:pid="in0" id="port_u0~clk">
      <text x="-3" y="-4" class="inputPortLabel cell_u0">clk</text>
    </g>
    <g transform="translate(0,30)" s:x="0" s:y="10" s:pid="in0" id="port_u0~fftpts_in">
      <text x="-3" y="-4" class="inputPortLabel cell_u0">fftpts_in</text>
    </g>
    <g transform="translate(0,50)" s:x="0" s:y="10" s:pid="in0" id="port_u0~inverse">
      <text x="-3" y="-4" class="inputPortLabel cell_u0">inverse</text>
    </g>
    <g transform="translate(0,70)" s:x="0" s:y="10" s:pid="in0" id="port_u0~reset_n">
      <text x="-3" y="-4" class="inputPortLabel cell_u0">reset_n</text>
    </g>
    <g transform="translate(0,90)" s:x="0" s:y="10" s:pid="in0" id="port_u0~sink_eop">
      <text x="-3" y="-4" class="inputPortLabel cell_u0">sink_eop</text>
    </g>
    <g transform="translate(0,110)" s:x="0" s:y="10" s:pid="in0" id="port_u0~sink_error">
      <text x="-3" y="-4" class="inputPortLabel cell_u0">sink_error</text>
    </g>
    <g transform="translate(0,130)" s:x="0" s:y="10" s:pid="in0" id="port_u0~sink_imag">
      <text x="-3" y="-4" class="inputPortLabel cell_u0">sink_imag</text>
    </g>
    <g transform="translate(0,150)" s:x="0" s:y="10" s:pid="in0" id="port_u0~sink_real">
      <text x="-3" y="-4" class="inputPortLabel cell_u0">sink_real</text>
    </g>
    <g transform="translate(0,170)" s:x="0" s:y="10" s:pid="in0" id="port_u0~sink_sop">
      <text x="-3" y="-4" class="inputPortLabel cell_u0">sink_sop</text>
    </g>
    <g transform="translate(0,190)" s:x="0" s:y="10" s:pid="in0" id="port_u0~sink_valid">
      <text x="-3" y="-4" class="inputPortLabel cell_u0">sink_valid</text>
    </g>
    <g transform="translate(0,210)" s:x="0" s:y="10" s:pid="in0" id="port_u0~source_ready">
      <text x="-3" y="-4" class="inputPortLabel cell_u0">source_ready</text>
    </g>
    <g transform="translate(30,10)" s:x="30" s:y="10" s:pid="out0" id="port_u0~fftpts_out">
      <text x="5" y="-4" style="fill:#000; stroke:none" class="cell_u0">fftpts_out</text>
    </g>
    <g transform="translate(30,30)" s:x="30" s:y="10" s:pid="out0" id="port_u0~sink_ready">
      <text x="5" y="-4" style="fill:#000; stroke:none" class="cell_u0">sink_ready</text>
    </g>
    <g transform="translate(30,50)" s:x="30" s:y="10" s:pid="out0" id="port_u0~source_eop">
      <text x="5" y="-4" style="fill:#000; stroke:none" class="cell_u0">source_eop</text>
    </g>
    <g transform="translate(30,70)" s:x="30" s:y="10" s:pid="out0" id="port_u0~source_error">
      <text x="5" y="-4" style="fill:#000; stroke:none" class="cell_u0">source_error</text>
    </g>
    <g transform="translate(30,90)" s:x="30" s:y="10" s:pid="out0" id="port_u0~source_imag">
      <text x="5" y="-4" style="fill:#000; stroke:none" class="cell_u0">source_imag</text>
    </g>
    <g transform="translate(30,110)" s:x="30" s:y="10" s:pid="out0" id="port_u0~source_real">
      <text x="5" y="-4" style="fill:#000; stroke:none" class="cell_u0">source_real</text>
    </g>
    <g transform="translate(30,130)" s:x="30" s:y="10" s:pid="out0" id="port_u0~source_sop">
      <text x="5" y="-4" style="fill:#000; stroke:none" class="cell_u0">source_sop</text>
    </g>
    <g transform="translate(30,150)" s:x="30" s:y="10" s:pid="out0" id="port_u0~source_valid">
      <text x="5" y="-4" style="fill:#000; stroke:none" class="cell_u0">source_valid</text>
    </g>
  </g>
  <g s:type="inputExt" transform="translate(83,119.5)" s:width="30" s:height="20" id="cell_sysclk">
    <text x="15" y="-4" class="nodelabel cell_sysclk" s:attribute="ref">sysclk</text>
    <s:alias val="$_inputExt_"/>
    <path d="M0,0 L0,20 L15,20 L30,10 L15,0 Z" class="cell_sysclk"/>
    <g s:x="28" s:y="10" s:pid="Y"/>
  </g>
  <g s:type="inputExt" transform="translate(83,184.5)" s:width="30" s:height="20" id="cell_reset_n">
    <text x="15" y="-4" class="nodelabel cell_reset_n" s:attribute="ref">reset_n</text>
    <s:alias val="$_inputExt_"/>
    <path d="M0,0 L0,20 L15,20 L30,10 L15,0 Z" class="cell_reset_n"/>
    <g s:x="28" s:y="10" s:pid="Y"/>
  </g>
  <g s:type="inputExt" transform="translate(83,607)" s:width="30" s:height="20" id="cell_sink_real">
    <text x="15" y="-4" class="nodelabel cell_sink_real" s:attribute="ref">sink_real</text>
    <s:alias val="$_inputExt_"/>
    <path d="M0,0 L0,20 L15,20 L30,10 L15,0 Z" class="cell_sink_real"/>
    <g s:x="28" s:y="10" s:pid="Y"/>
  </g>
  <g s:type="inputExt" transform="translate(83,727)" s:width="30" s:height="20" id="cell_sink_valid">
    <text x="15" y="-4" class="nodelabel cell_sink_valid" s:attribute="ref">sink_valid</text>
    <s:alias val="$_inputExt_"/>
    <path d="M0,0 L0,20 L15,20 L30,10 L15,0 Z" class="cell_sink_valid"/>
    <g s:x="28" s:y="10" s:pid="Y"/>
  </g>
  <g s:type="outputExt" transform="translate(799,212)" s:width="30" s:height="20" id="cell_sink_ready">
    <text x="15" y="-4" class="nodelabel cell_sink_ready" s:attribute="ref">sink_ready</text>
    <s:alias val="$_outputExt_"/>
    <path d="M30,0 L30,20 L15,20 L0,10 L15,0 Z" class="cell_sink_ready"/>
    <g s:x="0" s:y="10" s:pid="A"/>
  </g>
  <g s:type="outputExt" transform="translate(799,407)" s:width="30" s:height="20" id="cell_source_real">
    <text x="15" y="-4" class="nodelabel cell_source_real" s:attribute="ref">source_real</text>
    <s:alias val="$_outputExt_"/>
    <path d="M30,0 L30,20 L15,20 L0,10 L15,0 Z" class="cell_source_real"/>
    <g s:x="0" s:y="10" s:pid="A"/>
  </g>
  <g s:type="outputExt" transform="translate(799,342)" s:width="30" s:height="20" id="cell_source_imag">
    <text x="15" y="-4" class="nodelabel cell_source_imag" s:attribute="ref">source_imag</text>
    <s:alias val="$_outputExt_"/>
    <path d="M30,0 L30,20 L15,20 L0,10 L15,0 Z" class="cell_source_imag"/>
    <g s:x="0" s:y="10" s:pid="A"/>
  </g>
  <g s:type="outputExt" transform="translate(799,537)" s:width="30" s:height="20" id="cell_source_valid">
    <text x="15" y="-4" class="nodelabel cell_source_valid" s:attribute="ref">source_valid</text>
    <s:alias val="$_outputExt_"/>
    <path d="M30,0 L30,20 L15,20 L0,10 L15,0 Z" class="cell_source_valid"/>
    <g s:x="0" s:y="10" s:pid="A"/>
  </g>
  <g s:type="outputExt" transform="translate(799,277)" s:width="30" s:height="20" id="cell_source_eop">
    <text x="15" y="-4" class="nodelabel cell_source_eop" s:attribute="ref">source_eop</text>
    <s:alias val="$_outputExt_"/>
    <path d="M30,0 L30,20 L15,20 L0,10 L15,0 Z" class="cell_source_eop"/>
    <g s:x="0" s:y="10" s:pid="A"/>
  </g>
  <g s:type="outputExt" transform="translate(799,472)" s:width="30" s:height="20" id="cell_source_sop">
    <text x="15" y="-4" class="nodelabel cell_source_sop" s:attribute="ref">source_sop</text>
    <s:alias val="$_outputExt_"/>
    <path d="M30,0 L30,20 L15,20 L0,10 L15,0 Z" class="cell_source_sop"/>
    <g s:x="0" s:y="10" s:pid="A"/>
  </g>
  <g s:type="constant" transform="translate(83,347)" s:width="30" s:height="20" id="cell_1">
    <text x="15" y="-4" class="nodelabel cell_1" s:attribute="ref">1</text>
    <s:alias val="$_constant_"/>
    <rect width="30" height="20" class="cell_1"/>
    <g s:x="30" s:y="10" s:pid="Y"/>
  </g>
  <g s:type="constant" transform="translate(12,59.5)" s:width="30" s:height="20" id="cell_1111111111111">
    <text x="15" y="-4" class="nodelabel cell_1111111111111" s:attribute="ref">0x1fff</text>
    <s:alias val="$_constant_"/>
    <rect width="30" height="20" class="cell_1111111111111"/>
    <g s:x="30" s:y="10" s:pid="Y"/>
  </g>
  <g s:type="constant" transform="translate(734,32)" s:width="30" s:height="20" id="cell_0000000000000">
    <text x="15" y="-4" class="nodelabel cell_0000000000000" s:attribute="ref">0x0</text>
    <s:alias val="$_constant_"/>
    <rect width="30" height="20" class="cell_0000000000000"/>
    <g s:x="30" s:y="10" s:pid="Y"/>
  </g>
  <g s:type="constant" transform="translate(83,282)" s:width="30" s:height="20" id="cell_10000000000000">
    <text x="15" y="-4" class="nodelabel cell_10000000000000" s:attribute="ref">0x2000</text>
    <s:alias val="$_constant_"/>
    <rect width="30" height="20" class="cell_10000000000000"/>
    <g s:x="30" s:y="10" s:pid="Y"/>
  </g>
  <g s:type="constant" transform="translate(83,412)" s:width="30" s:height="20" id="cell_0">
    <text x="15" y="-4" class="nodelabel cell_0" s:attribute="ref">0</text>
    <s:alias val="$_constant_"/>
    <rect width="30" height="20" class="cell_0"/>
    <g s:x="30" s:y="10" s:pid="Y"/>
  </g>
  <g s:type="constant" transform="translate(83,477)" s:width="30" s:height="20" id="cell_00">
    <text x="15" y="-4" class="nodelabel cell_00" s:attribute="ref">00</text>
    <s:alias val="$_constant_"/>
    <rect width="30" height="20" class="cell_00"/>
    <g s:x="30" s:y="10" s:pid="Y"/>
  </g>
  <g s:type="constant" transform="translate(83,542)" s:width="30" s:height="20" id="cell_000000000000000000000000">
    <text x="15" y="-4" class="nodelabel cell_000000000000000000000000" s:attribute="ref">0x0</text>
    <s:alias val="$_constant_"/>
    <rect width="30" height="20" class="cell_000000000000000000000000"/>
    <g s:x="30" s:y="10" s:pid="Y"/>
  </g>
  <line x1="586" x2="738.6666666666666" y1="109.5" y2="109.5" class="net_81,82,83,84,85,86,87,88,89,90,91,92,93"/>
  <line x1="586" x2="709" y1="109.5" y2="109.5" class="net_81,82,83,84,85,86,87,88,89,90,91,92,93"/>
  <line x1="709" x2="709" y1="109.5" y2="39.5" class="net_81,82,83,84,85,86,87,88,89,90,91,92,93"/>
  <line x1="709" x2="58" y1="39.5" y2="39.5" class="net_81,82,83,84,85,86,87,88,89,90,91,92,93"/>
  <line x1="58" x2="58" y1="39.5" y2="672" class="net_81,82,83,84,85,86,87,88,89,90,91,92,93"/>
  <line x1="58" x2="83" y1="672" y2="672" class="net_81,82,83,84,85,86,87,88,89,90,91,92,93"/>
  <line x1="586" x2="709" y1="109.5" y2="109.5" class="net_81,82,83,84,85,86,87,88,89,90,91,92,93"/>
  <line x1="709" x2="709" y1="109.5" y2="39.5" class="net_81,82,83,84,85,86,87,88,89,90,91,92,93"/>
  <line x1="709" x2="58" y1="39.5" y2="39.5" class="net_81,82,83,84,85,86,87,88,89,90,91,92,93"/>
  <line x1="58" x2="58" y1="39.5" y2="54.5" class="net_81,82,83,84,85,86,87,88,89,90,91,92,93"/>
  <circle cx="58" cy="54.5" r="2" style="fill:#000" class="net_81,82,83,84,85,86,87,88,89,90,91,92,93"/>
  <circle cx="709" cy="109.5" r="2" style="fill:#000" class="net_81,82,83,84,85,86,87,88,89,90,91,92,93"/>
  <line x1="58" x2="99.33333333333333" y1="54.5" y2="54.5" class="net_81,82,83,84,85,86,87,88,89,90,91,92,93"/>
  <line x1="113" x2="163" y1="357" y2="357" class="net_139"/>
  <line x1="163" x2="163" y1="357" y2="205.5" class="net_139"/>
  <line x1="163" x2="709" y1="205.5" y2="205.5" class="net_139"/>
  <line x1="709" x2="709" y1="205.5" y2="124.5" class="net_139"/>
  <circle cx="163" cy="357" r="2" style="fill:#000" class="net_139"/>
  <line x1="709" x2="738.6666666666666" y1="124.5" y2="124.5" class="net_139"/>
  <line x1="113" x2="163" y1="357" y2="357" class="net_139"/>
  <line x1="163" x2="163" y1="357" y2="472" class="net_139"/>
  <line x1="163" x2="306" y1="472" y2="472" class="net_139"/>
  <line x1="111" x2="500" y1="194.5" y2="194.5" class="net_3"/>
  <line x1="500" x2="500" y1="194.5" y2="109.5" class="net_3"/>
  <line x1="500" x2="555" y1="109.5" y2="109.5" class="net_3"/>
  <line x1="111" x2="183" y1="194.5" y2="194.5" class="net_3"/>
  <line x1="183" x2="183" y1="194.5" y2="332" class="net_3"/>
  <circle cx="183" cy="194.5" r="2" style="fill:#000" class="net_3"/>
  <line x1="183" x2="306" y1="332" y2="332" class="net_3"/>
  <line x1="111" x2="555" y1="129.5" y2="129.5" class="net_2"/>
  <line x1="111" x2="193" y1="129.5" y2="129.5" class="net_2"/>
  <line x1="193" x2="193" y1="129.5" y2="272" class="net_2"/>
  <circle cx="193" cy="129.5" r="2" style="fill:#000" class="net_2"/>
  <line x1="193" x2="306" y1="272" y2="272" class="net_2"/>
  <line x1="819" x2="881" y1="32" y2="32" class="net_107,108,109,110,111,112,113,114,115,116,117,118,119"/>
  <line x1="881" x2="881" y1="32" y2="192" class="net_107,108,109,110,111,112,113,114,115,116,117,118,119"/>
  <line x1="881" x2="510" y1="192" y2="192" class="net_107,108,109,110,111,112,113,114,115,116,117,118,119"/>
  <line x1="510" x2="510" y1="192" y2="149.5" class="net_107,108,109,110,111,112,113,114,115,116,117,118,119"/>
  <line x1="510" x2="555" y1="149.5" y2="149.5" class="net_107,108,109,110,111,112,113,114,115,116,117,118,119"/>
  <line x1="490" x2="520" y1="245.5" y2="245.5" class="net_120"/>
  <line x1="520" x2="520" y1="245.5" y2="169.5" class="net_120"/>
  <line x1="520" x2="555" y1="169.5" y2="169.5" class="net_120"/>
  <line x1="42" x2="99.33333333333333" y1="69.5" y2="69.5" class="net_140,141,142,143,144,145,146,147,148,149,150,151,152"/>
  <line x1="111" x2="440" y1="737" y2="737" class="net_28"/>
  <line x1="440" x2="440" y1="737" y2="238" class="net_28"/>
  <line x1="440" x2="460" y1="238" y2="238" class="net_28"/>
  <line x1="111" x2="223" y1="737" y2="737" class="net_28"/>
  <line x1="223" x2="223" y1="737" y2="452" class="net_28"/>
  <circle cx="223" cy="737" r="2" style="fill:#000" class="net_28"/>
  <line x1="223" x2="306" y1="452" y2="452" class="net_28"/>
  <line x1="337" x2="420" y1="292" y2="292" class="net_29"/>
  <line x1="420" x2="420" y1="292" y2="253" class="net_29"/>
  <circle cx="420" cy="253" r="2" style="fill:#000" class="net_29"/>
  <line x1="420" x2="460" y1="253" y2="253" class="net_29"/>
  <line x1="337" x2="420" y1="292" y2="292" class="net_29"/>
  <line x1="420" x2="420" y1="292" y2="222" class="net_29"/>
  <line x1="420" x2="799" y1="222" y2="222" class="net_29"/>
  <line x1="760.6666666666666" x2="774" y1="117" y2="117" class="net_94,95,96,97,98,99,100,101,102,103,104,105,106"/>
  <line x1="774" x2="774" y1="117" y2="22" class="net_94,95,96,97,98,99,100,101,102,103,104,105,106"/>
  <line x1="774" x2="799" y1="22" y2="22" class="net_94,95,96,97,98,99,100,101,102,103,104,105,106"/>
  <line x1="764" x2="799" y1="42" y2="42" class="net_153,154,155,156,157,158,159,160,161,162,163,164,165"/>
  <line x1="121.33333333333333" x2="809" y1="62" y2="62" class="net_122"/>
  <line x1="809" x2="809" y1="62" y2="47" class="net_122"/>
  <line x1="121.33333333333333" x2="153" y1="62" y2="62" class="net_122"/>
  <line x1="153" x2="153" y1="62" y2="352" class="net_122"/>
  <circle cx="153" cy="62" r="2" style="fill:#000" class="net_122"/>
  <line x1="153" x2="306" y1="352" y2="352" class="net_122"/>
  <line x1="113" x2="306" y1="292" y2="292" class="net_166,167,168,169,170,171,172,173,174,175,176,177,178,179"/>
  <line x1="113" x2="173" y1="422" y2="422" class="net_180"/>
  <line x1="173" x2="173" y1="422" y2="312" class="net_180"/>
  <line x1="173" x2="306" y1="312" y2="312" class="net_180"/>
  <line x1="113" x2="183" y1="487" y2="487" class="net_181,182"/>
  <line x1="183" x2="183" y1="487" y2="372" class="net_181,182"/>
  <line x1="183" x2="306" y1="372" y2="372" class="net_181,182"/>
  <line x1="113" x2="193" y1="552" y2="552" class="net_183,184,185,186,187,188,189,190,191,192,193,194,195,196,197,198,199,200,201,202,203,204,205,206"/>
  <line x1="193" x2="193" y1="552" y2="392" class="net_183,184,185,186,187,188,189,190,191,192,193,194,195,196,197,198,199,200,201,202,203,204,205,206"/>
  <line x1="193" x2="306" y1="392" y2="392" class="net_183,184,185,186,187,188,189,190,191,192,193,194,195,196,197,198,199,200,201,202,203,204,205,206"/>
  <line x1="111" x2="203" y1="617" y2="617" class="net_4,5,6,7,8,9,10,11,12,13,14,15,16,17,18,19,20,21,22,23,24,25,26,27"/>
  <line x1="203" x2="203" y1="617" y2="412" class="net_4,5,6,7,8,9,10,11,12,13,14,15,16,17,18,19,20,21,22,23,24,25,26,27"/>
  <line x1="203" x2="306" y1="412" y2="412" class="net_4,5,6,7,8,9,10,11,12,13,14,15,16,17,18,19,20,21,22,23,24,25,26,27"/>
  <line x1="108" x2="213" y1="672" y2="672" class="net_121"/>
  <line x1="213" x2="213" y1="672" y2="432" class="net_121"/>
  <line x1="213" x2="306" y1="432" y2="432" class="net_121"/>
  <line x1="337" x2="450" y1="372" y2="372" class="net_30,31,32,33,34,35,36,37,38,39,40,41,42,43,44,45,46,47,48,49,50,51,52,53"/>
  <line x1="450" x2="450" y1="372" y2="417" class="net_30,31,32,33,34,35,36,37,38,39,40,41,42,43,44,45,46,47,48,49,50,51,52,53"/>
  <line x1="450" x2="799" y1="417" y2="417" class="net_30,31,32,33,34,35,36,37,38,39,40,41,42,43,44,45,46,47,48,49,50,51,52,53"/>
  <line x1="337" x2="799" y1="352" y2="352" class="net_54,55,56,57,58,59,60,61,62,63,64,65,66,67,68,69,70,71,72,73,74,75,76,77"/>
  <line x1="337" x2="420" y1="412" y2="412" class="net_78"/>
  <line x1="420" x2="420" y1="412" y2="547" class="net_78"/>
  <line x1="420" x2="799" y1="547" y2="547" class="net_78"/>
  <line x1="337" x2="450" y1="312" y2="312" class="net_79"/>
  <line x1="450" x2="450" y1="312" y2="287" class="net_79"/>
  <line x1="450" x2="799" y1="287" y2="287" class="net_79"/>
  <line x1="337" x2="430" y1="392" y2="392" class="net_80"/>
  <line x1="430" x2="430" y1="392" y2="482" class="net_80"/>
  <line x1="430" x2="799" y1="482" y2="482" class="net_80"/>
</svg>
