<svg xmlns="http://www.w3.org/2000/svg" xmlns:xlink="http://www.w3.org/1999/xlink" xmlns:s="https://github.com/nturley/netlistsvg" width="480" height="483.5">
  <style>svg {
    stroke:#000;
    fill:none;
  }
  text {
    fill:#000;
    stroke:none;
    font-size:10px;
    font-weight: bold;
    font-family: "Courier New", monospace;
  }
  .nodelabel {
    text-anchor: middle;
  }
  .inputPortLabel {
    text-anchor: end;
  }
  .splitjoinBody {
    fill:#000;
  }</style>
  <g s:type="and" transform="translate(307,207)" s:width="30" s:height="25" id="cell_$and$src/hardware/room_eq_peripheral/calibration_engine/sample_fifo.sv:61$3">
    <s:alias val="$and"/>
    <s:alias val="$logic_and"/>
    <s:alias val="$_AND_"/>
    <path d="M0,0 L0,25 L15,25 A15 12.5 0 0 0 15,0 Z" class="cell_$and$src/hardware/room_eq_peripheral/calibration_engine/sample_fifo.sv:61$3"/>
    <g s:x="0" s:y="5" s:pid="A"/>
    <g s:x="0" s:y="20" s:pid="B"/>
    <g s:x="30" s:y="12.5" s:pid="Y"/>
  </g>
  <g s:type="and" transform="translate(388,357)" s:width="30" s:height="25" id="cell_$and$src/hardware/room_eq_peripheral/calibration_engine/sample_fifo.sv:62$5">
    <s:alias val="$and"/>
    <s:alias val="$logic_and"/>
    <s:alias val="$_AND_"/>
    <path d="M0,0 L0,25 L15,25 A15 12.5 0 0 0 15,0 Z" class="cell_$and$src/hardware/room_eq_peripheral/calibration_engine/sample_fifo.sv:62$5"/>
    <g s:x="0" s:y="5" s:pid="A"/>
    <g s:x="0" s:y="20" s:pid="B"/>
    <g s:x="30" s:y="12.5" s:pid="Y"/>
  </g>
  <g s:type="and" transform="translate(388,142)" s:width="30" s:height="25" id="cell_$and$src/hardware/room_eq_peripheral/calibration_engine/sample_fifo.sv:67$7">
    <s:alias val="$and"/>
    <s:alias val="$logic_and"/>
    <s:alias val="$_AND_"/>
    <path d="M0,0 L0,25 L15,25 A15 12.5 0 0 0 15,0 Z" class="cell_$and$src/hardware/room_eq_peripheral/calibration_engine/sample_fifo.sv:67$7"/>
    <g s:x="0" s:y="5" s:pid="A"/>
    <g s:x="0" s:y="20" s:pid="B"/>
    <g s:x="30" s:y="12.5" s:pid="Y"/>
  </g>
  <g s:type="not" transform="translate(177.5,217)" s:width="30" s:height="20" id="cell_$not$src/hardware/room_eq_peripheral/calibration_engine/sample_fifo.sv:61$2">
    <s:alias val="$_NOT_"/>
    <s:alias val="$not"/>
    <s:alias val="$logic_not"/>
    <path d="M0,0 L0,20 L20,10 Z" class="cell_$not$src/hardware/room_eq_peripheral/calibration_engine/sample_fifo.sv:61$2"/>
    <circle cx="23" cy="10" r="3" class="cell_$not$src/hardware/room_eq_peripheral/calibration_engine/sample_fifo.sv:61$2"/>
    <g s:x="0" s:y="10" s:pid="A"/>
    <g s:x="25" s:y="10" s:pid="Y"/>
  </g>
  <g s:type="not" transform="translate(311,367)" s:width="30" s:height="20" id="cell_$not$src/hardware/room_eq_peripheral/calibration_engine/sample_fifo.sv:62$4">
    <s:alias val="$_NOT_"/>
    <s:alias val="$not"/>
    <s:alias val="$logic_not"/>
    <path d="M0,0 L0,20 L20,10 Z" class="cell_$not$src/hardware/room_eq_peripheral/calibration_engine/sample_fifo.sv:62$4"/>
    <circle cx="23" cy="10" r="3" class="cell_$not$src/hardware/room_eq_peripheral/calibration_engine/sample_fifo.sv:62$4"/>
    <g s:x="0" s:y="10" s:pid="A"/>
    <g s:x="25" s:y="10" s:pid="Y"/>
  </g>
  <g s:type="not" transform="translate(311,87)" s:width="30" s:height="20" id="cell_$not$src/hardware/room_eq_peripheral/calibration_engine/sample_fifo.sv:66$6">
    <s:alias val="$_NOT_"/>
    <s:alias val="$not"/>
    <s:alias val="$logic_not"/>
    <path d="M0,0 L0,20 L20,10 Z" class="cell_$not$src/hardware/room_eq_peripheral/calibration_engine/sample_fifo.sv:66$6"/>
    <circle cx="23" cy="10" r="3" class="cell_$not$src/hardware/room_eq_peripheral/calibration_engine/sample_fifo.sv:66$6"/>
    <g s:x="0" s:y="10" s:pid="A"/>
    <g s:x="25" s:y="10" s:pid="Y"/>
  </g>
  <g s:type="generic" transform="translate(167.25,119)" s:width="30" s:height="40" id="cell_$procdff$10">
    <text x="15" y="-4" class="nodelabel cell_$procdff$10" s:attribute="ref">$adff</text>
    <rect width="30" height="60" s:generic="body" class="cell_$procdff$10"/>
    <g transform="translate(0,10)" s:x="0" s:y="10" s:pid="in0" id="port_$procdff$10~ARST">
      <text x="-3" y="-4" class="inputPortLabel cell_$procdff$10">ARST</text>
    </g>
    <g transform="translate(0,30)" s:x="0" s:y="10" s:pid="in0" id="port_$procdff$10~CLK">
      <text x="-3" y="-4" class="inputPortLabel cell_$procdff$10">CLK</text>
    </g>
    <g transform="translate(0,50)" s:x="0" s:y="10" s:pid="in0" id="port_$procdff$10~D">
      <text x="-3" y="-4" class="inputPortLabel cell_$procdff$10">D</text>
    </g>
    <g transform="translate(30,10)" s:x="30" s:y="10" s:pid="out0" id="port_$procdff$10~Q">
      <text x="5" y="-4" style="fill:#000; stroke:none" class="cell_$procdff$10">Q</text>
    </g>
  </g>
  <g s:type="generic" transform="translate(157,326.5)" s:width="30" s:height="40" id="cell_capture_fifo_inst">
    <text x="15" y="-4" class="nodelabel cell_capture_fifo_inst" s:attribute="ref">capture_fifo</text>
    <rect width="30" height="120" s:generic="body" class="cell_capture_fifo_inst"/>
    <g transform="translate(0,10)" s:x="0" s:y="10" s:pid="in0" id="port_capture_fifo_inst~aclr">
      <text x="-3" y="-4" class="inputPortLabel cell_capture_fifo_inst">aclr</text>
    </g>
    <g transform="translate(0,30)" s:x="0" s:y="10" s:pid="in0" id="port_capture_fifo_inst~data">
      <text x="-3" y="-4" class="inputPortLabel cell_capture_fifo_inst">data</text>
    </g>
    <g transform="translate(0,50)" s:x="0" s:y="10" s:pid="in0" id="port_capture_fifo_inst~rdclk">
      <text x="-3" y="-4" class="inputPortLabel cell_capture_fifo_inst">rdclk</text>
    </g>
    <g transform="translate(0,70)" s:x="0" s:y="10" s:pid="in0" id="port_capture_fifo_inst~rdreq">
      <text x="-3" y="-4" class="inputPortLabel cell_capture_fifo_inst">rdreq</text>
    </g>
    <g transform="translate(0,90)" s:x="0" s:y="10" s:pid="in0" id="port_capture_fifo_inst~wrclk">
      <text x="-3" y="-4" class="inputPortLabel cell_capture_fifo_inst">wrclk</text>
    </g>
    <g transform="translate(0,110)" s:x="0" s:y="10" s:pid="in0" id="port_capture_fifo_inst~wrreq">
      <text x="-3" y="-4" class="inputPortLabel cell_capture_fifo_inst">wrreq</text>
    </g>
    <g transform="translate(30,10)" s:x="30" s:y="10" s:pid="out0" id="port_capture_fifo_inst~q">
      <text x="5" y="-4" style="fill:#000; stroke:none" class="cell_capture_fifo_inst">q</text>
    </g>
    <g transform="translate(30,30)" s:x="30" s:y="10" s:pid="out0" id="port_capture_fifo_inst~rdempty">
      <text x="5" y="-4" style="fill:#000; stroke:none" class="cell_capture_fifo_inst">rdempty</text>
    </g>
    <g transform="translate(30,50)" s:x="30" s:y="10" s:pid="out0" id="port_capture_fifo_inst~wrfull">
      <text x="5" y="-4" style="fill:#000; stroke:none" class="cell_capture_fifo_inst">wrfull</text>
    </g>
  </g>
  <g s:type="inputExt" transform="translate(12,282)" s:width="30" s:height="20" id="cell_bclk">
    <text x="15" y="-4" class="nodelabel cell_bclk" s:attribute="ref">bclk</text>
    <s:alias val="$_inputExt_"/>
    <path d="M0,0 L0,20 L15,20 L30,10 L15,0 Z" class="cell_bclk"/>
    <g s:x="28" s:y="10" s:pid="Y"/>
  </g>
  <g s:type="inputExt" transform="translate(12,217)" s:width="30" s:height="20" id="cell_lrclk">
    <text x="15" y="-4" class="nodelabel cell_lrclk" s:attribute="ref">lrclk</text>
    <s:alias val="$_inputExt_"/>
    <path d="M0,0 L0,20 L15,20 L30,10 L15,0 Z" class="cell_lrclk"/>
    <g s:x="28" s:y="10" s:pid="Y"/>
  </g>
  <g s:type="inputExt" transform="translate(12,347)" s:width="30" s:height="20" id="cell_left_chan">
    <text x="15" y="-4" class="nodelabel cell_left_chan" s:attribute="ref">left_chan</text>
    <s:alias val="$_inputExt_"/>
    <path d="M0,0 L0,20 L15,20 L30,10 L15,0 Z" class="cell_left_chan"/>
    <g s:x="28" s:y="10" s:pid="Y"/>
  </g>
  <g s:type="inputExt" transform="translate(12,412)" s:width="30" s:height="20" id="cell_sysclk">
    <text x="15" y="-4" class="nodelabel cell_sysclk" s:attribute="ref">sysclk</text>
    <s:alias val="$_inputExt_"/>
    <path d="M0,0 L0,20 L15,20 L30,10 L15,0 Z" class="cell_sysclk"/>
    <g s:x="28" s:y="10" s:pid="Y"/>
  </g>
  <g s:type="inputExt" transform="translate(12,152)" s:width="30" s:height="20" id="cell_aclr">
    <text x="15" y="-4" class="nodelabel cell_aclr" s:attribute="ref">aclr</text>
    <s:alias val="$_inputExt_"/>
    <path d="M0,0 L0,20 L15,20 L30,10 L15,0 Z" class="cell_aclr"/>
    <g s:x="28" s:y="10" s:pid="Y"/>
  </g>
  <g s:type="outputExt" transform="translate(388,22)" s:width="30" s:height="20" id="cell_data_out">
    <text x="15" y="-4" class="nodelabel cell_data_out" s:attribute="ref">data_out</text>
    <s:alias val="$_outputExt_"/>
    <path d="M30,0 L30,20 L15,20 L0,10 L15,0 Z" class="cell_data_out"/>
    <g s:x="0" s:y="10" s:pid="A"/>
  </g>
  <g s:type="outputExt" transform="translate(388,87)" s:width="30" s:height="20" id="cell_data_valid">
    <text x="15" y="-4" class="nodelabel cell_data_valid" s:attribute="ref">data_valid</text>
    <s:alias val="$_outputExt_"/>
    <path d="M30,0 L30,20 L15,20 L0,10 L15,0 Z" class="cell_data_valid"/>
    <g s:x="0" s:y="10" s:pid="A"/>
  </g>
  <g s:type="inputExt" transform="translate(299,152)" s:width="30" s:height="20" id="cell_fft_ready">
    <text x="15" y="-4" class="nodelabel cell_fft_ready" s:attribute="ref">fft_ready</text>
    <s:alias val="$_inputExt_"/>
    <path d="M0,0 L0,20 L15,20 L30,10 L15,0 Z" class="cell_fft_ready"/>
    <g s:x="28" s:y="10" s:pid="Y"/>
  </g>
  <line x1="198.25" x2="289" y1="129.5" y2="129.5" class="net_56"/>
  <line x1="289" x2="289" y1="129.5" y2="212" class="net_56"/>
  <line x1="289" x2="307" y1="212" y2="212" class="net_56"/>
  <line x1="202.5" x2="307" y1="227" y2="227" class="net_57"/>
  <line x1="337" x2="363" y1="219.5" y2="219.5" class="net_58"/>
  <line x1="363" x2="363" y1="219.5" y2="362" class="net_58"/>
  <line x1="363" x2="388" y1="362" y2="362" class="net_58"/>
  <line x1="336" x2="388" y1="377" y2="377" class="net_59"/>
  <line x1="336" x2="363" y1="97" y2="97" class="net_54"/>
  <line x1="363" x2="363" y1="97" y2="147" class="net_54"/>
  <circle cx="363" cy="97" r="2" style="fill:#000" class="net_54"/>
  <line x1="363" x2="388" y1="147" y2="147" class="net_54"/>
  <line x1="336" x2="388" y1="97" y2="97" class="net_54"/>
  <line x1="327" x2="388" y1="162" y2="162" class="net_55"/>
  <line x1="40" x2="177.5" y1="227" y2="227" class="net_3"/>
  <line x1="40" x2="96" y1="227" y2="227" class="net_3"/>
  <line x1="96" x2="96" y1="227" y2="169.5" class="net_3"/>
  <circle cx="96" cy="227" r="2" style="fill:#000" class="net_3"/>
  <line x1="96" x2="167.25" y1="169.5" y2="169.5" class="net_3"/>
  <line x1="188" x2="311" y1="377" y2="377" class="net_62"/>
  <line x1="188" x2="279" y1="357" y2="357" class="net_63"/>
  <line x1="279" x2="279" y1="357" y2="97" class="net_63"/>
  <line x1="279" x2="311" y1="97" y2="97" class="net_63"/>
  <line x1="40" x2="76" y1="162" y2="162" class="net_29"/>
  <line x1="76" x2="76" y1="162" y2="129.5" class="net_29"/>
  <circle cx="76" cy="162" r="2" style="fill:#000" class="net_29"/>
  <line x1="76" x2="167.25" y1="129.5" y2="129.5" class="net_29"/>
  <line x1="40" x2="76" y1="162" y2="162" class="net_29"/>
  <line x1="76" x2="76" y1="162" y2="337" class="net_29"/>
  <line x1="76" x2="157" y1="337" y2="337" class="net_29"/>
  <line x1="40" x2="86" y1="292" y2="292" class="net_2"/>
  <line x1="86" x2="86" y1="292" y2="149.5" class="net_2"/>
  <circle cx="86" cy="292" r="2" style="fill:#000" class="net_2"/>
  <line x1="86" x2="167.25" y1="149.5" y2="149.5" class="net_2"/>
  <line x1="40" x2="86" y1="292" y2="292" class="net_2"/>
  <line x1="86" x2="86" y1="292" y2="417" class="net_2"/>
  <line x1="86" x2="157" y1="417" y2="417" class="net_2"/>
  <line x1="40" x2="157" y1="357" y2="357" class="net_4,5,6,7,8,9,10,11,12,13,14,15,16,17,18,19,20,21,22,23,24,25,26,27"/>
  <line x1="40" x2="96" y1="422" y2="422" class="net_28"/>
  <line x1="96" x2="96" y1="422" y2="377" class="net_28"/>
  <line x1="96" x2="157" y1="377" y2="377" class="net_28"/>
  <line x1="418" x2="468" y1="154.5" y2="154.5" class="net_61"/>
  <line x1="468" x2="468" y1="154.5" y2="459.5" class="net_61"/>
  <line x1="468" x2="106" y1="459.5" y2="459.5" class="net_61"/>
  <line x1="106" x2="106" y1="459.5" y2="397" class="net_61"/>
  <line x1="106" x2="157" y1="397" y2="397" class="net_61"/>
  <line x1="418" x2="458" y1="369.5" y2="369.5" class="net_60"/>
  <line x1="458" x2="458" y1="369.5" y2="470.5" class="net_60"/>
  <line x1="458" x2="116" y1="470.5" y2="470.5" class="net_60"/>
  <line x1="116" x2="116" y1="470.5" y2="437" class="net_60"/>
  <line x1="116" x2="157" y1="437" y2="437" class="net_60"/>
  <line x1="188" x2="269" y1="337" y2="337" class="net_30,31,32,33,34,35,36,37,38,39,40,41,42,43,44,45,46,47,48,49,50,51,52,53"/>
  <line x1="269" x2="269" y1="337" y2="32" class="net_30,31,32,33,34,35,36,37,38,39,40,41,42,43,44,45,46,47,48,49,50,51,52,53"/>
  <line x1="269" x2="388" y1="32" y2="32" class="net_30,31,32,33,34,35,36,37,38,39,40,41,42,43,44,45,46,47,48,49,50,51,52,53"/>
</svg>
