<svg xmlns="http://www.w3.org/2000/svg" xmlns:xlink="http://www.w3.org/1999/xlink" xmlns:s="https://github.com/nturley/netlistsvg" width="448" height="644.5">
  <style>svg {
    stroke:#000;
    fill:none;
  }
  text {
    fill:#000;
    stroke:none;
    font-size:10px;
    font-weight: bold;
    font-family: "Courier New", monospace;
  }
  .nodelabel {
    text-anchor: middle;
  }
  .inputPortLabel {
    text-anchor: end;
  }
  .splitjoinBody {
    fill:#000;
  }</style>
  <g s:type="mux" transform="translate(137.33333333333331,547.5)" s:width="20" s:height="40" id="cell_$procmux$12">
    <s:alias val="$pmux"/>
    <s:alias val="$mux"/>
    <s:alias val="$_MUX_"/>
    <path d="M0,0 L20,10 L20,30 L0,40 Z" class="cell_$procmux$12"/>
    <g s:x="0" s:y="10" s:pid="A"/>
    <g s:x="0" s:y="30" s:pid="B"/>
    <g s:x="10" s:y="35" s:pid="S"/>
    <g s:x="20" s:y="20" s:pid="Y"/>
  </g>
  <g s:type="mux" transform="translate(140,397.5)" s:width="20" s:height="40" id="cell_$procmux$15">
    <s:alias val="$pmux"/>
    <s:alias val="$mux"/>
    <s:alias val="$_MUX_"/>
    <path d="M0,0 L20,10 L20,30 L0,40 Z" class="cell_$procmux$15"/>
    <g s:x="0" s:y="10" s:pid="A"/>
    <g s:x="0" s:y="30" s:pid="B"/>
    <g s:x="10" s:y="35" s:pid="S"/>
    <g s:x="20" s:y="20" s:pid="Y"/>
  </g>
  <g s:type="mux" transform="translate(140,272.5)" s:width="20" s:height="40" id="cell_$procmux$18">
    <s:alias val="$pmux"/>
    <s:alias val="$mux"/>
    <s:alias val="$_MUX_"/>
    <path d="M0,0 L20,10 L20,30 L0,40 Z" class="cell_$procmux$18"/>
    <g s:x="0" s:y="10" s:pid="A"/>
    <g s:x="0" s:y="30" s:pid="B"/>
    <g s:x="10" s:y="35" s:pid="S"/>
    <g s:x="20" s:y="20" s:pid="Y"/>
  </g>
  <g s:type="generic" transform="translate(291,22)" s:width="30" s:height="40" id="cell_mem">
    <text x="15" y="-4" class="nodelabel cell_mem" s:attribute="ref">$mem_v2</text>
    <rect width="30" height="180" s:generic="body" class="cell_mem"/>
    <g transform="translate(0,10)" s:x="0" s:y="10" s:pid="in0" id="port_mem~RD_ADDR">
      <text x="-3" y="-4" class="inputPortLabel cell_mem">RD_ADDR</text>
    </g>
    <g transform="translate(0,30)" s:x="0" s:y="10" s:pid="in0" id="port_mem~RD_ARST">
      <text x="-3" y="-4" class="inputPortLabel cell_mem">RD_ARST</text>
    </g>
    <g transform="translate(0,50)" s:x="0" s:y="10" s:pid="in0" id="port_mem~RD_CLK">
      <text x="-3" y="-4" class="inputPortLabel cell_mem">RD_CLK</text>
    </g>
    <g transform="translate(0,70)" s:x="0" s:y="10" s:pid="in0" id="port_mem~RD_EN">
      <text x="-3" y="-4" class="inputPortLabel cell_mem">RD_EN</text>
    </g>
    <g transform="translate(0,90)" s:x="0" s:y="10" s:pid="in0" id="port_mem~RD_SRST">
      <text x="-3" y="-4" class="inputPortLabel cell_mem">RD_SRST</text>
    </g>
    <g transform="translate(0,110)" s:x="0" s:y="10" s:pid="in0" id="port_mem~WR_ADDR">
      <text x="-3" y="-4" class="inputPortLabel cell_mem">WR_ADDR</text>
    </g>
    <g transform="translate(0,130)" s:x="0" s:y="10" s:pid="in0" id="port_mem~WR_CLK">
      <text x="-3" y="-4" class="inputPortLabel cell_mem">WR_CLK</text>
    </g>
    <g transform="translate(0,150)" s:x="0" s:y="10" s:pid="in0" id="port_mem~WR_DATA">
      <text x="-3" y="-4" class="inputPortLabel cell_mem">WR_DATA</text>
    </g>
    <g transform="translate(0,170)" s:x="0" s:y="10" s:pid="in0" id="port_mem~WR_EN">
      <text x="-3" y="-4" class="inputPortLabel cell_mem">WR_EN</text>
    </g>
    <g transform="translate(30,10)" s:x="30" s:y="10" s:pid="out0" id="port_mem~RD_DATA">
      <text x="5" y="-4" style="fill:#000; stroke:none" class="cell_mem">RD_DATA</text>
    </g>
  </g>
  <g s:type="inputExt" transform="translate(132,342.5)" s:width="30" s:height="20" id="cell_clk_a">
    <text x="15" y="-4" class="nodelabel cell_clk_a" s:attribute="ref">clk_a</text>
    <s:alias val="$_inputExt_"/>
    <path d="M0,0 L0,20 L15,20 L30,10 L15,0 Z" class="cell_clk_a"/>
    <g s:x="28" s:y="10" s:pid="Y"/>
  </g>
  <g s:type="inputExt" transform="translate(49,482.5)" s:width="30" s:height="20" id="cell_we_a">
    <text x="15" y="-4" class="nodelabel cell_we_a" s:attribute="ref">we_a</text>
    <s:alias val="$_inputExt_"/>
    <path d="M0,0 L0,20 L15,20 L30,10 L15,0 Z" class="cell_we_a"/>
    <g s:x="28" s:y="10" s:pid="Y"/>
  </g>
  <g s:type="inputExt" transform="translate(49,292.5)" s:width="30" s:height="20" id="cell_addr_a">
    <text x="15" y="-4" class="nodelabel cell_addr_a" s:attribute="ref">addr_a</text>
    <s:alias val="$_inputExt_"/>
    <path d="M0,0 L0,20 L15,20 L30,10 L15,0 Z" class="cell_addr_a"/>
    <g s:x="28" s:y="10" s:pid="Y"/>
  </g>
  <g s:type="inputExt" transform="translate(49,417.5)" s:width="30" s:height="20" id="cell_din_a">
    <text x="15" y="-4" class="nodelabel cell_din_a" s:attribute="ref">din_a</text>
    <s:alias val="$_inputExt_"/>
    <path d="M0,0 L0,20 L15,20 L30,10 L15,0 Z" class="cell_din_a"/>
    <g s:x="28" s:y="10" s:pid="Y"/>
  </g>
  <g s:type="inputExt" transform="translate(132,87.5)" s:width="30" s:height="20" id="cell_clk_b">
    <text x="15" y="-4" class="nodelabel cell_clk_b" s:attribute="ref">clk_b</text>
    <s:alias val="$_inputExt_"/>
    <path d="M0,0 L0,20 L15,20 L30,10 L15,0 Z" class="cell_clk_b"/>
    <g s:x="28" s:y="10" s:pid="Y"/>
  </g>
  <g s:type="inputExt" transform="translate(132,22.5)" s:width="30" s:height="20" id="cell_addr_b">
    <text x="15" y="-4" class="nodelabel cell_addr_b" s:attribute="ref">addr_b</text>
    <s:alias val="$_inputExt_"/>
    <path d="M0,0 L0,20 L15,20 L30,10 L15,0 Z" class="cell_addr_b"/>
    <g s:x="28" s:y="10" s:pid="Y"/>
  </g>
  <g s:type="outputExt" transform="translate(400,22.5)" s:width="30" s:height="20" id="cell_dout_b">
    <text x="15" y="-4" class="nodelabel cell_dout_b" s:attribute="ref">dout_b</text>
    <s:alias val="$_outputExt_"/>
    <path d="M30,0 L30,20 L15,20 L0,10 L15,0 Z" class="cell_dout_b"/>
    <g s:x="0" s:y="10" s:pid="A"/>
  </g>
  <g s:type="constant" transform="translate(49,547.5)" s:width="30" s:height="20" id="cell_000000000000000000000000">
    <text x="15" y="-4" class="nodelabel cell_000000000000000000000000" s:attribute="ref">0x0</text>
    <s:alias val="$_constant_"/>
    <rect width="30" height="20" class="cell_000000000000000000000000"/>
    <g s:x="30" s:y="10" s:pid="Y"/>
  </g>
  <g s:type="constant" transform="translate(49,612.5)" s:width="30" s:height="20" id="cell_111111111111111111111111">
    <text x="15" y="-4" class="nodelabel cell_111111111111111111111111" s:attribute="ref">0xffffff</text>
    <s:alias val="$_constant_"/>
    <rect width="30" height="20" class="cell_111111111111111111111111"/>
    <g s:x="30" s:y="10" s:pid="Y"/>
  </g>
  <g s:type="constant" transform="translate(132,152.5)" s:width="30" s:height="20" id="cell_0">
    <text x="15" y="-4" class="nodelabel cell_0" s:attribute="ref">0</text>
    <s:alias val="$_constant_"/>
    <rect width="30" height="20" class="cell_0"/>
    <g s:x="30" s:y="10" s:pid="Y"/>
  </g>
  <g s:type="constant" transform="translate(132,217.5)" s:width="30" s:height="20" id="cell_1">
    <text x="15" y="-4" class="nodelabel cell_1" s:attribute="ref">1</text>
    <s:alias val="$_constant_"/>
    <rect width="30" height="20" class="cell_1"/>
    <g s:x="30" s:y="10" s:pid="Y"/>
  </g>
  <g s:type="join" transform="translate(31,12)" s:width="4" s:height="40" id="cell_$join$,x,x,x,x,x,x,x,x,x,x,x,x,x,x,x,x,x,x,x,x,x,x,x,x,">
    <rect width="5" height="40" class="splitjoinBody" s:generic="body"/>
    <s:alias val="$_join_"/>
    <g s:x="5" s:y="20" s:pid="out"/>
    <g transform="translate(0,10)" s:x="0" s:y="10" s:pid="in0">
      <text x="-3" y="-4" class="inputPortLabel">0:9</text>
    </g>
  </g>
  <line x1="79" x2="137.33333333333331" y1="557.5" y2="557.5" class="net_131,132,133,134,135,136,137,138,139,140,141,142,143,144,145,146,147,148,149,150,151,152,153,154"/>
  <line x1="79" x2="107" y1="622.5" y2="622.5" class="net_155,156,157,158,159,160,161,162,163,164,165,166,167,168,169,170,171,172,173,174,175,176,177,178"/>
  <line x1="107" x2="107" y1="622.5" y2="577.5" class="net_155,156,157,158,159,160,161,162,163,164,165,166,167,168,169,170,171,172,173,174,175,176,177,178"/>
  <line x1="107" x2="137.33333333333331" y1="577.5" y2="577.5" class="net_155,156,157,158,159,160,161,162,163,164,165,166,167,168,169,170,171,172,173,174,175,176,177,178"/>
  <line x1="77" x2="117" y1="492.5" y2="492.5" class="net_3"/>
  <line x1="117" x2="117" y1="492.5" y2="597.5" class="net_3"/>
  <line x1="117" x2="147.33333333333331" y1="597.5" y2="597.5" class="net_3"/>
  <circle cx="117" cy="492.5" r="2" style="fill:#000" class="net_3"/>
  <line x1="147.33333333333331" x2="147.33333333333331" y1="597.5" y2="582.5" class="net_3"/>
  <line x1="77" x2="150" y1="492.5" y2="492.5" class="net_3"/>
  <line x1="150" x2="150" y1="492.5" y2="432.5" class="net_3"/>
  <line x1="77" x2="117" y1="492.5" y2="492.5" class="net_3"/>
  <line x1="117" x2="117" y1="492.5" y2="322.5" class="net_3"/>
  <line x1="117" x2="150" y1="322.5" y2="322.5" class="net_3"/>
  <line x1="150" x2="150" y1="322.5" y2="307.5" class="net_3"/>
  <line x1="77" x2="140" y1="427.5" y2="427.5" class="net_14,15,16,17,18,19,20,21,22,23,24,25,26,27,28,29,30,31,32,33,34,35,36,37"/>
  <line x1="77" x2="140" y1="302.5" y2="302.5" class="net_4,5,6,7,8,9,10,11,12,13"/>
  <line x1="160" x2="291" y1="32.5" y2="32.5" class="net_39,40,41,42,43,44,45,46,47,48"/>
  <line x1="162" x2="188" y1="162.5" y2="162.5" class="net_179"/>
  <line x1="188" x2="188" y1="162.5" y2="52.5" class="net_179"/>
  <line x1="188" x2="291" y1="52.5" y2="52.5" class="net_179"/>
  <line x1="162" x2="188" y1="162.5" y2="162.5" class="net_179"/>
  <line x1="188" x2="188" y1="162.5" y2="112.5" class="net_179"/>
  <circle cx="188" cy="112.5" r="2" style="fill:#000" class="net_179"/>
  <line x1="188" x2="291" y1="112.5" y2="112.5" class="net_179"/>
  <line x1="160" x2="178" y1="97.5" y2="97.5" class="net_38"/>
  <line x1="178" x2="178" y1="97.5" y2="72.5" class="net_38"/>
  <line x1="178" x2="291" y1="72.5" y2="72.5" class="net_38"/>
  <line x1="162" x2="198" y1="227.5" y2="227.5" class="net_180"/>
  <line x1="198" x2="198" y1="227.5" y2="92.5" class="net_180"/>
  <line x1="198" x2="291" y1="92.5" y2="92.5" class="net_180"/>
  <line x1="160" x2="208" y1="292.5" y2="292.5" class="net_121,122,123,124,125,126,127,128,129,130"/>
  <line x1="208" x2="208" y1="292.5" y2="132.5" class="net_121,122,123,124,125,126,127,128,129,130"/>
  <line x1="208" x2="291" y1="132.5" y2="132.5" class="net_121,122,123,124,125,126,127,128,129,130"/>
  <line x1="160" x2="218" y1="352.5" y2="352.5" class="net_2"/>
  <line x1="218" x2="218" y1="352.5" y2="152.5" class="net_2"/>
  <line x1="218" x2="291" y1="152.5" y2="152.5" class="net_2"/>
  <line x1="160" x2="228" y1="417.5" y2="417.5" class="net_97,98,99,100,101,102,103,104,105,106,107,108,109,110,111,112,113,114,115,116,117,118,119,120"/>
  <line x1="228" x2="228" y1="417.5" y2="172.5" class="net_97,98,99,100,101,102,103,104,105,106,107,108,109,110,111,112,113,114,115,116,117,118,119,120"/>
  <line x1="228" x2="291" y1="172.5" y2="172.5" class="net_97,98,99,100,101,102,103,104,105,106,107,108,109,110,111,112,113,114,115,116,117,118,119,120"/>
  <line x1="157.33333333333331" x2="238" y1="567.5" y2="567.5" class="net_73,74,75,76,77,78,79,80,81,82,83,84,85,86,87,88,89,90,91,92,93,94,95,96"/>
  <line x1="238" x2="238" y1="567.5" y2="192.5" class="net_73,74,75,76,77,78,79,80,81,82,83,84,85,86,87,88,89,90,91,92,93,94,95,96"/>
  <line x1="238" x2="291" y1="192.5" y2="192.5" class="net_73,74,75,76,77,78,79,80,81,82,83,84,85,86,87,88,89,90,91,92,93,94,95,96"/>
  <line x1="322" x2="400" y1="32.5" y2="32.5" class="net_49,50,51,52,53,54,55,56,57,58,59,60,61,62,63,64,65,66,67,68,69,70,71,72"/>
</svg>
