<svg xmlns="http://www.w3.org/2000/svg" xmlns:xlink="http://www.w3.org/1999/xlink" xmlns:s="https://github.com/nturley/netlistsvg" width="1223" height="703.5">
  <style>svg {
    stroke:#000;
    fill:none;
  }
  text {
    fill:#000;
    stroke:none;
    font-size:10px;
    font-weight: bold;
    font-family: "Courier New", monospace;
  }
  .nodelabel {
    text-anchor: middle;
  }
  .inputPortLabel {
    text-anchor: end;
  }
  .splitjoinBody {
    fill:#000;
  }</style>
  <g s:type="add" transform="translate(1137,266)" s:width="25" s:height="25" id="cell_$add$src/hardware/room_eq_peripheral/sweep_generator/sweep_generator.sv:64$7">
    <s:alias val="$add"/>
    <circle r="12.5" cx="12.5" cy="12.5" class="cell_$add$src/hardware/room_eq_peripheral/sweep_generator/sweep_generator.sv:64$7"/>
    <line x1="7.5" x2="17.5" y1="12.5" y2="12.5" class="cell_$add$src/hardware/room_eq_peripheral/sweep_generator/sweep_generator.sv:64$7"/>
    <line x1="12.5" x2="12.5" y1="7.5" y2="17.5" class="cell_$add$src/hardware/room_eq_peripheral/sweep_generator/sweep_generator.sv:64$7"/>
    <g s:x="3" s:y="5" s:pid="A"/>
    <g s:x="3" s:y="20" s:pid="B"/>
    <g s:x="25" s:y="12.5" s:pid="Y"/>
  </g>
  <g s:type="and" transform="translate(1072,359.5)" s:width="30" s:height="25" id="cell_$and$src/hardware/room_eq_peripheral/sweep_generator/sweep_generator.sv:63$4">
    <s:alias val="$and"/>
    <s:alias val="$logic_and"/>
    <s:alias val="$_AND_"/>
    <path d="M0,0 L0,25 L15,25 A15 12.5 0 0 0 15,0 Z" class="cell_$and$src/hardware/room_eq_peripheral/sweep_generator/sweep_generator.sv:63$4"/>
    <g s:x="0" s:y="5" s:pid="A"/>
    <g s:x="0" s:y="20" s:pid="B"/>
    <g s:x="30" s:y="12.5" s:pid="Y"/>
  </g>
  <g s:type="and" transform="translate(1137,367)" s:width="30" s:height="25" id="cell_$and$src/hardware/room_eq_peripheral/sweep_generator/sweep_generator.sv:63$6">
    <s:alias val="$and"/>
    <s:alias val="$logic_and"/>
    <s:alias val="$_AND_"/>
    <path d="M0,0 L0,25 L15,25 A15 12.5 0 0 0 15,0 Z" class="cell_$and$src/hardware/room_eq_peripheral/sweep_generator/sweep_generator.sv:63$6"/>
    <g s:x="0" s:y="5" s:pid="A"/>
    <g s:x="0" s:y="20" s:pid="B"/>
    <g s:x="30" s:y="12.5" s:pid="Y"/>
  </g>
  <g s:type="generic" transform="translate(644,535)" s:width="30" s:height="40" id="cell_$auto$ff.cc:337:slice$31">
    <text x="15" y="-4" class="nodelabel cell_$auto$ff.cc:337:slice$31" s:attribute="ref">$sdff</text>
    <rect width="30" height="60" s:generic="body" class="cell_$auto$ff.cc:337:slice$31"/>
    <g transform="translate(0,10)" s:x="0" s:y="10" s:pid="in0" id="port_$auto$ff.cc:337:slice$31~CLK">
      <text x="-3" y="-4" class="inputPortLabel cell_$auto$ff.cc:337:slice$31">CLK</text>
    </g>
    <g transform="translate(0,30)" s:x="0" s:y="10" s:pid="in0" id="port_$auto$ff.cc:337:slice$31~D">
      <text x="-3" y="-4" class="inputPortLabel cell_$auto$ff.cc:337:slice$31">D</text>
    </g>
    <g transform="translate(0,50)" s:x="0" s:y="10" s:pid="in0" id="port_$auto$ff.cc:337:slice$31~SRST">
      <text x="-3" y="-4" class="inputPortLabel cell_$auto$ff.cc:337:slice$31">SRST</text>
    </g>
    <g transform="translate(30,10)" s:x="30" s:y="10" s:pid="out0" id="port_$auto$ff.cc:337:slice$31~Q">
      <text x="5" y="-4" style="fill:#000; stroke:none" class="cell_$auto$ff.cc:337:slice$31">Q</text>
    </g>
  </g>
  <g s:type="generic" transform="translate(435,200.5)" s:width="30" s:height="40" id="cell_$auto$ff.cc:337:slice$34">
    <text x="15" y="-4" class="nodelabel cell_$auto$ff.cc:337:slice$34" s:attribute="ref">$sdff</text>
    <rect width="30" height="60" s:generic="body" class="cell_$auto$ff.cc:337:slice$34"/>
    <g transform="translate(0,10)" s:x="0" s:y="10" s:pid="in0" id="port_$auto$ff.cc:337:slice$34~CLK">
      <text x="-3" y="-4" class="inputPortLabel cell_$auto$ff.cc:337:slice$34">CLK</text>
    </g>
    <g transform="translate(0,30)" s:x="0" s:y="10" s:pid="in0" id="port_$auto$ff.cc:337:slice$34~D">
      <text x="-3" y="-4" class="inputPortLabel cell_$auto$ff.cc:337:slice$34">D</text>
    </g>
    <g transform="translate(0,50)" s:x="0" s:y="10" s:pid="in0" id="port_$auto$ff.cc:337:slice$34~SRST">
      <text x="-3" y="-4" class="inputPortLabel cell_$auto$ff.cc:337:slice$34">SRST</text>
    </g>
    <g transform="translate(30,10)" s:x="30" s:y="10" s:pid="out0" id="port_$auto$ff.cc:337:slice$34~Q">
      <text x="5" y="-4" style="fill:#000; stroke:none" class="cell_$auto$ff.cc:337:slice$34">Q</text>
    </g>
  </g>
  <g s:type="generic" transform="translate(893,597.5)" s:width="30" s:height="40" id="cell_$auto$ff.cc:337:slice$38">
    <text x="15" y="-4" class="nodelabel cell_$auto$ff.cc:337:slice$38" s:attribute="ref">$sdffe</text>
    <rect width="30" height="80" s:generic="body" class="cell_$auto$ff.cc:337:slice$38"/>
    <g transform="translate(0,10)" s:x="0" s:y="10" s:pid="in0" id="port_$auto$ff.cc:337:slice$38~CLK">
      <text x="-3" y="-4" class="inputPortLabel cell_$auto$ff.cc:337:slice$38">CLK</text>
    </g>
    <g transform="translate(0,30)" s:x="0" s:y="10" s:pid="in0" id="port_$auto$ff.cc:337:slice$38~D">
      <text x="-3" y="-4" class="inputPortLabel cell_$auto$ff.cc:337:slice$38">D</text>
    </g>
    <g transform="translate(0,50)" s:x="0" s:y="10" s:pid="in0" id="port_$auto$ff.cc:337:slice$38~EN">
      <text x="-3" y="-4" class="inputPortLabel cell_$auto$ff.cc:337:slice$38">EN</text>
    </g>
    <g transform="translate(0,70)" s:x="0" s:y="10" s:pid="in0" id="port_$auto$ff.cc:337:slice$38~SRST">
      <text x="-3" y="-4" class="inputPortLabel cell_$auto$ff.cc:337:slice$38">SRST</text>
    </g>
    <g transform="translate(30,10)" s:x="30" s:y="10" s:pid="out0" id="port_$auto$ff.cc:337:slice$38~Q">
      <text x="5" y="-4" style="fill:#000; stroke:none" class="cell_$auto$ff.cc:337:slice$38">Q</text>
    </g>
  </g>
  <g s:type="generic" transform="translate(132,575)" s:width="30" s:height="40" id="cell_$auto$opt_dff.cc:277:combine_resets$33">
    <text x="15" y="-4" class="nodelabel cell_$auto$opt_dff.cc:277:combine_resets$33" s:attribute="ref">$reduce_or</text>
    <rect width="30" height="20" s:generic="body" class="cell_$auto$opt_dff.cc:277:combine_resets$33"/>
    <g transform="translate(0,10)" s:x="0" s:y="10" s:pid="in0" id="port_$auto$opt_dff.cc:277:combine_resets$33~A">
      <text x="-3" y="-4" class="inputPortLabel cell_$auto$opt_dff.cc:277:combine_resets$33">A</text>
    </g>
    <g transform="translate(30,10)" s:x="30" s:y="10" s:pid="out0" id="port_$auto$opt_dff.cc:277:combine_resets$33~Y">
      <text x="5" y="-4" style="fill:#000; stroke:none" class="cell_$auto$opt_dff.cc:277:combine_resets$33">Y</text>
    </g>
  </g>
  <g s:type="eq" transform="translate(934.3333333333334,352)" s:width="25" s:height="25" id="cell_$eq$src/hardware/room_eq_peripheral/sweep_generator/sweep_generator.sv:63$3">
    <s:alias val="$eq"/>
    <circle r="12.5" cx="12.5" cy="12.5" class="cell_$eq$src/hardware/room_eq_peripheral/sweep_generator/sweep_generator.sv:63$3"/>
    <line x1="7.5" x2="17.5" y1="10" y2="10" class="cell_$eq$src/hardware/room_eq_peripheral/sweep_generator/sweep_generator.sv:63$3"/>
    <line x1="7.5" x2="17.5" y1="15" y2="15" class="cell_$eq$src/hardware/room_eq_peripheral/sweep_generator/sweep_generator.sv:63$3"/>
    <g s:x="3" s:y="5" s:pid="A"/>
    <g s:x="3" s:y="20" s:pid="B"/>
    <g s:x="25" s:y="12.5" s:pid="Y"/>
  </g>
  <g s:type="not" transform="translate(1072,427.5)" s:width="30" s:height="20" id="cell_$logic_not$src/hardware/room_eq_peripheral/sweep_generator/sweep_generator.sv:63$5">
    <s:alias val="$_NOT_"/>
    <s:alias val="$not"/>
    <s:alias val="$logic_not"/>
    <path d="M0,0 L0,20 L20,10 Z" class="cell_$logic_not$src/hardware/room_eq_peripheral/sweep_generator/sweep_generator.sv:63$5"/>
    <circle cx="23" cy="10" r="3" class="cell_$logic_not$src/hardware/room_eq_peripheral/sweep_generator/sweep_generator.sv:63$5"/>
    <g s:x="0" s:y="10" s:pid="A"/>
    <g s:x="25" s:y="10" s:pid="Y"/>
  </g>
  <g s:type="or" transform="translate(464.6666666666667,452.5)" s:width="30" s:height="25" id="cell_$or$src/hardware/room_eq_peripheral/sweep_generator/sweep_generator.sv:51$1">
    <s:alias val="$or"/>
    <s:alias val="$logic_or"/>
    <s:alias val="$_OR_"/>
    <path d="M0,25 L0,25 L15,25 A15 12.5 0 0 0 15,0 L0,0" class="cell_$or$src/hardware/room_eq_peripheral/sweep_generator/sweep_generator.sv:51$1"/>
    <path d="M0,0 A30 25 0 0 1 0,25" class="cell_$or$src/hardware/room_eq_peripheral/sweep_generator/sweep_generator.sv:51$1"/>
    <g s:x="3" s:y="5" s:pid="A"/>
    <g s:x="3" s:y="20" s:pid="B"/>
    <g s:x="30" s:y="12.5" s:pid="Y"/>
  </g>
  <g s:type="mux" transform="translate(1075.3333333333333,33.5)" s:width="20" s:height="40" id="cell_$ternary$src/hardware/room_eq_peripheral/sweep_generator/sweep_generator.sv:72$8">
    <s:alias val="$pmux"/>
    <s:alias val="$mux"/>
    <s:alias val="$_MUX_"/>
    <path d="M0,0 L20,10 L20,30 L0,40 Z" class="cell_$ternary$src/hardware/room_eq_peripheral/sweep_generator/sweep_generator.sv:72$8"/>
    <g s:x="0" s:y="10" s:pid="A"/>
    <g s:x="0" s:y="30" s:pid="B"/>
    <g s:x="10" s:y="35" s:pid="S"/>
    <g s:x="20" s:y="20" s:pid="Y"/>
  </g>
  <g s:type="generic" transform="translate(926.2222222222222,33)" s:width="30" s:height="40" id="cell_lookup">
    <text x="15" y="-4" class="nodelabel cell_lookup" s:attribute="ref">sine_lookup</text>
    <rect width="30" height="160" s:generic="body" class="cell_lookup"/>
    <g transform="translate(0,10)" s:x="0" s:y="10" s:pid="in0" id="port_lookup~addr_lut">
      <text x="-3" y="-4" class="inputPortLabel cell_lookup">addr_lut</text>
    </g>
    <g transform="translate(0,30)" s:x="0" s:y="10" s:pid="in0" id="port_lookup~clk_sys">
      <text x="-3" y="-4" class="inputPortLabel cell_lookup">clk_sys</text>
    </g>
    <g transform="translate(0,50)" s:x="0" s:y="10" s:pid="in0" id="port_lookup~clock">
      <text x="-3" y="-4" class="inputPortLabel cell_lookup">clock</text>
    </g>
    <g transform="translate(0,70)" s:x="0" s:y="10" s:pid="in0" id="port_lookup~din_lut">
      <text x="-3" y="-4" class="inputPortLabel cell_lookup">din_lut</text>
    </g>
    <g transform="translate(0,90)" s:x="0" s:y="10" s:pid="in0" id="port_lookup~phase">
      <text x="-3" y="-4" class="inputPortLabel cell_lookup">phase</text>
    </g>
    <g transform="translate(0,110)" s:x="0" s:y="10" s:pid="in0" id="port_lookup~reset">
      <text x="-3" y="-4" class="inputPortLabel cell_lookup">reset</text>
    </g>
    <g transform="translate(0,130)" s:x="0" s:y="10" s:pid="in0" id="port_lookup~sample_en">
      <text x="-3" y="-4" class="inputPortLabel cell_lookup">sample_en</text>
    </g>
    <g transform="translate(0,150)" s:x="0" s:y="10" s:pid="in0" id="port_lookup~we_lut">
      <text x="-3" y="-4" class="inputPortLabel cell_lookup">we_lut</text>
    </g>
    <g transform="translate(30,10)" s:x="30" s:y="10" s:pid="out0" id="port_lookup~amplitude">
      <text x="5" y="-4" style="fill:#000; stroke:none" class="cell_lookup">amplitude</text>
    </g>
  </g>
  <g s:type="generic" transform="translate(685.6,427)" s:width="30" s:height="40" id="cell_mac">
    <text x="15" y="-4" class="nodelabel cell_mac" s:attribute="ref">phase_accumulator</text>
    <rect width="30" height="60" s:generic="body" class="cell_mac"/>
    <g transform="translate(0,10)" s:x="0" s:y="10" s:pid="in0" id="port_mac~clock">
      <text x="-3" y="-4" class="inputPortLabel cell_mac">clock</text>
    </g>
    <g transform="translate(0,30)" s:x="0" s:y="10" s:pid="in0" id="port_mac~reset">
      <text x="-3" y="-4" class="inputPortLabel cell_mac">reset</text>
    </g>
    <g transform="translate(0,50)" s:x="0" s:y="10" s:pid="in0" id="port_mac~sample_en">
      <text x="-3" y="-4" class="inputPortLabel cell_mac">sample_en</text>
    </g>
    <g transform="translate(30,10)" s:x="30" s:y="10" s:pid="out0" id="port_mac~done">
      <text x="5" y="-4" style="fill:#000; stroke:none" class="cell_mac">done</text>
    </g>
    <g transform="translate(30,30)" s:x="30" s:y="10" s:pid="out0" id="port_mac~phase">
      <text x="5" y="-4" style="fill:#000; stroke:none" class="cell_mac">phase</text>
    </g>
  </g>
  <g s:type="inputExt" transform="translate(132,427.5)" s:width="30" s:height="20" id="cell_clock">
    <text x="15" y="-4" class="nodelabel cell_clock" s:attribute="ref">clock</text>
    <s:alias val="$_inputExt_"/>
    <path d="M0,0 L0,20 L15,20 L30,10 L15,0 Z" class="cell_clock"/>
    <g s:x="28" s:y="10" s:pid="Y"/>
  </g>
  <g s:type="inputExt" transform="translate(12,169.5)" s:width="30" s:height="20" id="cell_reset">
    <text x="15" y="-4" class="nodelabel cell_reset" s:attribute="ref">reset</text>
    <s:alias val="$_inputExt_"/>
    <path d="M0,0 L0,20 L15,20 L30,10 L15,0 Z" class="cell_reset"/>
    <g s:x="28" s:y="10" s:pid="Y"/>
  </g>
  <g s:type="outputExt" transform="translate(1137,43.5)" s:width="30" s:height="20" id="cell_amplitude">
    <text x="15" y="-4" class="nodelabel cell_amplitude" s:attribute="ref">amplitude</text>
    <s:alias val="$_outputExt_"/>
    <path d="M30,0 L30,20 L15,20 L0,10 L15,0 Z" class="cell_amplitude"/>
    <g s:x="0" s:y="10" s:pid="A"/>
  </g>
  <g s:type="inputExt" transform="translate(644,98.5)" s:width="30" s:height="20" id="cell_clk_sys">
    <text x="15" y="-4" class="nodelabel cell_clk_sys" s:attribute="ref">clk_sys</text>
    <s:alias val="$_inputExt_"/>
    <path d="M0,0 L0,20 L15,20 L30,10 L15,0 Z" class="cell_clk_sys"/>
    <g s:x="28" s:y="10" s:pid="Y"/>
  </g>
  <g s:type="inputExt" transform="translate(644,232)" s:width="30" s:height="20" id="cell_we_lut">
    <text x="15" y="-4" class="nodelabel cell_we_lut" s:attribute="ref">we_lut</text>
    <s:alias val="$_inputExt_"/>
    <path d="M0,0 L0,20 L15,20 L30,10 L15,0 Z" class="cell_we_lut"/>
    <g s:x="28" s:y="10" s:pid="Y"/>
  </g>
  <g s:type="inputExt" transform="translate(644,33.5)" s:width="30" s:height="20" id="cell_addr_lut">
    <text x="15" y="-4" class="nodelabel cell_addr_lut" s:attribute="ref">addr_lut</text>
    <s:alias val="$_inputExt_"/>
    <path d="M0,0 L0,20 L15,20 L30,10 L15,0 Z" class="cell_addr_lut"/>
    <g s:x="28" s:y="10" s:pid="Y"/>
  </g>
  <g s:type="inputExt" transform="translate(644,149.5)" s:width="30" s:height="20" id="cell_din_lut">
    <text x="15" y="-4" class="nodelabel cell_din_lut" s:attribute="ref">din_lut</text>
    <s:alias val="$_inputExt_"/>
    <path d="M0,0 L0,20 L15,20 L30,10 L15,0 Z" class="cell_din_lut"/>
    <g s:x="28" s:y="10" s:pid="Y"/>
  </g>
  <g s:type="inputExt" transform="translate(12,638)" s:width="30" s:height="20" id="cell_start">
    <text x="15" y="-4" class="nodelabel cell_start" s:attribute="ref">start</text>
    <s:alias val="$_inputExt_"/>
    <path d="M0,0 L0,20 L15,20 L30,10 L15,0 Z" class="cell_start"/>
    <g s:x="28" s:y="10" s:pid="Y"/>
  </g>
  <g s:type="outputExt" transform="translate(1137,447.5)" s:width="30" s:height="20" id="cell_done">
    <text x="15" y="-4" class="nodelabel cell_done" s:attribute="ref">done</text>
    <s:alias val="$_outputExt_"/>
    <path d="M30,0 L30,20 L15,20 L0,10 L15,0 Z" class="cell_done"/>
    <g s:x="0" s:y="10" s:pid="A"/>
  </g>
  <g s:type="constant" transform="translate(644,297)" s:width="30" s:height="20" id="cell_1">
    <text x="15" y="-4" class="nodelabel cell_1" s:attribute="ref">1</text>
    <s:alias val="$_constant_"/>
    <rect width="30" height="20" class="cell_1"/>
    <g s:x="30" s:y="10" s:pid="Y"/>
  </g>
  <g s:type="constant" transform="translate(644,362)" s:width="30" s:height="20" id="cell_11111111">
    <text x="15" y="-4" class="nodelabel cell_11111111" s:attribute="ref">0xff</text>
    <s:alias val="$_constant_"/>
    <rect width="30" height="20" class="cell_11111111"/>
    <g s:x="30" s:y="10" s:pid="Y"/>
  </g>
  <g s:type="constant" transform="translate(893,241)" s:width="30" s:height="20" id="cell_000000000000000000000000">
    <text x="15" y="-4" class="nodelabel cell_000000000000000000000000" s:attribute="ref">0x0</text>
    <s:alias val="$_constant_"/>
    <rect width="30" height="20" class="cell_000000000000000000000000"/>
    <g s:x="30" s:y="10" s:pid="Y"/>
  </g>
  <g s:type="join" transform="translate(84,565)" s:width="4" s:height="40" id="cell_$join$,3,64,">
    <rect width="5" height="40" class="splitjoinBody" s:generic="body"/>
    <s:alias val="$_join_"/>
    <g s:x="5" s:y="20" s:pid="out"/>
    <g transform="translate(0,10)" s:x="0" s:y="10" s:pid="in0">
      <text x="-3" y="-4" class="inputPortLabel">0</text>
    </g>
    <g transform="translate(0,30)" s:x="0" s:y="10" s:pid="in0">
      <text x="-3" y="-4" class="inputPortLabel">1</text>
    </g>
  </g>
  <line x1="675" x2="848" y1="545.5" y2="545.5" class="net_66,67,68,69,70,71,72,73"/>
  <line x1="848" x2="848" y1="545.5" y2="271" class="net_66,67,68,69,70,71,72,73"/>
  <line x1="848" x2="1140" y1="271" y2="271" class="net_66,67,68,69,70,71,72,73"/>
  <line x1="675" x2="848" y1="545.5" y2="545.5" class="net_66,67,68,69,70,71,72,73"/>
  <line x1="848" x2="848" y1="545.5" y2="357" class="net_66,67,68,69,70,71,72,73"/>
  <circle cx="848" cy="357" r="2" style="fill:#000" class="net_66,67,68,69,70,71,72,73"/>
  <line x1="848" x2="937.3333333333334" y1="357" y2="357" class="net_66,67,68,69,70,71,72,73"/>
  <line x1="674" x2="1112" y1="307" y2="307" class="net_146"/>
  <line x1="1112" x2="1112" y1="307" y2="286" class="net_146"/>
  <line x1="1112" x2="1140" y1="286" y2="286" class="net_146"/>
  <line x1="674" x2="838" y1="307" y2="307" class="net_146"/>
  <line x1="838" x2="838" y1="307" y2="628" class="net_146"/>
  <circle cx="838" cy="307" r="2" style="fill:#000" class="net_146"/>
  <line x1="838" x2="893" y1="628" y2="628" class="net_146"/>
  <line x1="959.3333333333334" x2="1072" y1="364.5" y2="364.5" class="net_82"/>
  <line x1="924" x2="1047" y1="608" y2="608" class="net_83"/>
  <line x1="1047" x2="1047" y1="608" y2="379.5" class="net_83"/>
  <line x1="1047" x2="1072" y1="379.5" y2="379.5" class="net_83"/>
  <line x1="1102" x2="1137" y1="372" y2="372" class="net_84"/>
  <line x1="1097" x2="1112" y1="437.5" y2="437.5" class="net_85"/>
  <line x1="1112" x2="1112" y1="437.5" y2="387" class="net_85"/>
  <line x1="1112" x2="1137" y1="387" y2="387" class="net_85"/>
  <line x1="160" x2="589" y1="437.5" y2="437.5" class="net_2"/>
  <line x1="589" x2="589" y1="437.5" y2="545.5" class="net_2"/>
  <circle cx="589" cy="437.5" r="2" style="fill:#000" class="net_2"/>
  <line x1="589" x2="644" y1="545.5" y2="545.5" class="net_2"/>
  <line x1="160" x2="380" y1="437.5" y2="437.5" class="net_2"/>
  <line x1="380" x2="380" y1="437.5" y2="211" class="net_2"/>
  <circle cx="380" cy="437.5" r="2" style="fill:#000" class="net_2"/>
  <circle cx="380" cy="211" r="2" style="fill:#000" class="net_2"/>
  <line x1="380" x2="435" y1="211" y2="211" class="net_2"/>
  <line x1="160" x2="380" y1="437.5" y2="437.5" class="net_2"/>
  <line x1="380" x2="380" y1="437.5" y2="608" class="net_2"/>
  <line x1="380" x2="893" y1="608" y2="608" class="net_2"/>
  <line x1="160" x2="380" y1="437.5" y2="437.5" class="net_2"/>
  <line x1="380" x2="380" y1="437.5" y2="128.5" class="net_2"/>
  <line x1="380" x2="808" y1="128.5" y2="128.5" class="net_2"/>
  <line x1="808" x2="808" y1="128.5" y2="83.5" class="net_2"/>
  <line x1="808" x2="926.2222222222222" y1="83.5" y2="83.5" class="net_2"/>
  <line x1="160" x2="685.6" y1="437.5" y2="437.5" class="net_2"/>
  <line x1="1162" x2="1201" y1="278.5" y2="278.5" class="net_74,75,76,77,78,79,80,81"/>
  <line x1="1201" x2="1201" y1="278.5" y2="690.5" class="net_74,75,76,77,78,79,80,81"/>
  <line x1="1201" x2="609" y1="690.5" y2="690.5" class="net_74,75,76,77,78,79,80,81"/>
  <line x1="609" x2="609" y1="690.5" y2="565.5" class="net_74,75,76,77,78,79,80,81"/>
  <line x1="609" x2="644" y1="565.5" y2="565.5" class="net_74,75,76,77,78,79,80,81"/>
  <line x1="163" x2="644" y1="585.5" y2="585.5" class="net_87"/>
  <line x1="163" x2="390" y1="585.5" y2="585.5" class="net_87"/>
  <line x1="390" x2="390" y1="585.5" y2="251" class="net_87"/>
  <circle cx="390" cy="585.5" r="2" style="fill:#000" class="net_87"/>
  <line x1="390" x2="435" y1="251" y2="251" class="net_87"/>
  <line x1="1167" x2="1211" y1="379.5" y2="379.5" class="net_86"/>
  <line x1="1211" x2="1211" y1="379.5" y2="12" class="net_86"/>
  <line x1="1211" x2="370" y1="12" y2="12" class="net_86"/>
  <line x1="370" x2="370" y1="12" y2="231" class="net_86"/>
  <line x1="370" x2="435" y1="231" y2="231" class="net_86"/>
  <line x1="40" x2="893" y1="648" y2="648" class="net_64"/>
  <line x1="40" x2="400" y1="648" y2="648" class="net_64"/>
  <line x1="400" x2="400" y1="648" y2="472.5" class="net_64"/>
  <circle cx="400" cy="648" r="2" style="fill:#000" class="net_64"/>
  <line x1="400" x2="467.6666666666667" y1="472.5" y2="472.5" class="net_64"/>
  <line x1="40" x2="62" y1="648" y2="648" class="net_64"/>
  <line x1="62" x2="62" y1="648" y2="595.5" class="net_64"/>
  <circle cx="62" cy="648" r="2" style="fill:#000" class="net_64"/>
  <line x1="62" x2="84" y1="595.5" y2="595.5" class="net_64"/>
  <line x1="40" x2="52" y1="179.5" y2="179.5" class="net_3"/>
  <line x1="52" x2="52" y1="179.5" y2="668" class="net_3"/>
  <circle cx="52" cy="179.5" r="2" style="fill:#000" class="net_3"/>
  <line x1="52" x2="893" y1="668" y2="668" class="net_3"/>
  <line x1="40" x2="100" y1="179.5" y2="179.5" class="net_3"/>
  <line x1="100" x2="100" y1="179.5" y2="457.5" class="net_3"/>
  <circle cx="100" cy="179.5" r="2" style="fill:#000" class="net_3"/>
  <line x1="100" x2="467.6666666666667" y1="457.5" y2="457.5" class="net_3"/>
  <line x1="40" x2="838" y1="179.5" y2="179.5" class="net_3"/>
  <line x1="838" x2="838" y1="179.5" y2="143.5" class="net_3"/>
  <line x1="838" x2="926.2222222222222" y1="143.5" y2="143.5" class="net_3"/>
  <line x1="40" x2="52" y1="179.5" y2="179.5" class="net_3"/>
  <line x1="52" x2="52" y1="179.5" y2="575.5" class="net_3"/>
  <circle cx="52" cy="575.5" r="2" style="fill:#000" class="net_3"/>
  <line x1="52" x2="84" y1="575.5" y2="575.5" class="net_3"/>
  <line x1="90" x2="132" y1="585.5" y2="585.5" class="net_3,64"/>
  <line x1="674" x2="937.3333333333334" y1="372" y2="372" class="net_148,149,150,151,152,153,154,155"/>
  <line x1="716.6" x2="1072" y1="437.5" y2="437.5" class="net_65"/>
  <line x1="716.6" x2="858" y1="437.5" y2="437.5" class="net_65"/>
  <line x1="858" x2="858" y1="437.5" y2="341" class="net_65"/>
  <line x1="858" x2="1085.3333333333333" y1="341" y2="341" class="net_65"/>
  <circle cx="858" cy="437.5" r="2" style="fill:#000" class="net_65"/>
  <line x1="1085.3333333333333" x2="1085.3333333333333" y1="341" y2="68.5" class="net_65"/>
  <line x1="716.6" x2="1057" y1="437.5" y2="437.5" class="net_65"/>
  <line x1="1057" x2="1057" y1="437.5" y2="457.5" class="net_65"/>
  <circle cx="1057" cy="437.5" r="2" style="fill:#000" class="net_65"/>
  <line x1="1057" x2="1137" y1="457.5" y2="457.5" class="net_65"/>
  <line x1="957.2222222222222" x2="1075.3333333333333" y1="43.5" y2="43.5" class="net_90,91,92,93,94,95,96,97,98,99,100,101,102,103,104,105,106,107,108,109,110,111,112,113"/>
  <line x1="923" x2="1047" y1="251" y2="251" class="net_156,157,158,159,160,161,162,163,164,165,166,167,168,169,170,171,172,173,174,175,176,177,178,179"/>
  <line x1="1047" x2="1047" y1="251" y2="63.5" class="net_156,157,158,159,160,161,162,163,164,165,166,167,168,169,170,171,172,173,174,175,176,177,178,179"/>
  <line x1="1047" x2="1075.3333333333333" y1="63.5" y2="63.5" class="net_156,157,158,159,160,161,162,163,164,165,166,167,168,169,170,171,172,173,174,175,176,177,178,179"/>
  <line x1="672" x2="926.2222222222222" y1="43.5" y2="43.5" class="net_30,31,32,33,34,35,36,37,38,39"/>
  <line x1="672" x2="798" y1="108.5" y2="108.5" class="net_28"/>
  <line x1="798" x2="798" y1="108.5" y2="63.5" class="net_28"/>
  <line x1="798" x2="926.2222222222222" y1="63.5" y2="63.5" class="net_28"/>
  <line x1="672" x2="818" y1="159.5" y2="159.5" class="net_40,41,42,43,44,45,46,47,48,49,50,51,52,53,54,55,56,57,58,59,60,61,62,63"/>
  <line x1="818" x2="818" y1="159.5" y2="103.5" class="net_40,41,42,43,44,45,46,47,48,49,50,51,52,53,54,55,56,57,58,59,60,61,62,63"/>
  <line x1="818" x2="926.2222222222222" y1="103.5" y2="103.5" class="net_40,41,42,43,44,45,46,47,48,49,50,51,52,53,54,55,56,57,58,59,60,61,62,63"/>
  <line x1="716.6" x2="828" y1="457.5" y2="457.5" class="net_114,115,116,117,118,119,120,121,122,123,124,125,126,127,128,129,130,131,132,133,134,135,136,137,138,139,140,141,142,143,144,145"/>
  <line x1="828" x2="828" y1="457.5" y2="123.5" class="net_114,115,116,117,118,119,120,121,122,123,124,125,126,127,128,129,130,131,132,133,134,135,136,137,138,139,140,141,142,143,144,145"/>
  <line x1="828" x2="926.2222222222222" y1="123.5" y2="123.5" class="net_114,115,116,117,118,119,120,121,122,123,124,125,126,127,128,129,130,131,132,133,134,135,136,137,138,139,140,141,142,143,144,145"/>
  <line x1="466" x2="848" y1="211" y2="211" class="net_88"/>
  <line x1="848" x2="848" y1="211" y2="163.5" class="net_88"/>
  <line x1="848" x2="926.2222222222222" y1="163.5" y2="163.5" class="net_88"/>
  <line x1="466" x2="609" y1="211" y2="211" class="net_88"/>
  <line x1="609" x2="609" y1="211" y2="477.5" class="net_88"/>
  <circle cx="609" cy="211" r="2" style="fill:#000" class="net_88"/>
  <line x1="609" x2="685.6" y1="477.5" y2="477.5" class="net_88"/>
  <line x1="672" x2="858" y1="242" y2="242" class="net_29"/>
  <line x1="858" x2="858" y1="242" y2="183.5" class="net_29"/>
  <line x1="858" x2="926.2222222222222" y1="183.5" y2="183.5" class="net_29"/>
  <line x1="494.6666666666667" x2="599" y1="465" y2="465" class="net_89"/>
  <line x1="599" x2="599" y1="465" y2="457.5" class="net_89"/>
  <line x1="599" x2="685.6" y1="457.5" y2="457.5" class="net_89"/>
  <line x1="1095.3333333333333" x2="1137" y1="53.5" y2="53.5" class="net_4,5,6,7,8,9,10,11,12,13,14,15,16,17,18,19,20,21,22,23,24,25,26,27"/>
</svg>
