<?xml version="1.0" encoding="UTF-8" standalone="no"?>
<!DOCTYPE svg PUBLIC "-//W3C//DTD SVG 1.1//EN"
 "http://www.w3.org/Graphics/SVG/1.1/DTD/svg11.dtd">
<!-- Generated by graphviz version 2.43.20190912.0211 (20190912.0211)
 -->
<!-- Title: sweep_generator Pages: 1 -->
<svg width="3117pt" height="768pt"
 viewBox="0.00 0.00 3116.59 768.00" xmlns="http://www.w3.org/2000/svg" xmlns:xlink="http://www.w3.org/1999/xlink">
<g id="graph0" class="graph" transform="scale(1 1) rotate(0) translate(4 764)">
<title>sweep_generator</title>
<polygon fill="white" stroke="transparent" points="-4,4 -4,-764 3112.59,-764 3112.59,4 -4,4"/>
<text text-anchor="middle" x="1554.3" y="-7.8" font-family="Times,serif" font-size="14.00">sweep_generator</text>
<!-- n12 -->
<g id="node1" class="node">
<title>n12</title>
<polygon fill="none" stroke="black" points="2710.61,-308 2601.35,-290 2710.61,-272 2819.87,-290 2710.61,-308"/>
<text text-anchor="middle" x="2710.61" y="-286.3" font-family="Times,serif" font-size="14.00">amplitude_internal</text>
</g>
<!-- c45 -->
<g id="node34" class="node">
<title>c45</title>
<polygon fill="none" stroke="black" points="2872.7,-172.5 2872.7,-241.5 2972.7,-241.5 2972.7,-172.5 2872.7,-172.5"/>
<text text-anchor="middle" x="2885.7" y="-226.3" font-family="Times,serif" font-size="14.00">A</text>
<polyline fill="none" stroke="black" points="2872.7,-218.5 2898.7,-218.5 "/>
<text text-anchor="middle" x="2885.7" y="-203.3" font-family="Times,serif" font-size="14.00">B</text>
<polyline fill="none" stroke="black" points="2872.7,-195.5 2898.7,-195.5 "/>
<text text-anchor="middle" x="2885.7" y="-180.3" font-family="Times,serif" font-size="14.00">S</text>
<polyline fill="none" stroke="black" points="2898.7,-172.5 2898.7,-241.5 "/>
<text text-anchor="middle" x="2922.7" y="-210.8" font-family="Times,serif" font-size="14.00">$8</text>
<text text-anchor="middle" x="2922.7" y="-195.8" font-family="Times,serif" font-size="14.00">$mux</text>
<polyline fill="none" stroke="black" points="2946.7,-172.5 2946.7,-241.5 "/>
<text text-anchor="middle" x="2959.7" y="-203.3" font-family="Times,serif" font-size="14.00">Y</text>
</g>
<!-- n12&#45;&gt;c45 -->
<g id="edge5" class="edge">
<title>n12:e&#45;&gt;c45:w</title>
<path fill="none" stroke="black" stroke-width="3" d="M2820.61,-290C2851.92,-290 2840.89,-242.82 2862.61,-232.14"/>
<polygon fill="black" stroke="black" stroke-width="3" points="2863.64,-235.5 2872.7,-230 2862.19,-228.65 2863.64,-235.5"/>
</g>
<!-- n13 -->
<g id="node2" class="node">
<title>n13</title>
<polygon fill="none" stroke="black" points="2239.9,-220 2196.5,-202 2239.9,-184 2283.3,-202 2239.9,-220"/>
<text text-anchor="middle" x="2239.9" y="-198.3" font-family="Times,serif" font-size="14.00">phase</text>
</g>
<!-- c43 -->
<g id="node31" class="node">
<title>c43</title>
<polygon fill="none" stroke="black" points="2319.52,-228 2319.52,-412 2548.52,-412 2548.52,-228 2319.52,-228"/>
<text text-anchor="middle" x="2357.02" y="-396.8" font-family="Times,serif" font-size="14.00">addr_lut</text>
<polyline fill="none" stroke="black" points="2319.52,-389 2394.52,-389 "/>
<text text-anchor="middle" x="2357.02" y="-373.8" font-family="Times,serif" font-size="14.00">clk_sys</text>
<polyline fill="none" stroke="black" points="2319.52,-366 2394.52,-366 "/>
<text text-anchor="middle" x="2357.02" y="-350.8" font-family="Times,serif" font-size="14.00">clock</text>
<polyline fill="none" stroke="black" points="2319.52,-343 2394.52,-343 "/>
<text text-anchor="middle" x="2357.02" y="-327.8" font-family="Times,serif" font-size="14.00">din_lut</text>
<polyline fill="none" stroke="black" points="2319.52,-320 2394.52,-320 "/>
<text text-anchor="middle" x="2357.02" y="-304.8" font-family="Times,serif" font-size="14.00">phase</text>
<polyline fill="none" stroke="black" points="2319.52,-297 2394.52,-297 "/>
<text text-anchor="middle" x="2357.02" y="-281.8" font-family="Times,serif" font-size="14.00">reset</text>
<polyline fill="none" stroke="black" points="2319.52,-274 2394.52,-274 "/>
<text text-anchor="middle" x="2357.02" y="-258.8" font-family="Times,serif" font-size="14.00">sample_en</text>
<polyline fill="none" stroke="black" points="2319.52,-251 2394.52,-251 "/>
<text text-anchor="middle" x="2357.02" y="-235.8" font-family="Times,serif" font-size="14.00">we_lut</text>
<polyline fill="none" stroke="black" points="2394.52,-228 2394.52,-412 "/>
<text text-anchor="middle" x="2436.02" y="-323.8" font-family="Times,serif" font-size="14.00">lookup</text>
<text text-anchor="middle" x="2436.02" y="-308.8" font-family="Times,serif" font-size="14.00">sine_lookup</text>
<polyline fill="none" stroke="black" points="2477.52,-228 2477.52,-412 "/>
<text text-anchor="middle" x="2513.02" y="-316.3" font-family="Times,serif" font-size="14.00">amplitude</text>
</g>
<!-- n13&#45;&gt;c43 -->
<g id="edge7" class="edge">
<title>n13:e&#45;&gt;c43:w</title>
<path fill="none" stroke="black" stroke-width="3" d="M2283.52,-202C2329.19,-202 2279.42,-291.32 2309.43,-305.98"/>
<polygon fill="black" stroke="black" stroke-width="3" points="2309.02,-309.46 2319.52,-308 2310.4,-302.6 2309.02,-309.46"/>
</g>
<!-- n14 -->
<g id="node3" class="node">
<title>n14</title>
<polygon fill="none" stroke="black" points="1441,-59 1320.68,-41 1441,-23 1561.32,-41 1441,-59"/>
<text text-anchor="middle" x="1441" y="-37.3" font-family="Times,serif" font-size="14.00">sweep_reset_internal</text>
</g>
<!-- c44 -->
<g id="node32" class="node">
<title>c44</title>
<polygon fill="none" stroke="black" points="1916.28,-150.5 1916.28,-219.5 2160.28,-219.5 2160.28,-150.5 1916.28,-150.5"/>
<text text-anchor="middle" x="1953.78" y="-204.3" font-family="Times,serif" font-size="14.00">clock</text>
<polyline fill="none" stroke="black" points="1916.28,-196.5 1991.28,-196.5 "/>
<text text-anchor="middle" x="1953.78" y="-181.3" font-family="Times,serif" font-size="14.00">reset</text>
<polyline fill="none" stroke="black" points="1916.28,-173.5 1991.28,-173.5 "/>
<text text-anchor="middle" x="1953.78" y="-158.3" font-family="Times,serif" font-size="14.00">sample_en</text>
<polyline fill="none" stroke="black" points="1991.28,-150.5 1991.28,-219.5 "/>
<text text-anchor="middle" x="2052.28" y="-188.8" font-family="Times,serif" font-size="14.00">mac</text>
<text text-anchor="middle" x="2052.28" y="-173.8" font-family="Times,serif" font-size="14.00">phase_accumulator</text>
<polyline fill="none" stroke="black" points="2113.28,-150.5 2113.28,-219.5 "/>
<text text-anchor="middle" x="2136.78" y="-198.8" font-family="Times,serif" font-size="14.00">done</text>
<polyline fill="none" stroke="black" points="2113.28,-185.5 2160.28,-185.5 "/>
<text text-anchor="middle" x="2136.78" y="-164.3" font-family="Times,serif" font-size="14.00">phase</text>
</g>
<!-- n14&#45;&gt;c44 -->
<g id="edge9" class="edge">
<title>n14:e&#45;&gt;c44:w</title>
<path fill="none" stroke="black" d="M1561.41,-41C1713.31,-41 1743.38,-98.19 1880.28,-164 1893.33,-170.27 1896.66,-179.56 1906.32,-183.33"/>
<polygon fill="black" stroke="black" points="1905.84,-186.79 1916.28,-185 1907,-179.89 1905.84,-186.79"/>
</g>
<!-- n15 -->
<g id="node4" class="node">
<title>n15</title>
<polygon fill="none" stroke="black" points="642.79,-338 561.18,-320 642.79,-302 724.4,-320 642.79,-338"/>
<text text-anchor="middle" x="642.79" y="-316.3" font-family="Times,serif" font-size="14.00">sweep_active</text>
</g>
<!-- c38 -->
<g id="node22" class="node">
<title>c38</title>
<polygon fill="none" stroke="black" points="141.99,-356.5 141.99,-425.5 241.99,-425.5 241.99,-356.5 141.99,-356.5"/>
<text text-anchor="middle" x="154.99" y="-410.3" font-family="Times,serif" font-size="14.00">A</text>
<polyline fill="none" stroke="black" points="141.99,-402.5 167.99,-402.5 "/>
<text text-anchor="middle" x="154.99" y="-387.3" font-family="Times,serif" font-size="14.00">B</text>
<polyline fill="none" stroke="black" points="141.99,-379.5 167.99,-379.5 "/>
<text text-anchor="middle" x="154.99" y="-364.3" font-family="Times,serif" font-size="14.00">S</text>
<polyline fill="none" stroke="black" points="167.99,-356.5 167.99,-425.5 "/>
<text text-anchor="middle" x="191.99" y="-394.8" font-family="Times,serif" font-size="14.00">$53</text>
<text text-anchor="middle" x="191.99" y="-379.8" font-family="Times,serif" font-size="14.00">$mux</text>
<polyline fill="none" stroke="black" points="215.99,-356.5 215.99,-425.5 "/>
<text text-anchor="middle" x="228.99" y="-387.3" font-family="Times,serif" font-size="14.00">Y</text>
</g>
<!-- n15&#45;&gt;c38 -->
<g id="edge11" class="edge">
<title>n15:e&#45;&gt;c38:w</title>
<path fill="none" stroke="black" d="M725.79,-320C733.8,-320 730.44,-332.32 724.79,-338 711.93,-350.93 577.82,-341 560.98,-348 541.21,-356.21 544.33,-370.84 524.98,-380 425.33,-427.19 388.65,-400.34 279.98,-419 249.72,-424.2 164.58,-446.79 141.99,-426 141.37,-425.43 140.79,-424.75 140.28,-424"/>
<polygon fill="black" stroke="black" points="143.77,-424.22 140.99,-414 136.79,-423.73 143.77,-424.22"/>
</g>
<!-- c49 -->
<g id="node39" class="node">
<title>c49</title>
<polygon fill="none" stroke="black" points="907.09,-369 907.09,-415 1002.09,-415 1002.09,-369 907.09,-369"/>
<text text-anchor="middle" x="920.09" y="-399.8" font-family="Times,serif" font-size="14.00">A</text>
<polyline fill="none" stroke="black" points="907.09,-392 933.09,-392 "/>
<text text-anchor="middle" x="920.09" y="-376.8" font-family="Times,serif" font-size="14.00">B</text>
<polyline fill="none" stroke="black" points="933.09,-369 933.09,-415 "/>
<text text-anchor="middle" x="954.59" y="-395.8" font-family="Times,serif" font-size="14.00">$4</text>
<text text-anchor="middle" x="954.59" y="-380.8" font-family="Times,serif" font-size="14.00">$and</text>
<polyline fill="none" stroke="black" points="976.09,-369 976.09,-415 "/>
<text text-anchor="middle" x="989.09" y="-388.3" font-family="Times,serif" font-size="14.00">Y</text>
</g>
<!-- n15&#45;&gt;c49 -->
<g id="edge12" class="edge">
<title>n15:e&#45;&gt;c49:w</title>
<path fill="none" stroke="black" d="M724.59,-320C805.86,-320 819.78,-375.18 895.52,-379.71"/>
<polygon fill="black" stroke="black" points="895.49,-383.21 905.59,-380 895.7,-376.21 895.49,-383.21"/>
</g>
<!-- n16 -->
<g id="node5" class="node">
<title>n16</title>
<polygon fill="none" stroke="black" points="1811.35,-602 1742.47,-584 1811.35,-566 1880.22,-584 1811.35,-602"/>
<text text-anchor="middle" x="1811.35" y="-580.3" font-family="Times,serif" font-size="14.00">sample_en</text>
</g>
<!-- n16&#45;&gt;c43 -->
<g id="edge14" class="edge">
<title>n16:e&#45;&gt;c43:w</title>
<path fill="none" stroke="black" d="M1880.28,-584C2118.91,-584 2078.68,-271.05 2309.41,-262.19"/>
<polygon fill="black" stroke="black" points="2309.59,-265.69 2319.52,-262 2309.45,-258.69 2309.59,-265.69"/>
</g>
<!-- n16&#45;&gt;c44 -->
<g id="edge15" class="edge">
<title>n16:e&#45;&gt;c44:w</title>
<path fill="none" stroke="black" d="M1880.28,-584C1970.73,-584 1833.68,-194.32 1906.35,-163.88"/>
<polygon fill="black" stroke="black" points="1907.11,-167.3 1916.28,-162 1905.81,-160.42 1907.11,-167.3"/>
</g>
<!-- n17 -->
<g id="node6" class="node">
<title>n17</title>
<polygon fill="none" stroke="black" points="642.79,-538 590.5,-520 642.79,-502 695.07,-520 642.79,-538"/>
<text text-anchor="middle" x="642.79" y="-516.3" font-family="Times,serif" font-size="14.00">clk_div</text>
</g>
<!-- c46 -->
<g id="node36" class="node">
<title>c46</title>
<polygon fill="none" stroke="black" points="760.59,-393 760.59,-439 855.59,-439 855.59,-393 760.59,-393"/>
<text text-anchor="middle" x="773.59" y="-423.8" font-family="Times,serif" font-size="14.00">A</text>
<polyline fill="none" stroke="black" points="760.59,-416 786.59,-416 "/>
<text text-anchor="middle" x="773.59" y="-400.8" font-family="Times,serif" font-size="14.00">B</text>
<polyline fill="none" stroke="black" points="786.59,-393 786.59,-439 "/>
<text text-anchor="middle" x="808.09" y="-419.8" font-family="Times,serif" font-size="14.00">$7</text>
<text text-anchor="middle" x="808.09" y="-404.8" font-family="Times,serif" font-size="14.00">$add</text>
<polyline fill="none" stroke="black" points="829.59,-393 829.59,-439 "/>
<text text-anchor="middle" x="842.59" y="-412.3" font-family="Times,serif" font-size="14.00">Y</text>
</g>
<!-- n17&#45;&gt;c46 -->
<g id="edge17" class="edge">
<title>n17:e&#45;&gt;c46:w</title>
<path fill="none" stroke="black" stroke-width="3" d="M695.79,-520C713.33,-520 713.81,-506.84 724.59,-493 742.43,-470.1 731.21,-437.24 750.65,-429.62"/>
<polygon fill="black" stroke="black" stroke-width="3" points="751.29,-433.06 760.59,-428 750.16,-426.16 751.29,-433.06"/>
</g>
<!-- c50 -->
<g id="node41" class="node">
<title>c50</title>
<polygon fill="none" stroke="black" points="764.09,-458 764.09,-504 852.09,-504 852.09,-458 764.09,-458"/>
<text text-anchor="middle" x="777.09" y="-488.8" font-family="Times,serif" font-size="14.00">A</text>
<polyline fill="none" stroke="black" points="764.09,-481 790.09,-481 "/>
<text text-anchor="middle" x="777.09" y="-465.8" font-family="Times,serif" font-size="14.00">B</text>
<polyline fill="none" stroke="black" points="790.09,-458 790.09,-504 "/>
<text text-anchor="middle" x="808.09" y="-484.8" font-family="Times,serif" font-size="14.00">$3</text>
<text text-anchor="middle" x="808.09" y="-469.8" font-family="Times,serif" font-size="14.00">$eq</text>
<polyline fill="none" stroke="black" points="826.09,-458 826.09,-504 "/>
<text text-anchor="middle" x="839.09" y="-477.3" font-family="Times,serif" font-size="14.00">Y</text>
</g>
<!-- n17&#45;&gt;c50 -->
<g id="edge18" class="edge">
<title>n17:e&#45;&gt;c50:w</title>
<path fill="none" stroke="black" stroke-width="3" d="M695.79,-520C724.24,-520 729.79,-498.96 752.88,-494.03"/>
<polygon fill="black" stroke="black" stroke-width="3" points="753.49,-497.48 763.09,-493 752.79,-490.52 753.49,-497.48"/>
</g>
<!-- n18 -->
<g id="node7" class="node">
<title>n18</title>
<polygon fill="none" stroke="black" points="838.09,-94.54 838.09,-109.46 820.52,-120 795.66,-120 778.09,-109.46 778.09,-94.54 795.66,-84 820.52,-84 838.09,-94.54"/>
<text text-anchor="middle" x="808.09" y="-98.3" font-family="Times,serif" font-size="14.00">done</text>
</g>
<!-- n18&#45;&gt;c45 -->
<g id="edge20" class="edge">
<title>n18:e&#45;&gt;c45:w</title>
<path fill="none" stroke="black" d="M839.09,-102C955.09,-102 984.09,-102 1100.09,-102 1100.09,-102 1100.09,-102 2435.02,-102 2481.89,-102 2788.3,-175.58 2862.54,-183.34"/>
<polygon fill="black" stroke="black" points="2862.49,-186.84 2872.7,-184 2862.94,-179.86 2862.49,-186.84"/>
</g>
<!-- c48 -->
<g id="node38" class="node">
<title>c48</title>
<polygon fill="none" stroke="black" points="891.59,-131 891.59,-169 1017.59,-169 1017.59,-131 891.59,-131"/>
<text text-anchor="middle" x="904.59" y="-146.3" font-family="Times,serif" font-size="14.00">A</text>
<polyline fill="none" stroke="black" points="917.59,-131 917.59,-169 "/>
<text text-anchor="middle" x="954.59" y="-153.8" font-family="Times,serif" font-size="14.00">$5</text>
<text text-anchor="middle" x="954.59" y="-138.8" font-family="Times,serif" font-size="14.00">$logic_not</text>
<polyline fill="none" stroke="black" points="991.59,-131 991.59,-169 "/>
<text text-anchor="middle" x="1004.59" y="-146.3" font-family="Times,serif" font-size="14.00">Y</text>
</g>
<!-- n18&#45;&gt;c48 -->
<g id="edge21" class="edge">
<title>n18:e&#45;&gt;c48:w</title>
<path fill="none" stroke="black" d="M839.09,-102C866.76,-102 862,-138.75 881.56,-147.94"/>
<polygon fill="black" stroke="black" points="881.09,-151.42 891.59,-150 882.5,-144.56 881.09,-151.42"/>
</g>
<!-- n19 -->
<g id="node8" class="node">
<title>n19</title>
<polygon fill="none" stroke="black" points="80.28,-298.54 80.28,-313.46 63.71,-324 40.28,-324 23.72,-313.46 23.72,-298.54 40.28,-288 63.71,-288 80.28,-298.54"/>
<text text-anchor="middle" x="52" y="-302.3" font-family="Times,serif" font-size="14.00">start</text>
</g>
<!-- n19&#45;&gt;c38 -->
<g id="edge22" class="edge">
<title>n19:e&#45;&gt;c38:w</title>
<path fill="none" stroke="black" d="M81,-306C115.44,-306 105.47,-356.05 130.89,-366.21"/>
<polygon fill="black" stroke="black" points="130.53,-369.7 140.99,-368 131.75,-362.81 130.53,-369.7"/>
</g>
<!-- c40 -->
<g id="node26" class="node">
<title>c40</title>
<polygon fill="none" stroke="black" points="141.99,-498.5 141.99,-567.5 241.99,-567.5 241.99,-498.5 141.99,-498.5"/>
<text text-anchor="middle" x="154.99" y="-552.3" font-family="Times,serif" font-size="14.00">A</text>
<polyline fill="none" stroke="black" points="141.99,-544.5 167.99,-544.5 "/>
<text text-anchor="middle" x="154.99" y="-529.3" font-family="Times,serif" font-size="14.00">B</text>
<polyline fill="none" stroke="black" points="141.99,-521.5 167.99,-521.5 "/>
<text text-anchor="middle" x="154.99" y="-506.3" font-family="Times,serif" font-size="14.00">S</text>
<polyline fill="none" stroke="black" points="167.99,-498.5 167.99,-567.5 "/>
<text text-anchor="middle" x="191.99" y="-536.8" font-family="Times,serif" font-size="14.00">$47</text>
<text text-anchor="middle" x="191.99" y="-521.8" font-family="Times,serif" font-size="14.00">$mux</text>
<polyline fill="none" stroke="black" points="215.99,-498.5 215.99,-567.5 "/>
<text text-anchor="middle" x="228.99" y="-529.3" font-family="Times,serif" font-size="14.00">Y</text>
</g>
<!-- n19&#45;&gt;c40 -->
<g id="edge23" class="edge">
<title>n19:e&#45;&gt;c40:w</title>
<path fill="none" stroke="black" d="M81,-306C171.81,-306 56.22,-494.37 130.91,-509.09"/>
<polygon fill="black" stroke="black" points="130.71,-512.59 140.99,-510 131.34,-505.62 130.71,-512.59"/>
</g>
<!-- c42 -->
<g id="node30" class="node">
<title>c42</title>
<polygon fill="none" stroke="black" points="1184.59,-318.5 1184.59,-387.5 1284.59,-387.5 1284.59,-318.5 1184.59,-318.5"/>
<text text-anchor="middle" x="1197.59" y="-372.3" font-family="Times,serif" font-size="14.00">A</text>
<polyline fill="none" stroke="black" points="1184.59,-364.5 1210.59,-364.5 "/>
<text text-anchor="middle" x="1197.59" y="-349.3" font-family="Times,serif" font-size="14.00">B</text>
<polyline fill="none" stroke="black" points="1184.59,-341.5 1210.59,-341.5 "/>
<text text-anchor="middle" x="1197.59" y="-326.3" font-family="Times,serif" font-size="14.00">S</text>
<polyline fill="none" stroke="black" points="1210.59,-318.5 1210.59,-387.5 "/>
<text text-anchor="middle" x="1234.59" y="-356.8" font-family="Times,serif" font-size="14.00">$41</text>
<text text-anchor="middle" x="1234.59" y="-341.8" font-family="Times,serif" font-size="14.00">$mux</text>
<polyline fill="none" stroke="black" points="1258.59,-318.5 1258.59,-387.5 "/>
<text text-anchor="middle" x="1271.59" y="-349.3" font-family="Times,serif" font-size="14.00">Y</text>
</g>
<!-- n19&#45;&gt;c42 -->
<g id="edge24" class="edge">
<title>n19:e&#45;&gt;c42:w</title>
<path fill="none" stroke="black" d="M81,-306C107.84,-306 113.48,-297.24 139.99,-293 223.35,-279.67 244.56,-274 328.98,-274 328.98,-274 328.98,-274 955.59,-274 1041.78,-274 1070.93,-255.62 1148.59,-293 1165.55,-301.16 1163.47,-320.83 1174.84,-327.64"/>
<polygon fill="black" stroke="black" points="1174.05,-331.04 1184.59,-330 1175.7,-324.24 1174.05,-331.04"/>
</g>
<!-- c51 -->
<g id="node42" class="node">
<title>c51</title>
<polygon fill="none" stroke="black" points="286.48,-123 286.48,-169 373.48,-169 373.48,-123 286.48,-123"/>
<text text-anchor="middle" x="299.48" y="-153.8" font-family="Times,serif" font-size="14.00">A</text>
<polyline fill="none" stroke="black" points="286.48,-146 312.48,-146 "/>
<text text-anchor="middle" x="299.48" y="-130.8" font-family="Times,serif" font-size="14.00">B</text>
<polyline fill="none" stroke="black" points="312.48,-123 312.48,-169 "/>
<text text-anchor="middle" x="329.98" y="-149.8" font-family="Times,serif" font-size="14.00">$1</text>
<text text-anchor="middle" x="329.98" y="-134.8" font-family="Times,serif" font-size="14.00">$or</text>
<polyline fill="none" stroke="black" points="347.48,-123 347.48,-169 "/>
<text text-anchor="middle" x="360.48" y="-142.3" font-family="Times,serif" font-size="14.00">Y</text>
</g>
<!-- n19&#45;&gt;c51 -->
<g id="edge25" class="edge">
<title>n19:e&#45;&gt;c51:w</title>
<path fill="none" stroke="black" d="M81,-306C134.52,-306 100.67,-237.33 139.99,-201 189.58,-155.18 211.79,-135.91 274.93,-134.14"/>
<polygon fill="black" stroke="black" points="275.03,-137.63 284.98,-134 274.94,-130.64 275.03,-137.63"/>
</g>
<!-- n20 -->
<g id="node9" class="node">
<title>n20</title>
<polygon fill="none" stroke="black" points="2278.79,-324.54 2278.79,-339.46 2256.01,-350 2223.79,-350 2201.02,-339.46 2201.02,-324.54 2223.79,-314 2256.01,-314 2278.79,-324.54"/>
<text text-anchor="middle" x="2239.9" y="-328.3" font-family="Times,serif" font-size="14.00">din_lut</text>
</g>
<!-- n20&#45;&gt;c43 -->
<g id="edge27" class="edge">
<title>n20:e&#45;&gt;c43:w</title>
<path fill="none" stroke="black" stroke-width="3" d="M2279.9,-332C2293.52,-332 2299.24,-332 2309.28,-332"/>
<polygon fill="black" stroke="black" stroke-width="3" points="2309.52,-335.5 2319.52,-332 2309.52,-328.5 2309.52,-335.5"/>
</g>
<!-- n21 -->
<g id="node10" class="node">
<title>n21</title>
<polygon fill="none" stroke="black" points="2283.63,-734.54 2283.63,-749.46 2258.02,-760 2221.79,-760 2196.17,-749.46 2196.17,-734.54 2221.79,-724 2258.02,-724 2283.63,-734.54"/>
<text text-anchor="middle" x="2239.9" y="-738.3" font-family="Times,serif" font-size="14.00">addr_lut</text>
</g>
<!-- n21&#45;&gt;c43 -->
<g id="edge28" class="edge">
<title>n21:e&#45;&gt;c43:w</title>
<path fill="none" stroke="black" stroke-width="3" d="M2283.52,-742C2356,-742 2254.23,-433.49 2309.69,-403.36"/>
<polygon fill="black" stroke="black" stroke-width="3" points="2310.61,-406.74 2319.52,-401 2308.98,-399.93 2310.61,-406.74"/>
</g>
<!-- n22 -->
<g id="node11" class="node">
<title>n22</title>
<polygon fill="none" stroke="black" points="2276.97,-140.54 2276.97,-155.46 2255.26,-166 2224.55,-166 2202.83,-155.46 2202.83,-140.54 2224.55,-130 2255.26,-130 2276.97,-140.54"/>
<text text-anchor="middle" x="2239.9" y="-144.3" font-family="Times,serif" font-size="14.00">we_lut</text>
</g>
<!-- n22&#45;&gt;c43 -->
<g id="edge29" class="edge">
<title>n22:e&#45;&gt;c43:w</title>
<path fill="none" stroke="black" d="M2277.9,-148C2318.38,-148 2282.81,-223.38 2309.62,-236.93"/>
<polygon fill="black" stroke="black" points="2309.01,-240.38 2319.52,-239 2310.45,-233.53 2309.01,-240.38"/>
</g>
<!-- n23 -->
<g id="node12" class="node">
<title>n23</title>
<polygon fill="none" stroke="black" points="2280.1,-680.54 2280.1,-695.46 2256.55,-706 2223.25,-706 2199.7,-695.46 2199.7,-680.54 2223.25,-670 2256.55,-670 2280.1,-680.54"/>
<text text-anchor="middle" x="2239.9" y="-684.3" font-family="Times,serif" font-size="14.00">clk_sys</text>
</g>
<!-- n23&#45;&gt;c43 -->
<g id="edge30" class="edge">
<title>n23:e&#45;&gt;c43:w</title>
<path fill="none" stroke="black" d="M2280.9,-688C2346.53,-688 2260.55,-410.98 2309.59,-380.68"/>
<polygon fill="black" stroke="black" points="2310.78,-383.99 2319.52,-378 2308.95,-377.23 2310.78,-383.99"/>
</g>
<!-- n24 -->
<g id="node13" class="node">
<title>n24</title>
<polygon fill="none" stroke="black" points="3108.54,-199.54 3108.54,-214.46 3079.31,-225 3037.98,-225 3008.75,-214.46 3008.75,-199.54 3037.98,-189 3079.31,-189 3108.54,-199.54"/>
<text text-anchor="middle" x="3058.64" y="-203.3" font-family="Times,serif" font-size="14.00">amplitude</text>
</g>
<!-- n25 -->
<g id="node14" class="node">
<title>n25</title>
<polygon fill="none" stroke="black" points="221.58,-220.54 221.58,-235.46 204.24,-246 179.73,-246 162.39,-235.46 162.39,-220.54 179.73,-210 204.24,-210 221.58,-220.54"/>
<text text-anchor="middle" x="191.99" y="-224.3" font-family="Times,serif" font-size="14.00">reset</text>
</g>
<!-- c37 -->
<g id="node20" class="node">
<title>c37</title>
<polygon fill="none" stroke="black" points="279.98,-302.5 279.98,-371.5 379.98,-371.5 379.98,-302.5 279.98,-302.5"/>
<text text-anchor="middle" x="292.98" y="-356.3" font-family="Times,serif" font-size="14.00">A</text>
<polyline fill="none" stroke="black" points="279.98,-348.5 305.98,-348.5 "/>
<text text-anchor="middle" x="292.98" y="-333.3" font-family="Times,serif" font-size="14.00">B</text>
<polyline fill="none" stroke="black" points="279.98,-325.5 305.98,-325.5 "/>
<text text-anchor="middle" x="292.98" y="-310.3" font-family="Times,serif" font-size="14.00">S</text>
<polyline fill="none" stroke="black" points="305.98,-302.5 305.98,-371.5 "/>
<text text-anchor="middle" x="329.98" y="-340.8" font-family="Times,serif" font-size="14.00">$56</text>
<text text-anchor="middle" x="329.98" y="-325.8" font-family="Times,serif" font-size="14.00">$mux</text>
<polyline fill="none" stroke="black" points="353.98,-302.5 353.98,-371.5 "/>
<text text-anchor="middle" x="366.98" y="-333.3" font-family="Times,serif" font-size="14.00">Y</text>
</g>
<!-- n25&#45;&gt;c37 -->
<g id="edge32" class="edge">
<title>n25:e&#45;&gt;c37:w</title>
<path fill="none" stroke="black" d="M222.99,-228C264.9,-228 239.5,-299.85 269.84,-312.2"/>
<polygon fill="black" stroke="black" points="269.52,-315.7 279.98,-314 270.75,-308.81 269.52,-315.7"/>
</g>
<!-- c39 -->
<g id="node24" class="node">
<title>c39</title>
<polygon fill="none" stroke="black" points="279.98,-428.5 279.98,-497.5 379.98,-497.5 379.98,-428.5 279.98,-428.5"/>
<text text-anchor="middle" x="292.98" y="-482.3" font-family="Times,serif" font-size="14.00">A</text>
<polyline fill="none" stroke="black" points="279.98,-474.5 305.98,-474.5 "/>
<text text-anchor="middle" x="292.98" y="-459.3" font-family="Times,serif" font-size="14.00">B</text>
<polyline fill="none" stroke="black" points="279.98,-451.5 305.98,-451.5 "/>
<text text-anchor="middle" x="292.98" y="-436.3" font-family="Times,serif" font-size="14.00">S</text>
<polyline fill="none" stroke="black" points="305.98,-428.5 305.98,-497.5 "/>
<text text-anchor="middle" x="329.98" y="-466.8" font-family="Times,serif" font-size="14.00">$50</text>
<text text-anchor="middle" x="329.98" y="-451.8" font-family="Times,serif" font-size="14.00">$mux</text>
<polyline fill="none" stroke="black" points="353.98,-428.5 353.98,-497.5 "/>
<text text-anchor="middle" x="366.98" y="-459.3" font-family="Times,serif" font-size="14.00">Y</text>
</g>
<!-- n25&#45;&gt;c39 -->
<g id="edge33" class="edge">
<title>n25:e&#45;&gt;c39:w</title>
<path fill="none" stroke="black" d="M222.99,-228C268.15,-228 236.73,-409.7 270.52,-436.67"/>
<polygon fill="black" stroke="black" points="269.39,-439.98 279.98,-440 271.71,-433.38 269.39,-439.98"/>
</g>
<!-- c41 -->
<g id="node28" class="node">
<title>c41</title>
<polygon fill="none" stroke="black" points="1391,-271.5 1391,-340.5 1491,-340.5 1491,-271.5 1391,-271.5"/>
<text text-anchor="middle" x="1404" y="-325.3" font-family="Times,serif" font-size="14.00">A</text>
<polyline fill="none" stroke="black" points="1391,-317.5 1417,-317.5 "/>
<text text-anchor="middle" x="1404" y="-302.3" font-family="Times,serif" font-size="14.00">B</text>
<polyline fill="none" stroke="black" points="1391,-294.5 1417,-294.5 "/>
<text text-anchor="middle" x="1404" y="-279.3" font-family="Times,serif" font-size="14.00">S</text>
<polyline fill="none" stroke="black" points="1417,-271.5 1417,-340.5 "/>
<text text-anchor="middle" x="1441" y="-309.8" font-family="Times,serif" font-size="14.00">$44</text>
<text text-anchor="middle" x="1441" y="-294.8" font-family="Times,serif" font-size="14.00">$mux</text>
<polyline fill="none" stroke="black" points="1465,-271.5 1465,-340.5 "/>
<text text-anchor="middle" x="1478" y="-302.3" font-family="Times,serif" font-size="14.00">Y</text>
</g>
<!-- n25&#45;&gt;c41 -->
<g id="edge34" class="edge">
<title>n25:e&#45;&gt;c41:w</title>
<path fill="none" stroke="black" d="M222.99,-228C332.6,-228 359.87,-236 469.48,-236 469.48,-236 469.48,-236 1102.09,-236 1183.64,-236 1204.38,-240.27 1284.59,-255 1328.73,-263.11 1339.94,-280.2 1379.82,-282.69"/>
<polygon fill="black" stroke="black" points="1379.9,-286.2 1390,-283 1380.11,-279.2 1379.9,-286.2"/>
</g>
<!-- n25&#45;&gt;c43 -->
<g id="edge35" class="edge">
<title>n25:e&#45;&gt;c43:w</title>
<path fill="none" stroke="black" d="M222.99,-228C333.35,-228 359.12,-198 469.48,-198 469.48,-198 469.48,-198 1102.09,-198 1641.11,-198 1775.36,-283.9 2309.24,-284.99"/>
<polygon fill="black" stroke="black" points="2309.51,-288.49 2319.52,-285 2309.52,-281.49 2309.51,-288.49"/>
</g>
<!-- n25&#45;&gt;c51 -->
<g id="edge36" class="edge">
<title>n25:e&#45;&gt;c51:w</title>
<path fill="none" stroke="black" d="M222.99,-228C260.65,-228 246.83,-170.51 274.84,-159.73"/>
<polygon fill="black" stroke="black" points="275.71,-163.13 284.98,-158 274.54,-156.23 275.71,-163.13"/>
</g>
<!-- n26 -->
<g id="node15" class="node">
<title>n26</title>
<polygon fill="none" stroke="black" points="362.2,-564.54 362.2,-579.46 343.33,-590 316.63,-590 297.76,-579.46 297.76,-564.54 316.63,-554 343.33,-554 362.2,-564.54"/>
<text text-anchor="middle" x="329.98" y="-568.3" font-family="Times,serif" font-size="14.00">clock</text>
</g>
<!-- c30 -->
<g id="node16" class="node">
<title>c30</title>
<polygon fill="none" stroke="black" points="415.98,-325 415.98,-371 524.98,-371 524.98,-325 415.98,-325"/>
<text text-anchor="middle" x="437.98" y="-355.8" font-family="Times,serif" font-size="14.00">CLK</text>
<polyline fill="none" stroke="black" points="415.98,-348 459.98,-348 "/>
<text text-anchor="middle" x="437.98" y="-332.8" font-family="Times,serif" font-size="14.00">D</text>
<polyline fill="none" stroke="black" points="459.98,-325 459.98,-371 "/>
<text text-anchor="middle" x="479.48" y="-351.8" font-family="Times,serif" font-size="14.00">$60</text>
<text text-anchor="middle" x="479.48" y="-336.8" font-family="Times,serif" font-size="14.00">$dff</text>
<polyline fill="none" stroke="black" points="498.98,-325 498.98,-371 "/>
<text text-anchor="middle" x="511.98" y="-344.3" font-family="Times,serif" font-size="14.00">Q</text>
</g>
<!-- n26&#45;&gt;c30 -->
<g id="edge37" class="edge">
<title>n26:e&#45;&gt;c30:w</title>
<path fill="none" stroke="black" d="M362.98,-572C456.31,-572 329.53,-376.24 405.66,-360.95"/>
<polygon fill="black" stroke="black" points="406.34,-364.4 415.98,-360 405.7,-357.43 406.34,-364.4"/>
</g>
<!-- c31 -->
<g id="node17" class="node">
<title>c31</title>
<polygon fill="none" stroke="black" points="1597.41,-567 1597.41,-613 1706.41,-613 1706.41,-567 1597.41,-567"/>
<text text-anchor="middle" x="1619.41" y="-597.8" font-family="Times,serif" font-size="14.00">CLK</text>
<polyline fill="none" stroke="black" points="1597.41,-590 1641.41,-590 "/>
<text text-anchor="middle" x="1619.41" y="-574.8" font-family="Times,serif" font-size="14.00">D</text>
<polyline fill="none" stroke="black" points="1641.41,-567 1641.41,-613 "/>
<text text-anchor="middle" x="1660.91" y="-593.8" font-family="Times,serif" font-size="14.00">$59</text>
<text text-anchor="middle" x="1660.91" y="-578.8" font-family="Times,serif" font-size="14.00">$dff</text>
<polyline fill="none" stroke="black" points="1680.41,-567 1680.41,-613 "/>
<text text-anchor="middle" x="1693.41" y="-586.3" font-family="Times,serif" font-size="14.00">Q</text>
</g>
<!-- n26&#45;&gt;c31 -->
<g id="edge38" class="edge">
<title>n26:e&#45;&gt;c31:w</title>
<path fill="none" stroke="black" d="M362.98,-572C386.8,-572 392.35,-576.96 415.98,-580 516.08,-592.87 540.86,-604 641.79,-604 641.79,-604 641.79,-604 1235.59,-604 1392.95,-604 1434.82,-602.09 1587.21,-602"/>
<polygon fill="black" stroke="black" points="1587.41,-605.5 1597.41,-602 1587.41,-598.5 1587.41,-605.5"/>
</g>
<!-- c32 -->
<g id="node18" class="node">
<title>c32</title>
<polygon fill="none" stroke="black" points="415.98,-491 415.98,-537 524.98,-537 524.98,-491 415.98,-491"/>
<text text-anchor="middle" x="437.98" y="-521.8" font-family="Times,serif" font-size="14.00">CLK</text>
<polyline fill="none" stroke="black" points="415.98,-514 459.98,-514 "/>
<text text-anchor="middle" x="437.98" y="-498.8" font-family="Times,serif" font-size="14.00">D</text>
<polyline fill="none" stroke="black" points="459.98,-491 459.98,-537 "/>
<text text-anchor="middle" x="479.48" y="-517.8" font-family="Times,serif" font-size="14.00">$58</text>
<text text-anchor="middle" x="479.48" y="-502.8" font-family="Times,serif" font-size="14.00">$dff</text>
<polyline fill="none" stroke="black" points="498.98,-491 498.98,-537 "/>
<text text-anchor="middle" x="511.98" y="-510.3" font-family="Times,serif" font-size="14.00">Q</text>
</g>
<!-- n26&#45;&gt;c32 -->
<g id="edge39" class="edge">
<title>n26:e&#45;&gt;c32:w</title>
<path fill="none" stroke="black" d="M362.98,-572C390.27,-572 386.5,-536.78 406.03,-527.98"/>
<polygon fill="black" stroke="black" points="406.85,-531.38 415.98,-526 405.49,-524.51 406.85,-531.38"/>
</g>
<!-- n26&#45;&gt;c43 -->
<g id="edge40" class="edge">
<title>n26:e&#45;&gt;c43:w</title>
<path fill="none" stroke="black" d="M362.98,-572C390.05,-572 390.51,-592.84 415.98,-602 511.89,-636.49 539.87,-642 641.79,-642 641.79,-642 641.79,-642 2039.28,-642 2214.08,-642 2144.12,-366.1 2309.36,-355.32"/>
<polygon fill="black" stroke="black" points="2309.63,-358.82 2319.52,-355 2309.41,-351.82 2309.63,-358.82"/>
</g>
<!-- n26&#45;&gt;c44 -->
<g id="edge41" class="edge">
<title>n26:e&#45;&gt;c44:w</title>
<path fill="none" stroke="black" d="M362.98,-572C904.68,-572 1044.51,-512.03 1561.41,-350 1706.82,-304.42 1739.77,-282.96 1880.28,-224 1892.65,-218.81 1896.92,-212.19 1906.1,-209.37"/>
<polygon fill="black" stroke="black" points="1906.84,-212.8 1916.28,-208 1905.91,-205.86 1906.84,-212.8"/>
</g>
<!-- c30&#45;&gt;n15 -->
<g id="edge10" class="edge">
<title>c30:e&#45;&gt;n15:w</title>
<path fill="none" stroke="black" d="M524.98,-348C541.13,-348 541.53,-330.22 551.28,-323"/>
<polygon fill="black" stroke="black" points="552.46,-326.3 560.98,-320 550.39,-319.61 552.46,-326.3"/>
</g>
<!-- c31&#45;&gt;n16 -->
<g id="edge13" class="edge">
<title>c31:e&#45;&gt;n16:w</title>
<path fill="none" stroke="black" d="M1706.41,-590C1718.58,-590 1723.62,-586.62 1732.22,-584.94"/>
<polygon fill="black" stroke="black" points="1732.77,-588.4 1742.41,-584 1732.13,-581.43 1732.77,-588.4"/>
</g>
<!-- c32&#45;&gt;n17 -->
<g id="edge16" class="edge">
<title>c32:e&#45;&gt;n17:w</title>
<path fill="none" stroke="black" stroke-width="3" d="M524.98,-514C550.18,-514 558.7,-518.55 579.6,-519.73"/>
<polygon fill="black" stroke="black" stroke-width="3" points="579.7,-523.23 589.79,-520 579.88,-516.23 579.7,-523.23"/>
</g>
<!-- v0 -->
<g id="node19" class="node">
<title>v0</title>
<ellipse fill="none" stroke="black" cx="191.99" cy="-320" rx="27" ry="18"/>
<text text-anchor="middle" x="191.99" y="-316.3" font-family="Times,serif" font-size="14.00">1&#39;0</text>
</g>
<!-- v0&#45;&gt;c37 -->
<g id="edge49" class="edge">
<title>v0:e&#45;&gt;c37:w</title>
<path fill="none" stroke="black" d="M219.99,-320C243.91,-320 250.59,-332.67 269.79,-336.13"/>
<polygon fill="black" stroke="black" points="269.72,-339.64 279.98,-337 270.31,-332.67 269.72,-339.64"/>
</g>
<!-- c37&#45;&gt;c30 -->
<g id="edge47" class="edge">
<title>c37:e&#45;&gt;c30:w</title>
<path fill="none" stroke="black" d="M379.98,-337C391.99,-337 397.23,-336.44 405.85,-336.16"/>
<polygon fill="black" stroke="black" points="406.04,-339.65 415.98,-336 405.93,-332.65 406.04,-339.65"/>
</g>
<!-- v1 -->
<g id="node21" class="node">
<title>v1</title>
<ellipse fill="none" stroke="black" cx="52" cy="-391" rx="27" ry="18"/>
<text text-anchor="middle" x="52" y="-387.3" font-family="Times,serif" font-size="14.00">1&#39;1</text>
</g>
<!-- v1&#45;&gt;c38 -->
<g id="edge50" class="edge">
<title>v1:e&#45;&gt;c38:w</title>
<path fill="none" stroke="black" d="M80,-391C103.4,-391 111.65,-391 130.9,-391"/>
<polygon fill="black" stroke="black" points="130.99,-394.5 140.99,-391 130.99,-387.5 130.99,-394.5"/>
</g>
<!-- c38&#45;&gt;c37 -->
<g id="edge1" class="edge">
<title>c38:e&#45;&gt;c37:w</title>
<path fill="none" stroke="black" d="M242.99,-391C260.25,-391 259.79,-370.93 270.14,-363.09"/>
<polygon fill="black" stroke="black" points="271.49,-366.33 279.98,-360 269.39,-359.65 271.49,-366.33"/>
</g>
<!-- v2 -->
<g id="node23" class="node">
<title>v2</title>
<ellipse fill="none" stroke="black" cx="191.99" cy="-462" rx="51.99" ry="18"/>
<text text-anchor="middle" x="191.99" y="-458.3" font-family="Times,serif" font-size="14.00">8&#39;00000000</text>
</g>
<!-- v2&#45;&gt;c39 -->
<g id="edge51" class="edge">
<title>v2:e&#45;&gt;c39:w</title>
<path fill="none" stroke="black" stroke-width="3" d="M243.98,-462C255.99,-462 261.23,-462.56 269.85,-462.84"/>
<polygon fill="black" stroke="black" stroke-width="3" points="269.93,-466.35 279.98,-463 270.04,-459.35 269.93,-466.35"/>
</g>
<!-- c39&#45;&gt;c32 -->
<g id="edge2" class="edge">
<title>c39:e&#45;&gt;c32:w</title>
<path fill="none" stroke="black" stroke-width="3" d="M379.98,-463C399.33,-463 395.29,-489.24 406.23,-498.67"/>
<polygon fill="black" stroke="black" stroke-width="3" points="405.39,-502.09 415.98,-502 407.65,-495.46 405.39,-502.09"/>
</g>
<!-- v3 -->
<g id="node25" class="node">
<title>v3</title>
<ellipse fill="none" stroke="black" cx="52" cy="-533" rx="51.99" ry="18"/>
<text text-anchor="middle" x="52" y="-529.3" font-family="Times,serif" font-size="14.00">8&#39;00000000</text>
</g>
<!-- v3&#45;&gt;c40 -->
<g id="edge52" class="edge">
<title>v3:e&#45;&gt;c40:w</title>
<path fill="none" stroke="black" stroke-width="3" d="M103.99,-533C116.45,-533 121.83,-533 130.86,-533"/>
<polygon fill="black" stroke="black" stroke-width="3" points="130.99,-536.5 140.99,-533 130.99,-529.5 130.99,-536.5"/>
</g>
<!-- c40&#45;&gt;c39 -->
<g id="edge26" class="edge">
<title>c40:e&#45;&gt;c39:w</title>
<path fill="none" stroke="black" stroke-width="3" d="M242.99,-533C265.42,-533 257.41,-499.54 270.33,-489.08"/>
<polygon fill="black" stroke="black" stroke-width="3" points="271.52,-492.38 279.98,-486 269.39,-485.71 271.52,-492.38"/>
</g>
<!-- v4 -->
<g id="node27" class="node">
<title>v4</title>
<ellipse fill="none" stroke="black" cx="1234.59" cy="-282" rx="27" ry="18"/>
<text text-anchor="middle" x="1234.59" y="-278.3" font-family="Times,serif" font-size="14.00">1&#39;0</text>
</g>
<!-- v4&#45;&gt;c41 -->
<g id="edge53" class="edge">
<title>v4:e&#45;&gt;c41:w</title>
<path fill="none" stroke="black" d="M1262.59,-282C1316.61,-282 1330.68,-303.09 1379.71,-305.73"/>
<polygon fill="black" stroke="black" points="1379.91,-309.24 1390,-306 1380.1,-302.24 1379.91,-309.24"/>
</g>
<!-- c41&#45;&gt;c31 -->
<g id="edge48" class="edge">
<title>c41:e&#45;&gt;c31:w</title>
<path fill="none" stroke="black" d="M1492,-306C1618.11,-306 1475.97,-563.33 1587.4,-577.4"/>
<polygon fill="black" stroke="black" points="1587.22,-580.9 1597.41,-578 1587.64,-573.91 1587.22,-580.9"/>
</g>
<!-- v5 -->
<g id="node29" class="node">
<title>v5</title>
<ellipse fill="none" stroke="black" cx="1101.09" cy="-320" rx="27" ry="18"/>
<text text-anchor="middle" x="1101.09" y="-316.3" font-family="Times,serif" font-size="14.00">1&#39;0</text>
</g>
<!-- v5&#45;&gt;c42 -->
<g id="edge54" class="edge">
<title>v5:e&#45;&gt;c42:w</title>
<path fill="none" stroke="black" d="M1129.09,-320C1153.98,-320 1155.86,-344.82 1174.63,-351.41"/>
<polygon fill="black" stroke="black" points="1174.16,-354.88 1184.59,-353 1175.27,-347.97 1174.16,-354.88"/>
</g>
<!-- c42&#45;&gt;c41 -->
<g id="edge3" class="edge">
<title>c42:e&#45;&gt;c41:w</title>
<path fill="none" stroke="black" d="M1284.59,-353C1329.07,-353 1340.36,-332.43 1379.91,-329.38"/>
<polygon fill="black" stroke="black" points="1380.14,-332.87 1390,-329 1379.88,-325.88 1380.14,-332.87"/>
</g>
<!-- c43&#45;&gt;n12 -->
<g id="edge4" class="edge">
<title>c43:e&#45;&gt;n12:w</title>
<path fill="none" stroke="black" stroke-width="3" d="M2548.52,-320C2571.27,-320 2573.67,-298.25 2590.38,-291.79"/>
<polygon fill="black" stroke="black" stroke-width="3" points="2591.36,-295.17 2600.61,-290 2590.15,-288.27 2591.36,-295.17"/>
</g>
<!-- c44&#45;&gt;n13 -->
<g id="edge6" class="edge">
<title>c44:e&#45;&gt;n13:w</title>
<path fill="none" stroke="black" stroke-width="3" d="M2160.28,-168C2178.17,-168 2176.23,-190.45 2186.68,-198.86"/>
<polygon fill="black" stroke="black" stroke-width="3" points="2185.69,-202.22 2196.28,-202 2187.86,-195.57 2185.69,-202.22"/>
</g>
<!-- c44&#45;&gt;n18 -->
<g id="edge19" class="edge">
<title>c44:e&#45;&gt;n18:w</title>
<path fill="none" stroke="black" d="M2161.28,-203C2168.85,-203 2165.79,-214.81 2160.28,-220 2081.38,-294.4 2024.44,-227.9 1916.28,-220 1513.65,-190.59 1420.22,-117.41 1017.59,-88 961.74,-83.92 945.55,-73.03 891.59,-88 864.98,-95.38 864.95,-112.62 838.34,-120 812.54,-127.16 797.54,-138.4 778.09,-120 775.73,-117.76 773.8,-114.37 772.87,-111.14"/>
<polygon fill="black" stroke="black" points="776.08,-112.55 777.09,-102 769.72,-109.61 776.08,-112.55"/>
</g>
<!-- v6 -->
<g id="node33" class="node">
<title>v6</title>
<ellipse fill="none" stroke="black" cx="2710.61" cy="-207" rx="126.18" ry="18"/>
<text text-anchor="middle" x="2710.61" y="-203.3" font-family="Times,serif" font-size="14.00">24&#39;000000000000000000000000</text>
</g>
<!-- v6&#45;&gt;c45 -->
<g id="edge55" class="edge">
<title>v6:e&#45;&gt;c45:w</title>
<path fill="none" stroke="black" stroke-width="3" d="M2836.7,-207C2848.7,-207 2853.95,-207 2862.57,-207"/>
<polygon fill="black" stroke="black" stroke-width="3" points="2862.7,-210.5 2872.7,-207 2862.69,-203.5 2862.7,-210.5"/>
</g>
<!-- c45&#45;&gt;n24 -->
<g id="edge31" class="edge">
<title>c45:e&#45;&gt;n24:w</title>
<path fill="none" stroke="black" stroke-width="3" d="M2972.7,-207C2984.7,-207 2989.95,-207 2998.57,-207"/>
<polygon fill="black" stroke="black" stroke-width="3" points="2998.7,-210.5 3008.7,-207 2998.69,-203.5 2998.7,-210.5"/>
</g>
<!-- v7 -->
<g id="node35" class="node">
<title>v7</title>
<ellipse fill="none" stroke="black" cx="642.79" cy="-374" rx="27" ry="18"/>
<text text-anchor="middle" x="642.79" y="-370.3" font-family="Times,serif" font-size="14.00">1&#39;1</text>
</g>
<!-- v7&#45;&gt;c46 -->
<g id="edge56" class="edge">
<title>v7:e&#45;&gt;c46:w</title>
<path fill="none" stroke="black" d="M670.79,-374C709.25,-374 717.27,-399.07 750.5,-403.37"/>
<polygon fill="black" stroke="black" points="750.39,-406.87 760.59,-404 750.83,-399.89 750.39,-406.87"/>
</g>
<!-- c46&#45;&gt;c40 -->
<g id="edge42" class="edge">
<title>c46:e&#45;&gt;c40:w</title>
<path fill="none" stroke="black" stroke-width="3" d="M857.09,-416C867.55,-416 863.64,-432.27 856.09,-439.5 834.99,-459.72 753.81,-439.2 724.59,-439 651.88,-438.5 632.94,-428.55 560.98,-439 494.46,-448.66 476.58,-452.91 415.98,-482 398.42,-490.43 397.21,-497.92 379.98,-507 337.92,-529.17 322.72,-524.16 279.98,-545 262.24,-553.65 261,-562.69 241.99,-568 199.18,-579.95 174.69,-598.09 141.99,-568 141.37,-567.43 140.79,-566.75 140.28,-566"/>
<polygon fill="black" stroke="black" stroke-width="3" points="143.77,-566.22 140.99,-556 136.79,-565.73 143.77,-566.22"/>
</g>
<!-- c47 -->
<g id="node37" class="node">
<title>c47</title>
<polygon fill="none" stroke="black" points="1053.59,-357 1053.59,-403 1148.59,-403 1148.59,-357 1053.59,-357"/>
<text text-anchor="middle" x="1066.59" y="-387.8" font-family="Times,serif" font-size="14.00">A</text>
<polyline fill="none" stroke="black" points="1053.59,-380 1079.59,-380 "/>
<text text-anchor="middle" x="1066.59" y="-364.8" font-family="Times,serif" font-size="14.00">B</text>
<polyline fill="none" stroke="black" points="1079.59,-357 1079.59,-403 "/>
<text text-anchor="middle" x="1101.09" y="-383.8" font-family="Times,serif" font-size="14.00">$6</text>
<text text-anchor="middle" x="1101.09" y="-368.8" font-family="Times,serif" font-size="14.00">$and</text>
<polyline fill="none" stroke="black" points="1122.59,-357 1122.59,-403 "/>
<text text-anchor="middle" x="1135.59" y="-376.3" font-family="Times,serif" font-size="14.00">Y</text>
</g>
<!-- c47&#45;&gt;c42 -->
<g id="edge43" class="edge">
<title>c47:e&#45;&gt;c42:w</title>
<path fill="none" stroke="black" d="M1148.59,-380C1160.67,-380 1165.82,-377.75 1174.44,-376.62"/>
<polygon fill="black" stroke="black" points="1174.83,-380.11 1184.59,-376 1174.4,-373.12 1174.83,-380.11"/>
</g>
<!-- c48&#45;&gt;c47 -->
<g id="edge44" class="edge">
<title>c48:e&#45;&gt;c47:w</title>
<path fill="none" stroke="black" d="M1017.59,-150C1111.96,-150 967.53,-351.3 1043.24,-367.03"/>
<polygon fill="black" stroke="black" points="1043.31,-370.55 1053.59,-368 1043.96,-363.58 1043.31,-370.55"/>
</g>
<!-- c49&#45;&gt;c47 -->
<g id="edge45" class="edge">
<title>c49:e&#45;&gt;c47:w</title>
<path fill="none" stroke="black" d="M1003.59,-392C1021.99,-392 1028.97,-392 1043.44,-392"/>
<polygon fill="black" stroke="black" points="1043.59,-395.5 1053.59,-392 1043.59,-388.5 1043.59,-395.5"/>
</g>
<!-- v8 -->
<g id="node40" class="node">
<title>v8</title>
<ellipse fill="none" stroke="black" cx="642.79" cy="-466" rx="51.99" ry="18"/>
<text text-anchor="middle" x="642.79" y="-462.3" font-family="Times,serif" font-size="14.00">8&#39;11111111</text>
</g>
<!-- v8&#45;&gt;c50 -->
<g id="edge57" class="edge">
<title>v8:e&#45;&gt;c50:w</title>
<path fill="none" stroke="black" stroke-width="3" d="M695.79,-466C721.99,-466 730.94,-468.3 752.83,-468.87"/>
<polygon fill="black" stroke="black" stroke-width="3" points="753.05,-472.37 763.09,-469 753.14,-465.37 753.05,-472.37"/>
</g>
<!-- c50&#45;&gt;c49 -->
<g id="edge46" class="edge">
<title>c50:e&#45;&gt;c49:w</title>
<path fill="none" stroke="black" d="M853.09,-481C890.63,-481 869.23,-417.76 895.72,-405.9"/>
<polygon fill="black" stroke="black" points="896.43,-409.33 905.59,-404 895.11,-402.46 896.43,-409.33"/>
</g>
<!-- c51&#45;&gt;n14 -->
<g id="edge8" class="edge">
<title>c51:e&#45;&gt;n14:w</title>
<path fill="none" stroke="black" d="M374.98,-146C505,-146 511.76,-26 641.79,-26 641.79,-26 641.79,-26 1102.09,-26 1196.01,-26 1221.49,-39.96 1310.59,-40.95"/>
<polygon fill="black" stroke="black" points="1310.57,-44.45 1320.59,-41 1310.61,-37.45 1310.57,-44.45"/>
</g>
</g>
</svg>
